SplineFontDB: 3.2
FontName: Tecnica-53
FullName: Tecnica 53
FamilyName: Tecnica
Weight: Regular
Copyright: Copyright (c) 2024 by Davide Piscitelli (https://github.com/Davide-Piscitelli/Tecnica-Typeface.git).
Version: 1.100
ItalicAngle: 0
UnderlinePosition: -100
UnderlineWidth: 50
Ascent: 960
Descent: 240
InvalidEm: 0
sfntRevision: 0x00011993
LayerCount: 2
Layer: 0 0 "Sfondo" 1
Layer: 1 0 "Fore" 0
XUID: [1021 377 1849096109 10342842]
StyleMap: 0x0040
FSType: 0
OS2Version: 4
OS2_WeightWidthSlopeOnly: 0
OS2_UseTypoMetrics: 1
CreationTime: 1742815394
ModificationTime: 1742813550
PfmFamily: 81
TTFWeight: 400
TTFWidth: 3
LineGap: 140
VLineGap: 0
Panose: 0 0 5 0 0 0 0 0 0 0
OS2TypoAscent: 1000
OS2TypoAOffset: 0
OS2TypoDescent: -300
OS2TypoDOffset: 0
OS2TypoLinegap: 140
OS2WinAscent: 1140
OS2WinAOffset: 0
OS2WinDescent: 300
OS2WinDOffset: 0
HheadAscent: 1000
HheadAOffset: 0
HheadDescent: -300
HheadDOffset: 0
OS2SubXSize: 780
OS2SubYSize: 720
OS2SubXOff: 0
OS2SubYOff: 90
OS2SupXSize: 780
OS2SupYSize: 720
OS2SupXOff: 0
OS2SupYOff: 420
OS2StrikeYSize: 50
OS2StrikeYPos: 330
OS2CapHeight: 700
OS2XHeight: 550
OS2FamilyClass: 2058
OS2Vendor: 'DAPI'
OS2CodePages: 20000093.00000000
OS2UnicodeRanges: 00000007.00000001.00000000.00000000
Lookup: 1 0 0 "'aalt' Accedi a tutte le alternative lookup 0" { "'aalt' Accedi a tutte le alternative lookup 0 subtable"  } ['aalt' ('DFLT' <'dflt' > 'grek' <'dflt' > 'latn' <'dflt' > ) ]
Lookup: 1 0 0 "'locl' Forme localizzate in Latino lookup 1" { "'locl' Forme localizzate in Latino lookup 1 subtable"  } ['locl' ('latn' <'ROM ' > ) ]
Lookup: 1 0 0 "'locl' Forme localizzate in Latino lookup 2" { "'locl' Forme localizzate in Latino lookup 2 subtable"  } ['locl' ('latn' <'MOL ' > ) ]
Lookup: 1 0 0 "'locl' Forme localizzate in Latino lookup 3" { "'locl' Forme localizzate in Latino lookup 3 subtable"  } ['locl' ('latn' <'KAZ ' > ) ]

StartChar: .notdef
Encoding: 65536 -1 0
Width: 400
GlyphClass: 1
Flags: MW
HStem: 0 100<86 114 186 214 286 314> 150 100<86 114 186 214 286 314> 300 100<86 114 186 214 286 314> 450 100<86 114 186 214 286 314> 600 100<86 114 186 214 286 314>
VStem: 50 100<36 64 186 214 336 364 486 514 636 664> 150 100<36 64 36 64 186 214 186 214 336 364 336 364 486 514 486 514 636 664 636 664> 250 100<36 64 36 64 186 214 186 214 336 364 336 364 486 514 486 514 636 664 636 664>
LayerCount: 2
Fore
SplineSet
100 600 m 0xfd
 72 600 50 622 50 650 c 0
 50 678 72 700 100 700 c 0
 128 700 150 678 150 650 c 0
 150 622 128 600 100 600 c 0xfd
200 600 m 0x0a
 172 600 150 622 150 650 c 0
 150 678 172 700 200 700 c 0
 228 700 250 678 250 650 c 0
 250 622 228 600 200 600 c 0x0a
300 600 m 0x1d
 272 600 250 622 250 650 c 0
 250 678 272 700 300 700 c 0
 328 700 350 678 350 650 c 0
 350 622 328 600 300 600 c 0x1d
100 450 m 0
 72 450 50 472 50 500 c 0
 50 528 72 550 100 550 c 0
 128 550 150 528 150 500 c 0
 150 472 128 450 100 450 c 0
200 450 m 0x12
 172 450 150 472 150 500 c 0
 150 528 172 550 200 550 c 0
 228 550 250 528 250 500 c 0
 250 472 228 450 200 450 c 0x12
300 450 m 0x35
 272 450 250 472 250 500 c 0
 250 528 272 550 300 550 c 0
 328 550 350 528 350 500 c 0
 350 472 328 450 300 450 c 0x35
100 300 m 0
 72 300 50 322 50 350 c 0
 50 378 72 400 100 400 c 0
 128 400 150 378 150 350 c 0
 150 322 128 300 100 300 c 0
200 300 m 0x22
 172 300 150 322 150 350 c 0
 150 378 172 400 200 400 c 0
 228 400 250 378 250 350 c 0
 250 322 228 300 200 300 c 0x22
300 300 m 0x65
 272 300 250 322 250 350 c 0
 250 378 272 400 300 400 c 0
 328 400 350 378 350 350 c 0
 350 322 328 300 300 300 c 0x65
100 150 m 0
 72 150 50 172 50 200 c 0
 50 228 72 250 100 250 c 0
 128 250 150 228 150 200 c 0
 150 172 128 150 100 150 c 0
200 150 m 0x42
 172 150 150 172 150 200 c 0
 150 228 172 250 200 250 c 0
 228 250 250 228 250 200 c 0
 250 172 228 150 200 150 c 0x42
300 150 m 0xc5
 272 150 250 172 250 200 c 0
 250 228 272 250 300 250 c 0
 328 250 350 228 350 200 c 0
 350 172 328 150 300 150 c 0xc5
100 0 m 0
 72 0 50 22 50 50 c 0
 50 78 72 100 100 100 c 0
 128 100 150 78 150 50 c 0
 150 22 128 0 100 0 c 0
200 0 m 0x82
 172 0 150 22 150 50 c 0
 150 78 172 100 200 100 c 0
 228 100 250 78 250 50 c 0
 250 22 228 0 200 0 c 0x82
300 0 m 0x81
 272 0 250 22 250 50 c 0
 250 78 272 100 300 100 c 0
 328 100 350 78 350 50 c 0
 350 22 328 0 300 0 c 0x81
EndSplineSet
EndChar

StartChar: A
Encoding: 65 65 1
Width: 400
GlyphClass: 1
Flags: MW
HStem: 0 100<86 114 286 314> 150 100<86 114 286 314> 300 100<86 114 186 214 286 314> 450 100<86 114 286 314> 600 100<186 214>
VStem: 50 100<36 64 186 214 336 364 486 514> 150 100<36 64 186 214 336 364 336 364 486 514 636 664> 250 100<36 64 186 214 336 364 336 364 486 514>
LayerCount: 2
Fore
SplineSet
200 600 m 0x0a
 172 600 150 622 150 650 c 0
 150 678 172 700 200 700 c 0
 228 700 250 678 250 650 c 0
 250 622 228 600 200 600 c 0x0a
100 450 m 0x35
 72 450 50 472 50 500 c 0
 50 528 72 550 100 550 c 0
 128 550 150 528 150 500 c 0
 150 472 128 450 100 450 c 0x35
300 450 m 0
 272 450 250 472 250 500 c 0
 250 528 272 550 300 550 c 0
 328 550 350 528 350 500 c 0
 350 472 328 450 300 450 c 0
100 300 m 0
 72 300 50 322 50 350 c 0
 50 378 72 400 100 400 c 0
 128 400 150 378 150 350 c 0
 150 322 128 300 100 300 c 0
200 300 m 0x22
 172 300 150 322 150 350 c 0
 150 378 172 400 200 400 c 0
 228 400 250 378 250 350 c 0
 250 322 228 300 200 300 c 0x22
300 300 m 0xe5
 272 300 250 322 250 350 c 0
 250 378 272 400 300 400 c 0
 328 400 350 378 350 350 c 0
 350 322 328 300 300 300 c 0xe5
100 150 m 0
 72 150 50 172 50 200 c 0
 50 228 72 250 100 250 c 0
 128 250 150 228 150 200 c 0
 150 172 128 150 100 150 c 0
300 150 m 0
 272 150 250 172 250 200 c 0
 250 228 272 250 300 250 c 0
 328 250 350 228 350 200 c 0
 350 172 328 150 300 150 c 0
100 0 m 0
 72 0 50 22 50 50 c 0
 50 78 72 100 100 100 c 0
 128 100 150 78 150 50 c 0
 150 22 128 0 100 0 c 0
300 0 m 0
 272 0 250 22 250 50 c 0
 250 78 272 100 300 100 c 0
 328 100 350 78 350 50 c 0
 350 22 328 0 300 0 c 0
EndSplineSet
EndChar

StartChar: Aacute
Encoding: 193 193 2
Width: 400
GlyphClass: 1
Flags: MW
HStem: 0 100<86 114 286 314> 150 100<86 114 286 314> 300 100<86 114 186 214 286 314> 450 100<86 114 286 314> 600 100<186 214> 750 100<186 214> 900 100<286 314>
VStem: 50 100<36 64 186 214 336 364 486 514> 150 100<36 64 186 214 336 364 336 364 486 514 636 664 786 814> 250 100<36 64 186 214 336 364 336 364 486 514 936 964>
LayerCount: 2
Fore
SplineSet
300 900 m 0xff40
 272 900 250 922 250 950 c 0
 250 978 272 1000 300 1000 c 0
 328 1000 350 978 350 950 c 0
 350 922 328 900 300 900 c 0xff40
200 750 m 0x0c80
 172 750 150 772 150 800 c 0
 150 828 172 850 200 850 c 0
 228 850 250 828 250 800 c 0
 250 772 228 750 200 750 c 0x0c80
200 600 m 0
 172 600 150 622 150 650 c 0
 150 678 172 700 200 700 c 0
 228 700 250 678 250 650 c 0
 250 622 228 600 200 600 c 0
100 450 m 0x3140
 72 450 50 472 50 500 c 0
 50 528 72 550 100 550 c 0
 128 550 150 528 150 500 c 0
 150 472 128 450 100 450 c 0x3140
300 450 m 0
 272 450 250 472 250 500 c 0
 250 528 272 550 300 550 c 0
 328 550 350 528 350 500 c 0
 350 472 328 450 300 450 c 0
100 300 m 0
 72 300 50 322 50 350 c 0
 50 378 72 400 100 400 c 0
 128 400 150 378 150 350 c 0
 150 322 128 300 100 300 c 0
200 300 m 0x2080
 172 300 150 322 150 350 c 0
 150 378 172 400 200 400 c 0
 228 400 250 378 250 350 c 0
 250 322 228 300 200 300 c 0x2080
300 300 m 0xe140
 272 300 250 322 250 350 c 0
 250 378 272 400 300 400 c 0
 328 400 350 378 350 350 c 0
 350 322 328 300 300 300 c 0xe140
100 150 m 0
 72 150 50 172 50 200 c 0
 50 228 72 250 100 250 c 0
 128 250 150 228 150 200 c 0
 150 172 128 150 100 150 c 0
300 150 m 0
 272 150 250 172 250 200 c 0
 250 228 272 250 300 250 c 0
 328 250 350 228 350 200 c 0
 350 172 328 150 300 150 c 0
100 0 m 0
 72 0 50 22 50 50 c 0
 50 78 72 100 100 100 c 0
 128 100 150 78 150 50 c 0
 150 22 128 0 100 0 c 0
300 0 m 0
 272 0 250 22 250 50 c 0
 250 78 272 100 300 100 c 0
 328 100 350 78 350 50 c 0
 350 22 328 0 300 0 c 0
EndSplineSet
EndChar

StartChar: Abreve
Encoding: 258 258 3
Width: 400
GlyphClass: 1
Flags: MW
HStem: 0 100<86 114 286 314> 150 100<86 114 286 314> 300 100<86 114 186 214 286 314> 450 100<86 114 286 314> 600 100<186 214> 750 100<86 114 186 214 286 314> 900 100<86 114 286 314>
VStem: 50 100<36 64 186 214 336 364 486 514 786 814 936 964> 150 100<36 64 186 214 336 364 336 364 486 514 636 664 786 814 786 814 936 964> 250 100<36 64 186 214 336 364 336 364 486 514 786 814 786 814 936 964>
LayerCount: 2
Fore
SplineSet
100 900 m 0xff40
 72 900 50 922 50 950 c 0
 50 978 72 1000 100 1000 c 0
 128 1000 150 978 150 950 c 0
 150 922 128 900 100 900 c 0xff40
300 900 m 0
 272 900 250 922 250 950 c 0
 250 978 272 1000 300 1000 c 0
 328 1000 350 978 350 950 c 0
 350 922 328 900 300 900 c 0
100 750 m 0
 72 750 50 772 50 800 c 0
 50 828 72 850 100 850 c 0
 128 850 150 828 150 800 c 0
 150 772 128 750 100 750 c 0
200 750 m 0x0480
 172 750 150 772 150 800 c 0
 150 828 172 850 200 850 c 0
 228 850 250 828 250 800 c 0
 250 772 228 750 200 750 c 0x0480
300 750 m 0x0440
 272 750 250 772 250 800 c 0
 250 828 272 850 300 850 c 0
 328 850 350 828 350 800 c 0
 350 772 328 750 300 750 c 0x0440
200 600 m 0x0880
 172 600 150 622 150 650 c 0
 150 678 172 700 200 700 c 0
 228 700 250 678 250 650 c 0
 250 622 228 600 200 600 c 0x0880
100 450 m 0x3140
 72 450 50 472 50 500 c 0
 50 528 72 550 100 550 c 0
 128 550 150 528 150 500 c 0
 150 472 128 450 100 450 c 0x3140
300 450 m 0
 272 450 250 472 250 500 c 0
 250 528 272 550 300 550 c 0
 328 550 350 528 350 500 c 0
 350 472 328 450 300 450 c 0
100 300 m 0
 72 300 50 322 50 350 c 0
 50 378 72 400 100 400 c 0
 128 400 150 378 150 350 c 0
 150 322 128 300 100 300 c 0
200 300 m 0x2080
 172 300 150 322 150 350 c 0
 150 378 172 400 200 400 c 0
 228 400 250 378 250 350 c 0
 250 322 228 300 200 300 c 0x2080
300 300 m 0xe140
 272 300 250 322 250 350 c 0
 250 378 272 400 300 400 c 0
 328 400 350 378 350 350 c 0
 350 322 328 300 300 300 c 0xe140
100 150 m 0
 72 150 50 172 50 200 c 0
 50 228 72 250 100 250 c 0
 128 250 150 228 150 200 c 0
 150 172 128 150 100 150 c 0
300 150 m 0
 272 150 250 172 250 200 c 0
 250 228 272 250 300 250 c 0
 328 250 350 228 350 200 c 0
 350 172 328 150 300 150 c 0
100 0 m 0
 72 0 50 22 50 50 c 0
 50 78 72 100 100 100 c 0
 128 100 150 78 150 50 c 0
 150 22 128 0 100 0 c 0
300 0 m 0
 272 0 250 22 250 50 c 0
 250 78 272 100 300 100 c 0
 328 100 350 78 350 50 c 0
 350 22 328 0 300 0 c 0
EndSplineSet
EndChar

StartChar: Acircumflex
Encoding: 194 194 4
Width: 400
GlyphClass: 1
Flags: MW
HStem: 0 100<86 114 286 314> 150 100<86 114 286 314> 300 100<86 114 186 214 286 314> 450 100<86 114 286 314> 600 100<186 214> 750 100<86 114 286 314> 900 100<186 214>
VStem: 50 100<36 64 186 214 336 364 486 514 786 814> 150 100<36 64 186 214 336 364 336 364 486 514 636 664 786 814 936 964> 250 100<36 64 186 214 336 364 336 364 486 514 786 814>
LayerCount: 2
Fore
SplineSet
200 900 m 0x0280
 172 900 150 922 150 950 c 0
 150 978 172 1000 200 1000 c 0
 228 1000 250 978 250 950 c 0
 250 922 228 900 200 900 c 0x0280
100 750 m 0x0540
 72 750 50 772 50 800 c 0
 50 828 72 850 100 850 c 0
 128 850 150 828 150 800 c 0
 150 772 128 750 100 750 c 0x0540
300 750 m 0
 272 750 250 772 250 800 c 0
 250 828 272 850 300 850 c 0
 328 850 350 828 350 800 c 0
 350 772 328 750 300 750 c 0
200 600 m 0x0880
 172 600 150 622 150 650 c 0
 150 678 172 700 200 700 c 0
 228 700 250 678 250 650 c 0
 250 622 228 600 200 600 c 0x0880
100 450 m 0x3140
 72 450 50 472 50 500 c 0
 50 528 72 550 100 550 c 0
 128 550 150 528 150 500 c 0
 150 472 128 450 100 450 c 0x3140
300 450 m 0
 272 450 250 472 250 500 c 0
 250 528 272 550 300 550 c 0
 328 550 350 528 350 500 c 0
 350 472 328 450 300 450 c 0
100 300 m 0
 72 300 50 322 50 350 c 0
 50 378 72 400 100 400 c 0
 128 400 150 378 150 350 c 0
 150 322 128 300 100 300 c 0
200 300 m 0x2080
 172 300 150 322 150 350 c 0
 150 378 172 400 200 400 c 0
 228 400 250 378 250 350 c 0
 250 322 228 300 200 300 c 0x2080
300 300 m 0xe140
 272 300 250 322 250 350 c 0
 250 378 272 400 300 400 c 0
 328 400 350 378 350 350 c 0
 350 322 328 300 300 300 c 0xe140
100 150 m 0
 72 150 50 172 50 200 c 0
 50 228 72 250 100 250 c 0
 128 250 150 228 150 200 c 0
 150 172 128 150 100 150 c 0
300 150 m 0
 272 150 250 172 250 200 c 0
 250 228 272 250 300 250 c 0
 328 250 350 228 350 200 c 0
 350 172 328 150 300 150 c 0
100 0 m 0
 72 0 50 22 50 50 c 0
 50 78 72 100 100 100 c 0
 128 100 150 78 150 50 c 0
 150 22 128 0 100 0 c 0
300 0 m 0
 272 0 250 22 250 50 c 0
 250 78 272 100 300 100 c 0
 328 100 350 78 350 50 c 0
 350 22 328 0 300 0 c 0
EndSplineSet
EndChar

StartChar: Adieresis
Encoding: 196 196 5
Width: 400
GlyphClass: 1
Flags: MW
HStem: 0 100<86 114 286 314> 150 100<86 114 286 314> 300 100<86 114 186 214 286 314> 450 100<86 114 286 314> 600 100<186 214> 900 100<86 114 286 314>
VStem: 50 100<36 64 186 214 336 364 486 514 936 964> 150 100<36 64 186 214 336 364 336 364 486 514 636 664 936 964> 250 100<36 64 186 214 336 364 336 364 486 514 936 964>
LayerCount: 2
Fore
SplineSet
100 900 m 0xfe80
 72 900 50 922 50 950 c 0
 50 978 72 1000 100 1000 c 0
 128 1000 150 978 150 950 c 0
 150 922 128 900 100 900 c 0xfe80
300 900 m 0
 272 900 250 922 250 950 c 0
 250 978 272 1000 300 1000 c 0
 328 1000 350 978 350 950 c 0
 350 922 328 900 300 900 c 0
200 600 m 0x09
 172 600 150 622 150 650 c 0
 150 678 172 700 200 700 c 0
 228 700 250 678 250 650 c 0
 250 622 228 600 200 600 c 0x09
100 450 m 0x3280
 72 450 50 472 50 500 c 0
 50 528 72 550 100 550 c 0
 128 550 150 528 150 500 c 0
 150 472 128 450 100 450 c 0x3280
300 450 m 0
 272 450 250 472 250 500 c 0
 250 528 272 550 300 550 c 0
 328 550 350 528 350 500 c 0
 350 472 328 450 300 450 c 0
100 300 m 0
 72 300 50 322 50 350 c 0
 50 378 72 400 100 400 c 0
 128 400 150 378 150 350 c 0
 150 322 128 300 100 300 c 0
200 300 m 0x21
 172 300 150 322 150 350 c 0
 150 378 172 400 200 400 c 0
 228 400 250 378 250 350 c 0
 250 322 228 300 200 300 c 0x21
300 300 m 0xe280
 272 300 250 322 250 350 c 0
 250 378 272 400 300 400 c 0
 328 400 350 378 350 350 c 0
 350 322 328 300 300 300 c 0xe280
100 150 m 0
 72 150 50 172 50 200 c 0
 50 228 72 250 100 250 c 0
 128 250 150 228 150 200 c 0
 150 172 128 150 100 150 c 0
300 150 m 0
 272 150 250 172 250 200 c 0
 250 228 272 250 300 250 c 0
 328 250 350 228 350 200 c 0
 350 172 328 150 300 150 c 0
100 0 m 0
 72 0 50 22 50 50 c 0
 50 78 72 100 100 100 c 0
 128 100 150 78 150 50 c 0
 150 22 128 0 100 0 c 0
300 0 m 0
 272 0 250 22 250 50 c 0
 250 78 272 100 300 100 c 0
 328 100 350 78 350 50 c 0
 350 22 328 0 300 0 c 0
EndSplineSet
EndChar

StartChar: Agrave
Encoding: 192 192 6
Width: 400
GlyphClass: 1
Flags: MW
HStem: 0 100<86 114 286 314> 150 100<86 114 286 314> 300 100<86 114 186 214 286 314> 450 100<86 114 286 314> 600 100<186 214> 750 100<186 214> 900 100<86 114>
VStem: 50 100<36 64 186 214 336 364 486 514 936 964> 150 100<36 64 186 214 336 364 336 364 486 514 636 664 786 814> 250 100<36 64 186 214 336 364 336 364 486 514>
LayerCount: 2
Fore
SplineSet
100 900 m 0xff40
 72 900 50 922 50 950 c 0
 50 978 72 1000 100 1000 c 0
 128 1000 150 978 150 950 c 0
 150 922 128 900 100 900 c 0xff40
200 750 m 0x0c80
 172 750 150 772 150 800 c 0
 150 828 172 850 200 850 c 0
 228 850 250 828 250 800 c 0
 250 772 228 750 200 750 c 0x0c80
200 600 m 0
 172 600 150 622 150 650 c 0
 150 678 172 700 200 700 c 0
 228 700 250 678 250 650 c 0
 250 622 228 600 200 600 c 0
100 450 m 0x3140
 72 450 50 472 50 500 c 0
 50 528 72 550 100 550 c 0
 128 550 150 528 150 500 c 0
 150 472 128 450 100 450 c 0x3140
300 450 m 0
 272 450 250 472 250 500 c 0
 250 528 272 550 300 550 c 0
 328 550 350 528 350 500 c 0
 350 472 328 450 300 450 c 0
100 300 m 0
 72 300 50 322 50 350 c 0
 50 378 72 400 100 400 c 0
 128 400 150 378 150 350 c 0
 150 322 128 300 100 300 c 0
200 300 m 0x2080
 172 300 150 322 150 350 c 0
 150 378 172 400 200 400 c 0
 228 400 250 378 250 350 c 0
 250 322 228 300 200 300 c 0x2080
300 300 m 0xe140
 272 300 250 322 250 350 c 0
 250 378 272 400 300 400 c 0
 328 400 350 378 350 350 c 0
 350 322 328 300 300 300 c 0xe140
100 150 m 0
 72 150 50 172 50 200 c 0
 50 228 72 250 100 250 c 0
 128 250 150 228 150 200 c 0
 150 172 128 150 100 150 c 0
300 150 m 0
 272 150 250 172 250 200 c 0
 250 228 272 250 300 250 c 0
 328 250 350 228 350 200 c 0
 350 172 328 150 300 150 c 0
100 0 m 0
 72 0 50 22 50 50 c 0
 50 78 72 100 100 100 c 0
 128 100 150 78 150 50 c 0
 150 22 128 0 100 0 c 0
300 0 m 0
 272 0 250 22 250 50 c 0
 250 78 272 100 300 100 c 0
 328 100 350 78 350 50 c 0
 350 22 328 0 300 0 c 0
EndSplineSet
EndChar

StartChar: Amacron
Encoding: 256 256 7
Width: 400
GlyphClass: 1
Flags: MW
HStem: 0 100<86 114 286 314> 150 100<86 114 286 314> 300 100<86 114 186 214 286 314> 450 100<86 114 286 314> 600 100<186 214> 900 100<86 114 186 214 286 314>
VStem: 50 100<36 64 186 214 336 364 486 514 936 964> 150 100<36 64 186 214 336 364 336 364 486 514 636 664 936 964 936 964> 250 100<36 64 186 214 336 364 336 364 486 514 936 964 936 964>
LayerCount: 2
Fore
SplineSet
100 900 m 0xfe80
 72 900 50 922 50 950 c 0
 50 978 72 1000 100 1000 c 0
 128 1000 150 978 150 950 c 0
 150 922 128 900 100 900 c 0xfe80
200 900 m 0x05
 172 900 150 922 150 950 c 0
 150 978 172 1000 200 1000 c 0
 228 1000 250 978 250 950 c 0
 250 922 228 900 200 900 c 0x05
300 900 m 0x0480
 272 900 250 922 250 950 c 0
 250 978 272 1000 300 1000 c 0
 328 1000 350 978 350 950 c 0
 350 922 328 900 300 900 c 0x0480
200 600 m 0x09
 172 600 150 622 150 650 c 0
 150 678 172 700 200 700 c 0
 228 700 250 678 250 650 c 0
 250 622 228 600 200 600 c 0x09
100 450 m 0x3280
 72 450 50 472 50 500 c 0
 50 528 72 550 100 550 c 0
 128 550 150 528 150 500 c 0
 150 472 128 450 100 450 c 0x3280
300 450 m 0
 272 450 250 472 250 500 c 0
 250 528 272 550 300 550 c 0
 328 550 350 528 350 500 c 0
 350 472 328 450 300 450 c 0
100 300 m 0
 72 300 50 322 50 350 c 0
 50 378 72 400 100 400 c 0
 128 400 150 378 150 350 c 0
 150 322 128 300 100 300 c 0
200 300 m 0x21
 172 300 150 322 150 350 c 0
 150 378 172 400 200 400 c 0
 228 400 250 378 250 350 c 0
 250 322 228 300 200 300 c 0x21
300 300 m 0xe280
 272 300 250 322 250 350 c 0
 250 378 272 400 300 400 c 0
 328 400 350 378 350 350 c 0
 350 322 328 300 300 300 c 0xe280
100 150 m 0
 72 150 50 172 50 200 c 0
 50 228 72 250 100 250 c 0
 128 250 150 228 150 200 c 0
 150 172 128 150 100 150 c 0
300 150 m 0
 272 150 250 172 250 200 c 0
 250 228 272 250 300 250 c 0
 328 250 350 228 350 200 c 0
 350 172 328 150 300 150 c 0
100 0 m 0
 72 0 50 22 50 50 c 0
 50 78 72 100 100 100 c 0
 128 100 150 78 150 50 c 0
 150 22 128 0 100 0 c 0
300 0 m 0
 272 0 250 22 250 50 c 0
 250 78 272 100 300 100 c 0
 328 100 350 78 350 50 c 0
 350 22 328 0 300 0 c 0
EndSplineSet
EndChar

StartChar: Aogonek
Encoding: 260 260 8
Width: 400
GlyphClass: 1
Flags: MW
HStem: -300 100<186 214 286 314> -150 100<186 214> 0 100<86 114 286 314> 150 100<86 114 286 314> 300 100<86 114 186 214 286 314> 450 100<86 114 286 314> 600 100<186 214>
VStem: 50 100<36 64 186 214 336 364 486 514> 150 100<-264 -236 -114 -86 36 64 186 214 336 364 336 364 486 514 636 664> 250 100<-264 -236 -264 -236 36 64 186 214 336 364 336 364 486 514>
LayerCount: 2
Fore
SplineSet
200 600 m 0x0280
 172 600 150 622 150 650 c 0
 150 678 172 700 200 700 c 0
 228 700 250 678 250 650 c 0
 250 622 228 600 200 600 c 0x0280
100 450 m 0x0d40
 72 450 50 472 50 500 c 0
 50 528 72 550 100 550 c 0
 128 550 150 528 150 500 c 0
 150 472 128 450 100 450 c 0x0d40
300 450 m 0
 272 450 250 472 250 500 c 0
 250 528 272 550 300 550 c 0
 328 550 350 528 350 500 c 0
 350 472 328 450 300 450 c 0
100 300 m 0
 72 300 50 322 50 350 c 0
 50 378 72 400 100 400 c 0
 128 400 150 378 150 350 c 0
 150 322 128 300 100 300 c 0
200 300 m 0x0880
 172 300 150 322 150 350 c 0
 150 378 172 400 200 400 c 0
 228 400 250 378 250 350 c 0
 250 322 228 300 200 300 c 0x0880
300 300 m 0x3940
 272 300 250 322 250 350 c 0
 250 378 272 400 300 400 c 0
 328 400 350 378 350 350 c 0
 350 322 328 300 300 300 c 0x3940
100 150 m 0
 72 150 50 172 50 200 c 0
 50 228 72 250 100 250 c 0
 128 250 150 228 150 200 c 0
 150 172 128 150 100 150 c 0
300 150 m 0
 272 150 250 172 250 200 c 0
 250 228 272 250 300 250 c 0
 328 250 350 228 350 200 c 0
 350 172 328 150 300 150 c 0
100 0 m 0
 72 0 50 22 50 50 c 0
 50 78 72 100 100 100 c 0
 128 100 150 78 150 50 c 0
 150 22 128 0 100 0 c 0
300 0 m 0
 272 0 250 22 250 50 c 0
 250 78 272 100 300 100 c 0
 328 100 350 78 350 50 c 0
 350 22 328 0 300 0 c 0
200 -150 m 0xc080
 172 -150 150 -128 150 -100 c 0
 150 -72 172 -50 200 -50 c 0
 228 -50 250 -72 250 -100 c 0
 250 -128 228 -150 200 -150 c 0xc080
200 -300 m 0
 172 -300 150 -278 150 -250 c 0
 150 -222 172 -200 200 -200 c 0
 228 -200 250 -222 250 -250 c 0
 250 -278 228 -300 200 -300 c 0
300 -300 m 0x8040
 272 -300 250 -278 250 -250 c 0
 250 -222 272 -200 300 -200 c 0
 328 -200 350 -222 350 -250 c 0
 350 -278 328 -300 300 -300 c 0x8040
EndSplineSet
EndChar

StartChar: Aring
Encoding: 197 197 9
Width: 400
GlyphClass: 1
Flags: MW
HStem: 0 100<86 114 286 314> 150 100<86 114 286 314> 300 100<86 114 186 214 286 314> 450 100<86 114 286 314> 600 100<186 214> 750 100<86 114 186 214> 900 100<86 114 186 214>
VStem: 50 100<36 64 186 214 336 364 486 514 786 814 936 964> 150 100<36 64 186 214 336 364 336 364 486 514 636 664 786 814 786 814 936 964 936 964> 250 100<36 64 186 214 336 364 336 364 486 514>
LayerCount: 2
Fore
SplineSet
100 900 m 0xff40
 72 900 50 922 50 950 c 0
 50 978 72 1000 100 1000 c 0
 128 1000 150 978 150 950 c 0
 150 922 128 900 100 900 c 0xff40
200 900 m 0x0280
 172 900 150 922 150 950 c 0
 150 978 172 1000 200 1000 c 0
 228 1000 250 978 250 950 c 0
 250 922 228 900 200 900 c 0x0280
100 750 m 0x05
 72 750 50 772 50 800 c 0
 50 828 72 850 100 850 c 0
 128 850 150 828 150 800 c 0
 150 772 128 750 100 750 c 0x05
200 750 m 0x0c80
 172 750 150 772 150 800 c 0
 150 828 172 850 200 850 c 0
 228 850 250 828 250 800 c 0
 250 772 228 750 200 750 c 0x0c80
200 600 m 0
 172 600 150 622 150 650 c 0
 150 678 172 700 200 700 c 0
 228 700 250 678 250 650 c 0
 250 622 228 600 200 600 c 0
100 450 m 0x3140
 72 450 50 472 50 500 c 0
 50 528 72 550 100 550 c 0
 128 550 150 528 150 500 c 0
 150 472 128 450 100 450 c 0x3140
300 450 m 0
 272 450 250 472 250 500 c 0
 250 528 272 550 300 550 c 0
 328 550 350 528 350 500 c 0
 350 472 328 450 300 450 c 0
100 300 m 0
 72 300 50 322 50 350 c 0
 50 378 72 400 100 400 c 0
 128 400 150 378 150 350 c 0
 150 322 128 300 100 300 c 0
200 300 m 0x2080
 172 300 150 322 150 350 c 0
 150 378 172 400 200 400 c 0
 228 400 250 378 250 350 c 0
 250 322 228 300 200 300 c 0x2080
300 300 m 0xe140
 272 300 250 322 250 350 c 0
 250 378 272 400 300 400 c 0
 328 400 350 378 350 350 c 0
 350 322 328 300 300 300 c 0xe140
100 150 m 0
 72 150 50 172 50 200 c 0
 50 228 72 250 100 250 c 0
 128 250 150 228 150 200 c 0
 150 172 128 150 100 150 c 0
300 150 m 0
 272 150 250 172 250 200 c 0
 250 228 272 250 300 250 c 0
 328 250 350 228 350 200 c 0
 350 172 328 150 300 150 c 0
100 0 m 0
 72 0 50 22 50 50 c 0
 50 78 72 100 100 100 c 0
 128 100 150 78 150 50 c 0
 150 22 128 0 100 0 c 0
300 0 m 0
 272 0 250 22 250 50 c 0
 250 78 272 100 300 100 c 0
 328 100 350 78 350 50 c 0
 350 22 328 0 300 0 c 0
EndSplineSet
EndChar

StartChar: Atilde
Encoding: 195 195 10
Width: 400
GlyphClass: 1
Flags: MW
HStem: 0 100<86 114 286 314> 150 100<86 114 286 314> 300 100<86 114 186 214 286 314> 450 100<86 114 286 314> 600 100<186 214> 750 100<186 214 286 314> 900 100<86 114 186 214>
VStem: 50 100<36 64 186 214 336 364 486 514 936 964> 150 100<36 64 186 214 336 364 336 364 486 514 636 664 786 814 936 964 936 964> 250 100<36 64 186 214 336 364 336 364 486 514 786 814 786 814>
LayerCount: 2
Fore
SplineSet
100 900 m 0xff40
 72 900 50 922 50 950 c 0
 50 978 72 1000 100 1000 c 0
 128 1000 150 978 150 950 c 0
 150 922 128 900 100 900 c 0xff40
200 900 m 0x0680
 172 900 150 922 150 950 c 0
 150 978 172 1000 200 1000 c 0
 228 1000 250 978 250 950 c 0
 250 922 228 900 200 900 c 0x0680
200 750 m 0
 172 750 150 772 150 800 c 0
 150 828 172 850 200 850 c 0
 228 850 250 828 250 800 c 0
 250 772 228 750 200 750 c 0
300 750 m 0x0440
 272 750 250 772 250 800 c 0
 250 828 272 850 300 850 c 0
 328 850 350 828 350 800 c 0
 350 772 328 750 300 750 c 0x0440
200 600 m 0x0880
 172 600 150 622 150 650 c 0
 150 678 172 700 200 700 c 0
 228 700 250 678 250 650 c 0
 250 622 228 600 200 600 c 0x0880
100 450 m 0x3140
 72 450 50 472 50 500 c 0
 50 528 72 550 100 550 c 0
 128 550 150 528 150 500 c 0
 150 472 128 450 100 450 c 0x3140
300 450 m 0
 272 450 250 472 250 500 c 0
 250 528 272 550 300 550 c 0
 328 550 350 528 350 500 c 0
 350 472 328 450 300 450 c 0
100 300 m 0
 72 300 50 322 50 350 c 0
 50 378 72 400 100 400 c 0
 128 400 150 378 150 350 c 0
 150 322 128 300 100 300 c 0
200 300 m 0x2080
 172 300 150 322 150 350 c 0
 150 378 172 400 200 400 c 0
 228 400 250 378 250 350 c 0
 250 322 228 300 200 300 c 0x2080
300 300 m 0xe140
 272 300 250 322 250 350 c 0
 250 378 272 400 300 400 c 0
 328 400 350 378 350 350 c 0
 350 322 328 300 300 300 c 0xe140
100 150 m 0
 72 150 50 172 50 200 c 0
 50 228 72 250 100 250 c 0
 128 250 150 228 150 200 c 0
 150 172 128 150 100 150 c 0
300 150 m 0
 272 150 250 172 250 200 c 0
 250 228 272 250 300 250 c 0
 328 250 350 228 350 200 c 0
 350 172 328 150 300 150 c 0
100 0 m 0
 72 0 50 22 50 50 c 0
 50 78 72 100 100 100 c 0
 128 100 150 78 150 50 c 0
 150 22 128 0 100 0 c 0
300 0 m 0
 272 0 250 22 250 50 c 0
 250 78 272 100 300 100 c 0
 328 100 350 78 350 50 c 0
 350 22 328 0 300 0 c 0
EndSplineSet
EndChar

StartChar: AE
Encoding: 198 198 11
Width: 600
GlyphClass: 1
Flags: MW
HStem: 0 100<86 114 286 314 386 414 486 514> 150 100<86 114 286 314> 300 100<86 114 186 214 286 314 386 414> 450 100<86 114 286 314> 600 100<186 214 286 314 386 414 486 514>
VStem: 50 100<36 64 186 214 336 364 486 514> 150 100<36 64 186 214 336 364 336 364 486 514 636 664> 250 100<36 64 186 214 336 364 336 364 486 514 636 664 636 664> 350 100<36 64 36 64 336 364 336 364 636 664 636 664> 450 100<36 64 36 64 636 664 636 664>
LayerCount: 2
Fore
SplineSet
200 600 m 0x0a
 172 600 150 622 150 650 c 0
 150 678 172 700 200 700 c 0
 228 700 250 678 250 650 c 0
 250 622 228 600 200 600 c 0x0a
300 600 m 0x09
 272 600 250 622 250 650 c 0
 250 678 272 700 300 700 c 0
 328 700 350 678 350 650 c 0
 350 622 328 600 300 600 c 0x09
400 600 m 0x0880
 372 600 350 622 350 650 c 0
 350 678 372 700 400 700 c 0
 428 700 450 678 450 650 c 0
 450 622 428 600 400 600 c 0x0880
500 600 m 0x3d40
 472 600 450 622 450 650 c 0
 450 678 472 700 500 700 c 0
 528 700 550 678 550 650 c 0
 550 622 528 600 500 600 c 0x3d40
100 450 m 0
 72 450 50 472 50 500 c 0
 50 528 72 550 100 550 c 0
 128 550 150 528 150 500 c 0
 150 472 128 450 100 450 c 0
300 450 m 0
 272 450 250 472 250 500 c 0
 250 528 272 550 300 550 c 0
 328 550 350 528 350 500 c 0
 350 472 328 450 300 450 c 0
100 300 m 0
 72 300 50 322 50 350 c 0
 50 378 72 400 100 400 c 0
 128 400 150 378 150 350 c 0
 150 322 128 300 100 300 c 0
200 300 m 0x22
 172 300 150 322 150 350 c 0
 150 378 172 400 200 400 c 0
 228 400 250 378 250 350 c 0
 250 322 228 300 200 300 c 0x22
300 300 m 0x21
 272 300 250 322 250 350 c 0
 250 378 272 400 300 400 c 0
 328 400 350 378 350 350 c 0
 350 322 328 300 300 300 c 0x21
400 300 m 0x6480
 372 300 350 322 350 350 c 0
 350 378 372 400 400 400 c 0
 428 400 450 378 450 350 c 0
 450 322 428 300 400 300 c 0x6480
100 150 m 0
 72 150 50 172 50 200 c 0
 50 228 72 250 100 250 c 0
 128 250 150 228 150 200 c 0
 150 172 128 150 100 150 c 0
300 150 m 0xc5
 272 150 250 172 250 200 c 0
 250 228 272 250 300 250 c 0
 328 250 350 228 350 200 c 0
 350 172 328 150 300 150 c 0xc5
100 0 m 0
 72 0 50 22 50 50 c 0
 50 78 72 100 100 100 c 0
 128 100 150 78 150 50 c 0
 150 22 128 0 100 0 c 0
300 0 m 0
 272 0 250 22 250 50 c 0
 250 78 272 100 300 100 c 0
 328 100 350 78 350 50 c 0
 350 22 328 0 300 0 c 0
400 0 m 0x8080
 372 0 350 22 350 50 c 0
 350 78 372 100 400 100 c 0
 428 100 450 78 450 50 c 0
 450 22 428 0 400 0 c 0x8080
500 0 m 0x8040
 472 0 450 22 450 50 c 0
 450 78 472 100 500 100 c 0
 528 100 550 78 550 50 c 0
 550 22 528 0 500 0 c 0x8040
EndSplineSet
EndChar

StartChar: B
Encoding: 66 66 12
Width: 400
GlyphClass: 1
Flags: MW
HStem: 0 100<86 114 186 214> 150 100<86 114 286 314> 300 100<86 114 186 214> 450 100<86 114 286 314> 600 100<86 114 186 214>
VStem: 50 100<36 64 186 214 336 364 486 514 636 664> 150 100<36 64 36 64 186 214 336 364 336 364 486 514 636 664 636 664> 250 100<186 214 486 514>
LayerCount: 2
Fore
SplineSet
100 600 m 0xfd
 72 600 50 622 50 650 c 0
 50 678 72 700 100 700 c 0
 128 700 150 678 150 650 c 0
 150 622 128 600 100 600 c 0xfd
200 600 m 0x0a
 172 600 150 622 150 650 c 0
 150 678 172 700 200 700 c 0
 228 700 250 678 250 650 c 0
 250 622 228 600 200 600 c 0x0a
100 450 m 0x35
 72 450 50 472 50 500 c 0
 50 528 72 550 100 550 c 0
 128 550 150 528 150 500 c 0
 150 472 128 450 100 450 c 0x35
300 450 m 0
 272 450 250 472 250 500 c 0
 250 528 272 550 300 550 c 0
 328 550 350 528 350 500 c 0
 350 472 328 450 300 450 c 0
100 300 m 0
 72 300 50 322 50 350 c 0
 50 378 72 400 100 400 c 0
 128 400 150 378 150 350 c 0
 150 322 128 300 100 300 c 0
200 300 m 0x22
 172 300 150 322 150 350 c 0
 150 378 172 400 200 400 c 0
 228 400 250 378 250 350 c 0
 250 322 228 300 200 300 c 0x22
100 150 m 0xc5
 72 150 50 172 50 200 c 0
 50 228 72 250 100 250 c 0
 128 250 150 228 150 200 c 0
 150 172 128 150 100 150 c 0xc5
300 150 m 0
 272 150 250 172 250 200 c 0
 250 228 272 250 300 250 c 0
 328 250 350 228 350 200 c 0
 350 172 328 150 300 150 c 0
100 0 m 0
 72 0 50 22 50 50 c 0
 50 78 72 100 100 100 c 0
 128 100 150 78 150 50 c 0
 150 22 128 0 100 0 c 0
200 0 m 0x82
 172 0 150 22 150 50 c 0
 150 78 172 100 200 100 c 0
 228 100 250 78 250 50 c 0
 250 22 228 0 200 0 c 0x82
EndSplineSet
EndChar

StartChar: C
Encoding: 67 67 13
Width: 400
GlyphClass: 1
Flags: MW
HStem: 0 100<186 214> 150 100<86 114 286 314> 300 100<86 114> 450 100<86 114 286 314> 600 100<186 214>
VStem: 50 100<186 214 336 364 486 514> 150 100<36 64 186 214 486 514 636 664> 250 100<186 214 486 514>
LayerCount: 2
Fore
SplineSet
200 600 m 0x0a
 172 600 150 622 150 650 c 0
 150 678 172 700 200 700 c 0
 228 700 250 678 250 650 c 0
 250 622 228 600 200 600 c 0x0a
100 450 m 0x75
 72 450 50 472 50 500 c 0
 50 528 72 550 100 550 c 0
 128 550 150 528 150 500 c 0
 150 472 128 450 100 450 c 0x75
300 450 m 0
 272 450 250 472 250 500 c 0
 250 528 272 550 300 550 c 0
 328 550 350 528 350 500 c 0
 350 472 328 450 300 450 c 0
100 300 m 0
 72 300 50 322 50 350 c 0
 50 378 72 400 100 400 c 0
 128 400 150 378 150 350 c 0
 150 322 128 300 100 300 c 0
100 150 m 0
 72 150 50 172 50 200 c 0
 50 228 72 250 100 250 c 0
 128 250 150 228 150 200 c 0
 150 172 128 150 100 150 c 0
300 150 m 0
 272 150 250 172 250 200 c 0
 250 228 272 250 300 250 c 0
 328 250 350 228 350 200 c 0
 350 172 328 150 300 150 c 0
200 0 m 0x82
 172 0 150 22 150 50 c 0
 150 78 172 100 200 100 c 0
 228 100 250 78 250 50 c 0
 250 22 228 0 200 0 c 0x82
EndSplineSet
EndChar

StartChar: Cacute
Encoding: 262 262 14
Width: 400
GlyphClass: 1
Flags: MW
HStem: 0 100<186 214> 150 100<86 114 286 314> 300 100<86 114> 450 100<86 114 286 314> 600 100<186 214> 750 100<186 214> 900 100<286 314>
VStem: 50 100<186 214 336 364 486 514> 150 100<36 64 186 214 486 514 636 664 786 814> 250 100<186 214 486 514 936 964>
LayerCount: 2
Fore
SplineSet
300 900 m 0xff40
 272 900 250 922 250 950 c 0
 250 978 272 1000 300 1000 c 0
 328 1000 350 978 350 950 c 0
 350 922 328 900 300 900 c 0xff40
200 750 m 0x0c80
 172 750 150 772 150 800 c 0
 150 828 172 850 200 850 c 0
 228 850 250 828 250 800 c 0
 250 772 228 750 200 750 c 0x0c80
200 600 m 0
 172 600 150 622 150 650 c 0
 150 678 172 700 200 700 c 0
 228 700 250 678 250 650 c 0
 250 622 228 600 200 600 c 0
100 450 m 0x7140
 72 450 50 472 50 500 c 0
 50 528 72 550 100 550 c 0
 128 550 150 528 150 500 c 0
 150 472 128 450 100 450 c 0x7140
300 450 m 0
 272 450 250 472 250 500 c 0
 250 528 272 550 300 550 c 0
 328 550 350 528 350 500 c 0
 350 472 328 450 300 450 c 0
100 300 m 0
 72 300 50 322 50 350 c 0
 50 378 72 400 100 400 c 0
 128 400 150 378 150 350 c 0
 150 322 128 300 100 300 c 0
100 150 m 0
 72 150 50 172 50 200 c 0
 50 228 72 250 100 250 c 0
 128 250 150 228 150 200 c 0
 150 172 128 150 100 150 c 0
300 150 m 0
 272 150 250 172 250 200 c 0
 250 228 272 250 300 250 c 0
 328 250 350 228 350 200 c 0
 350 172 328 150 300 150 c 0
200 0 m 0x8080
 172 0 150 22 150 50 c 0
 150 78 172 100 200 100 c 0
 228 100 250 78 250 50 c 0
 250 22 228 0 200 0 c 0x8080
EndSplineSet
EndChar

StartChar: Ccaron
Encoding: 268 268 15
Width: 400
GlyphClass: 1
Flags: MW
HStem: 0 100<186 214> 150 100<86 114 286 314> 300 100<86 114> 450 100<86 114 286 314> 600 100<186 214> 750 100<186 214> 900 100<86 114 286 314>
VStem: 50 100<186 214 336 364 486 514 936 964> 150 100<36 64 186 214 486 514 636 664 786 814 936 964> 250 100<186 214 486 514 936 964>
LayerCount: 2
Fore
SplineSet
100 900 m 0xff40
 72 900 50 922 50 950 c 0
 50 978 72 1000 100 1000 c 0
 128 1000 150 978 150 950 c 0
 150 922 128 900 100 900 c 0xff40
300 900 m 0
 272 900 250 922 250 950 c 0
 250 978 272 1000 300 1000 c 0
 328 1000 350 978 350 950 c 0
 350 922 328 900 300 900 c 0
200 750 m 0x0c80
 172 750 150 772 150 800 c 0
 150 828 172 850 200 850 c 0
 228 850 250 828 250 800 c 0
 250 772 228 750 200 750 c 0x0c80
200 600 m 0
 172 600 150 622 150 650 c 0
 150 678 172 700 200 700 c 0
 228 700 250 678 250 650 c 0
 250 622 228 600 200 600 c 0
100 450 m 0x7140
 72 450 50 472 50 500 c 0
 50 528 72 550 100 550 c 0
 128 550 150 528 150 500 c 0
 150 472 128 450 100 450 c 0x7140
300 450 m 0
 272 450 250 472 250 500 c 0
 250 528 272 550 300 550 c 0
 328 550 350 528 350 500 c 0
 350 472 328 450 300 450 c 0
100 300 m 0
 72 300 50 322 50 350 c 0
 50 378 72 400 100 400 c 0
 128 400 150 378 150 350 c 0
 150 322 128 300 100 300 c 0
100 150 m 0
 72 150 50 172 50 200 c 0
 50 228 72 250 100 250 c 0
 128 250 150 228 150 200 c 0
 150 172 128 150 100 150 c 0
300 150 m 0
 272 150 250 172 250 200 c 0
 250 228 272 250 300 250 c 0
 328 250 350 228 350 200 c 0
 350 172 328 150 300 150 c 0
200 0 m 0x8080
 172 0 150 22 150 50 c 0
 150 78 172 100 200 100 c 0
 228 100 250 78 250 50 c 0
 250 22 228 0 200 0 c 0x8080
EndSplineSet
EndChar

StartChar: Ccedilla
Encoding: 199 199 16
Width: 400
GlyphClass: 1
Flags: MW
HStem: -300 100<86 114 186 214> -150 100<186 214> 0 100<186 214> 150 100<86 114 286 314> 300 100<86 114> 450 100<86 114 286 314> 600 100<186 214>
VStem: 50 100<-264 -236 186 214 336 364 486 514> 150 100<-264 -236 -264 -236 -114 -86 36 64 186 214 486 514 636 664> 250 100<186 214 486 514>
LayerCount: 2
Fore
SplineSet
200 600 m 0x0280
 172 600 150 622 150 650 c 0
 150 678 172 700 200 700 c 0
 228 700 250 678 250 650 c 0
 250 622 228 600 200 600 c 0x0280
100 450 m 0x1d40
 72 450 50 472 50 500 c 0
 50 528 72 550 100 550 c 0
 128 550 150 528 150 500 c 0
 150 472 128 450 100 450 c 0x1d40
300 450 m 0
 272 450 250 472 250 500 c 0
 250 528 272 550 300 550 c 0
 328 550 350 528 350 500 c 0
 350 472 328 450 300 450 c 0
100 300 m 0
 72 300 50 322 50 350 c 0
 50 378 72 400 100 400 c 0
 128 400 150 378 150 350 c 0
 150 322 128 300 100 300 c 0
100 150 m 0
 72 150 50 172 50 200 c 0
 50 228 72 250 100 250 c 0
 128 250 150 228 150 200 c 0
 150 172 128 150 100 150 c 0
300 150 m 0
 272 150 250 172 250 200 c 0
 250 228 272 250 300 250 c 0
 328 250 350 228 350 200 c 0
 350 172 328 150 300 150 c 0
200 0 m 0x6080
 172 0 150 22 150 50 c 0
 150 78 172 100 200 100 c 0
 228 100 250 78 250 50 c 0
 250 22 228 0 200 0 c 0x6080
200 -150 m 0
 172 -150 150 -128 150 -100 c 0
 150 -72 172 -50 200 -50 c 0
 228 -50 250 -72 250 -100 c 0
 250 -128 228 -150 200 -150 c 0
100 -300 m 0x81
 72 -300 50 -278 50 -250 c 0
 50 -222 72 -200 100 -200 c 0
 128 -200 150 -222 150 -250 c 0
 150 -278 128 -300 100 -300 c 0x81
200 -300 m 0x8080
 172 -300 150 -278 150 -250 c 0
 150 -222 172 -200 200 -200 c 0
 228 -200 250 -222 250 -250 c 0
 250 -278 228 -300 200 -300 c 0x8080
EndSplineSet
EndChar

StartChar: Cdotaccent
Encoding: 266 266 17
Width: 400
GlyphClass: 1
Flags: MW
HStem: 0 100<186 214> 150 100<86 114 286 314> 300 100<86 114> 450 100<86 114 286 314> 600 100<186 214> 900 100<186 214>
VStem: 50 100<186 214 336 364 486 514> 150 100<36 64 186 214 486 514 636 664 936 964> 250 100<186 214 486 514>
LayerCount: 2
Fore
SplineSet
200 900 m 0x0d
 172 900 150 922 150 950 c 0
 150 978 172 1000 200 1000 c 0
 228 1000 250 978 250 950 c 0
 250 922 228 900 200 900 c 0x0d
200 600 m 0
 172 600 150 622 150 650 c 0
 150 678 172 700 200 700 c 0
 228 700 250 678 250 650 c 0
 250 622 228 600 200 600 c 0
100 450 m 0x7280
 72 450 50 472 50 500 c 0
 50 528 72 550 100 550 c 0
 128 550 150 528 150 500 c 0
 150 472 128 450 100 450 c 0x7280
300 450 m 0
 272 450 250 472 250 500 c 0
 250 528 272 550 300 550 c 0
 328 550 350 528 350 500 c 0
 350 472 328 450 300 450 c 0
100 300 m 0
 72 300 50 322 50 350 c 0
 50 378 72 400 100 400 c 0
 128 400 150 378 150 350 c 0
 150 322 128 300 100 300 c 0
100 150 m 0
 72 150 50 172 50 200 c 0
 50 228 72 250 100 250 c 0
 128 250 150 228 150 200 c 0
 150 172 128 150 100 150 c 0
300 150 m 0
 272 150 250 172 250 200 c 0
 250 228 272 250 300 250 c 0
 328 250 350 228 350 200 c 0
 350 172 328 150 300 150 c 0
200 0 m 0x81
 172 0 150 22 150 50 c 0
 150 78 172 100 200 100 c 0
 228 100 250 78 250 50 c 0
 250 22 228 0 200 0 c 0x81
EndSplineSet
EndChar

StartChar: D
Encoding: 68 68 18
Width: 400
GlyphClass: 1
Flags: MW
HStem: 0 100<86 114 186 214> 150 100<86 114 286 314> 300 100<86 114 286 314> 450 100<86 114 286 314> 600 100<86 114 186 214>
VStem: 50 100<36 64 186 214 336 364 486 514 636 664> 150 100<36 64 36 64 186 214 336 364 486 514 636 664 636 664> 250 100<186 214 336 364 486 514>
LayerCount: 2
Fore
SplineSet
100 600 m 0xfd
 72 600 50 622 50 650 c 0
 50 678 72 700 100 700 c 0
 128 700 150 678 150 650 c 0
 150 622 128 600 100 600 c 0xfd
200 600 m 0x0a
 172 600 150 622 150 650 c 0
 150 678 172 700 200 700 c 0
 228 700 250 678 250 650 c 0
 250 622 228 600 200 600 c 0x0a
100 450 m 0xf5
 72 450 50 472 50 500 c 0
 50 528 72 550 100 550 c 0
 128 550 150 528 150 500 c 0
 150 472 128 450 100 450 c 0xf5
300 450 m 0
 272 450 250 472 250 500 c 0
 250 528 272 550 300 550 c 0
 328 550 350 528 350 500 c 0
 350 472 328 450 300 450 c 0
100 300 m 0
 72 300 50 322 50 350 c 0
 50 378 72 400 100 400 c 0
 128 400 150 378 150 350 c 0
 150 322 128 300 100 300 c 0
300 300 m 0
 272 300 250 322 250 350 c 0
 250 378 272 400 300 400 c 0
 328 400 350 378 350 350 c 0
 350 322 328 300 300 300 c 0
100 150 m 0
 72 150 50 172 50 200 c 0
 50 228 72 250 100 250 c 0
 128 250 150 228 150 200 c 0
 150 172 128 150 100 150 c 0
300 150 m 0
 272 150 250 172 250 200 c 0
 250 228 272 250 300 250 c 0
 328 250 350 228 350 200 c 0
 350 172 328 150 300 150 c 0
100 0 m 0
 72 0 50 22 50 50 c 0
 50 78 72 100 100 100 c 0
 128 100 150 78 150 50 c 0
 150 22 128 0 100 0 c 0
200 0 m 0x82
 172 0 150 22 150 50 c 0
 150 78 172 100 200 100 c 0
 228 100 250 78 250 50 c 0
 250 22 228 0 200 0 c 0x82
EndSplineSet
EndChar

StartChar: Eth
Encoding: 208 208 19
Width: 500
GlyphClass: 1
Flags: MW
HStem: 0 100<186 214 286 314> 150 100<186 214 386 414> 300 100<86 114 186 214 286 314 386 414> 450 100<186 214 386 414> 600 100<186 214 286 314>
VStem: 50 100<336 364> 150 100<36 64 186 214 336 364 336 364 486 514 636 664> 250 100<36 64 36 64 186 214 336 364 336 364 486 514 636 664 636 664> 350 100<186 214 336 364 336 364 486 514>
LayerCount: 2
Fore
SplineSet
200 600 m 0xfa80
 172 600 150 622 150 650 c 0
 150 678 172 700 200 700 c 0
 228 700 250 678 250 650 c 0
 250 622 228 600 200 600 c 0xfa80
300 600 m 0x09
 272 600 250 622 250 650 c 0
 250 678 272 700 300 700 c 0
 328 700 350 678 350 650 c 0
 350 622 328 600 300 600 c 0x09
200 450 m 0x1280
 172 450 150 472 150 500 c 0
 150 528 172 550 200 550 c 0
 228 550 250 528 250 500 c 0
 250 472 228 450 200 450 c 0x1280
400 450 m 0
 372 450 350 472 350 500 c 0
 350 528 372 550 400 550 c 0
 428 550 450 528 450 500 c 0
 450 472 428 450 400 450 c 0
100 400 m 0x24
 128 400 150 378 150 350 c 0
 150 322 128 300 100 300 c 0
 72 300 50 322 50 350 c 0
 50 378 72 400 100 400 c 0x24
200 400 m 0x22
 228 400 250 378 250 350 c 0
 250 322 228 300 200 300 c 0
 172 300 150 322 150 350 c 0
 150 378 172 400 200 400 c 0x22
300 400 m 0x21
 328 400 350 378 350 350 c 0
 350 322 328 300 300 300 c 0
 272 300 250 322 250 350 c 0
 250 378 272 400 300 400 c 0x21
400 400 m 0xe280
 428 400 450 378 450 350 c 0
 450 322 428 300 400 300 c 0
 372 300 350 322 350 350 c 0
 350 378 372 400 400 400 c 0xe280
200 150 m 0
 172 150 150 172 150 200 c 0
 150 228 172 250 200 250 c 0
 228 250 250 228 250 200 c 0
 250 172 228 150 200 150 c 0
400 250 m 0
 428 250 450 228 450 200 c 0
 450 172 428 150 400 150 c 0
 372 150 350 172 350 200 c 0
 350 228 372 250 400 250 c 0
200 100 m 0
 228 100 250 78 250 50 c 0
 250 22 228 0 200 0 c 0
 172 0 150 22 150 50 c 0
 150 78 172 100 200 100 c 0
300 100 m 0x81
 328 100 350 78 350 50 c 0
 350 22 328 0 300 0 c 0
 272 0 250 22 250 50 c 0
 250 78 272 100 300 100 c 0x81
EndSplineSet
EndChar

StartChar: Dcaron
Encoding: 270 270 20
Width: 400
GlyphClass: 1
Flags: MW
HStem: 0 100<86 114 186 214> 150 100<86 114 286 314> 300 100<86 114 286 314> 450 100<86 114 286 314> 600 100<86 114 186 214> 750 100<186 214> 900 100<86 114 286 314>
VStem: 50 100<36 64 186 214 336 364 486 514 636 664 936 964> 150 100<36 64 36 64 186 214 336 364 486 514 636 664 636 664 786 814 936 964> 250 100<186 214 336 364 486 514 936 964>
LayerCount: 2
Fore
SplineSet
100 900 m 0xff40
 72 900 50 922 50 950 c 0
 50 978 72 1000 100 1000 c 0
 128 1000 150 978 150 950 c 0
 150 922 128 900 100 900 c 0xff40
300 900 m 0
 272 900 250 922 250 950 c 0
 250 978 272 1000 300 1000 c 0
 328 1000 350 978 350 950 c 0
 350 922 328 900 300 900 c 0
200 750 m 0x0480
 172 750 150 772 150 800 c 0
 150 828 172 850 200 850 c 0
 228 850 250 828 250 800 c 0
 250 772 228 750 200 750 c 0x0480
100 600 m 0x09
 72 600 50 622 50 650 c 0
 50 678 72 700 100 700 c 0
 128 700 150 678 150 650 c 0
 150 622 128 600 100 600 c 0x09
200 600 m 0x0880
 172 600 150 622 150 650 c 0
 150 678 172 700 200 700 c 0
 228 700 250 678 250 650 c 0
 250 622 228 600 200 600 c 0x0880
100 450 m 0xf140
 72 450 50 472 50 500 c 0
 50 528 72 550 100 550 c 0
 128 550 150 528 150 500 c 0
 150 472 128 450 100 450 c 0xf140
300 450 m 0
 272 450 250 472 250 500 c 0
 250 528 272 550 300 550 c 0
 328 550 350 528 350 500 c 0
 350 472 328 450 300 450 c 0
100 300 m 0
 72 300 50 322 50 350 c 0
 50 378 72 400 100 400 c 0
 128 400 150 378 150 350 c 0
 150 322 128 300 100 300 c 0
300 300 m 0
 272 300 250 322 250 350 c 0
 250 378 272 400 300 400 c 0
 328 400 350 378 350 350 c 0
 350 322 328 300 300 300 c 0
100 150 m 0
 72 150 50 172 50 200 c 0
 50 228 72 250 100 250 c 0
 128 250 150 228 150 200 c 0
 150 172 128 150 100 150 c 0
300 150 m 0
 272 150 250 172 250 200 c 0
 250 228 272 250 300 250 c 0
 328 250 350 228 350 200 c 0
 350 172 328 150 300 150 c 0
100 0 m 0
 72 0 50 22 50 50 c 0
 50 78 72 100 100 100 c 0
 128 100 150 78 150 50 c 0
 150 22 128 0 100 0 c 0
200 0 m 0x8080
 172 0 150 22 150 50 c 0
 150 78 172 100 200 100 c 0
 228 100 250 78 250 50 c 0
 250 22 228 0 200 0 c 0x8080
EndSplineSet
EndChar

StartChar: Dcroat
Encoding: 272 272 21
Width: 500
GlyphClass: 1
Flags: MW
HStem: 0 100<186 214 286 314> 150 100<186 214 386 414> 300 100<86 114 186 214 286 314 386 414> 450 100<186 214 386 414> 600 100<186 214 286 314>
VStem: 50 100<336 364> 150 100<36 64 186 214 336 364 336 364 486 514 636 664> 250 100<36 64 36 64 186 214 336 364 336 364 486 514 636 664 636 664> 350 100<186 214 336 364 336 364 486 514>
LayerCount: 2
Fore
SplineSet
200 600 m 0xfa80
 172 600 150 622 150 650 c 0
 150 678 172 700 200 700 c 0
 228 700 250 678 250 650 c 0
 250 622 228 600 200 600 c 0xfa80
300 600 m 0x09
 272 600 250 622 250 650 c 0
 250 678 272 700 300 700 c 0
 328 700 350 678 350 650 c 0
 350 622 328 600 300 600 c 0x09
200 450 m 0x1280
 172 450 150 472 150 500 c 0
 150 528 172 550 200 550 c 0
 228 550 250 528 250 500 c 0
 250 472 228 450 200 450 c 0x1280
400 450 m 0
 372 450 350 472 350 500 c 0
 350 528 372 550 400 550 c 0
 428 550 450 528 450 500 c 0
 450 472 428 450 400 450 c 0
100 400 m 0x24
 128 400 150 378 150 350 c 0
 150 322 128 300 100 300 c 0
 72 300 50 322 50 350 c 0
 50 378 72 400 100 400 c 0x24
200 400 m 0x22
 228 400 250 378 250 350 c 0
 250 322 228 300 200 300 c 0
 172 300 150 322 150 350 c 0
 150 378 172 400 200 400 c 0x22
300 400 m 0x21
 328 400 350 378 350 350 c 0
 350 322 328 300 300 300 c 0
 272 300 250 322 250 350 c 0
 250 378 272 400 300 400 c 0x21
400 400 m 0xe280
 428 400 450 378 450 350 c 0
 450 322 428 300 400 300 c 0
 372 300 350 322 350 350 c 0
 350 378 372 400 400 400 c 0xe280
200 150 m 0
 172 150 150 172 150 200 c 0
 150 228 172 250 200 250 c 0
 228 250 250 228 250 200 c 0
 250 172 228 150 200 150 c 0
400 250 m 0
 428 250 450 228 450 200 c 0
 450 172 428 150 400 150 c 0
 372 150 350 172 350 200 c 0
 350 228 372 250 400 250 c 0
200 100 m 0
 228 100 250 78 250 50 c 0
 250 22 228 0 200 0 c 0
 172 0 150 22 150 50 c 0
 150 78 172 100 200 100 c 0
300 100 m 0x81
 328 100 350 78 350 50 c 0
 350 22 328 0 300 0 c 0
 272 0 250 22 250 50 c 0
 250 78 272 100 300 100 c 0x81
EndSplineSet
EndChar

StartChar: E
Encoding: 69 69 22
Width: 400
GlyphClass: 1
Flags: MW
HStem: 0 100<86 114 186 214 286 314> 150 100<86 114> 300 100<86 114 186 214> 450 100<86 114> 600 100<86 114 186 214 286 314>
VStem: 50 100<36 64 186 214 336 364 486 514 636 664> 150 100<36 64 36 64 336 364 336 364 636 664 636 664> 250 100<36 64 36 64 636 664 636 664>
LayerCount: 2
Fore
SplineSet
100 600 m 0xfd
 72 600 50 622 50 650 c 0
 50 678 72 700 100 700 c 0
 128 700 150 678 150 650 c 0
 150 622 128 600 100 600 c 0xfd
200 600 m 0x0a
 172 600 150 622 150 650 c 0
 150 678 172 700 200 700 c 0
 228 700 250 678 250 650 c 0
 250 622 228 600 200 600 c 0x0a
300 600 m 0x3d
 272 600 250 622 250 650 c 0
 250 678 272 700 300 700 c 0
 328 700 350 678 350 650 c 0
 350 622 328 600 300 600 c 0x3d
100 450 m 0
 72 450 50 472 50 500 c 0
 50 528 72 550 100 550 c 0
 128 550 150 528 150 500 c 0
 150 472 128 450 100 450 c 0
100 300 m 0
 72 300 50 322 50 350 c 0
 50 378 72 400 100 400 c 0
 128 400 150 378 150 350 c 0
 150 322 128 300 100 300 c 0
200 300 m 0x22
 172 300 150 322 150 350 c 0
 150 378 172 400 200 400 c 0
 228 400 250 378 250 350 c 0
 250 322 228 300 200 300 c 0x22
100 150 m 0xc4
 72 150 50 172 50 200 c 0
 50 228 72 250 100 250 c 0
 128 250 150 228 150 200 c 0
 150 172 128 150 100 150 c 0xc4
100 0 m 0
 72 0 50 22 50 50 c 0
 50 78 72 100 100 100 c 0
 128 100 150 78 150 50 c 0
 150 22 128 0 100 0 c 0
200 0 m 0x82
 172 0 150 22 150 50 c 0
 150 78 172 100 200 100 c 0
 228 100 250 78 250 50 c 0
 250 22 228 0 200 0 c 0x82
300 0 m 0x81
 272 0 250 22 250 50 c 0
 250 78 272 100 300 100 c 0
 328 100 350 78 350 50 c 0
 350 22 328 0 300 0 c 0x81
EndSplineSet
EndChar

StartChar: Eacute
Encoding: 201 201 23
Width: 400
GlyphClass: 1
Flags: MW
HStem: 0 100<86 114 186 214 286 314> 150 100<86 114> 300 100<86 114 186 214> 450 100<86 114> 600 100<86 114 186 214 286 314> 750 100<186 214> 900 100<286 314>
VStem: 50 100<36 64 186 214 336 364 486 514 636 664> 150 100<36 64 36 64 336 364 336 364 636 664 636 664 786 814> 250 100<36 64 36 64 636 664 636 664 936 964>
LayerCount: 2
Fore
SplineSet
300 900 m 0xff40
 272 900 250 922 250 950 c 0
 250 978 272 1000 300 1000 c 0
 328 1000 350 978 350 950 c 0
 350 922 328 900 300 900 c 0xff40
200 750 m 0x0480
 172 750 150 772 150 800 c 0
 150 828 172 850 200 850 c 0
 228 850 250 828 250 800 c 0
 250 772 228 750 200 750 c 0x0480
100 600 m 0x09
 72 600 50 622 50 650 c 0
 50 678 72 700 100 700 c 0
 128 700 150 678 150 650 c 0
 150 622 128 600 100 600 c 0x09
200 600 m 0x0880
 172 600 150 622 150 650 c 0
 150 678 172 700 200 700 c 0
 228 700 250 678 250 650 c 0
 250 622 228 600 200 600 c 0x0880
300 600 m 0x3940
 272 600 250 622 250 650 c 0
 250 678 272 700 300 700 c 0
 328 700 350 678 350 650 c 0
 350 622 328 600 300 600 c 0x3940
100 450 m 0
 72 450 50 472 50 500 c 0
 50 528 72 550 100 550 c 0
 128 550 150 528 150 500 c 0
 150 472 128 450 100 450 c 0
100 300 m 0
 72 300 50 322 50 350 c 0
 50 378 72 400 100 400 c 0
 128 400 150 378 150 350 c 0
 150 322 128 300 100 300 c 0
200 300 m 0x2080
 172 300 150 322 150 350 c 0
 150 378 172 400 200 400 c 0
 228 400 250 378 250 350 c 0
 250 322 228 300 200 300 c 0x2080
100 150 m 0xc1
 72 150 50 172 50 200 c 0
 50 228 72 250 100 250 c 0
 128 250 150 228 150 200 c 0
 150 172 128 150 100 150 c 0xc1
100 0 m 0
 72 0 50 22 50 50 c 0
 50 78 72 100 100 100 c 0
 128 100 150 78 150 50 c 0
 150 22 128 0 100 0 c 0
200 0 m 0x8080
 172 0 150 22 150 50 c 0
 150 78 172 100 200 100 c 0
 228 100 250 78 250 50 c 0
 250 22 228 0 200 0 c 0x8080
300 0 m 0x8040
 272 0 250 22 250 50 c 0
 250 78 272 100 300 100 c 0
 328 100 350 78 350 50 c 0
 350 22 328 0 300 0 c 0x8040
EndSplineSet
EndChar

StartChar: Ecaron
Encoding: 282 282 24
Width: 400
GlyphClass: 1
Flags: MW
HStem: 0 100<86 114 186 214 286 314> 150 100<86 114> 300 100<86 114 186 214> 450 100<86 114> 600 100<86 114 186 214 286 314> 750 100<186 214> 900 100<86 114 286 314>
VStem: 50 100<36 64 186 214 336 364 486 514 636 664 936 964> 150 100<36 64 36 64 336 364 336 364 636 664 636 664 786 814 936 964> 250 100<36 64 36 64 636 664 636 664 936 964>
LayerCount: 2
Fore
SplineSet
100 900 m 0xff40
 72 900 50 922 50 950 c 0
 50 978 72 1000 100 1000 c 0
 128 1000 150 978 150 950 c 0
 150 922 128 900 100 900 c 0xff40
300 900 m 0
 272 900 250 922 250 950 c 0
 250 978 272 1000 300 1000 c 0
 328 1000 350 978 350 950 c 0
 350 922 328 900 300 900 c 0
200 750 m 0x0480
 172 750 150 772 150 800 c 0
 150 828 172 850 200 850 c 0
 228 850 250 828 250 800 c 0
 250 772 228 750 200 750 c 0x0480
100 600 m 0x09
 72 600 50 622 50 650 c 0
 50 678 72 700 100 700 c 0
 128 700 150 678 150 650 c 0
 150 622 128 600 100 600 c 0x09
200 600 m 0x0880
 172 600 150 622 150 650 c 0
 150 678 172 700 200 700 c 0
 228 700 250 678 250 650 c 0
 250 622 228 600 200 600 c 0x0880
300 600 m 0x3940
 272 600 250 622 250 650 c 0
 250 678 272 700 300 700 c 0
 328 700 350 678 350 650 c 0
 350 622 328 600 300 600 c 0x3940
100 450 m 0
 72 450 50 472 50 500 c 0
 50 528 72 550 100 550 c 0
 128 550 150 528 150 500 c 0
 150 472 128 450 100 450 c 0
100 300 m 0
 72 300 50 322 50 350 c 0
 50 378 72 400 100 400 c 0
 128 400 150 378 150 350 c 0
 150 322 128 300 100 300 c 0
200 300 m 0x2080
 172 300 150 322 150 350 c 0
 150 378 172 400 200 400 c 0
 228 400 250 378 250 350 c 0
 250 322 228 300 200 300 c 0x2080
100 150 m 0xc1
 72 150 50 172 50 200 c 0
 50 228 72 250 100 250 c 0
 128 250 150 228 150 200 c 0
 150 172 128 150 100 150 c 0xc1
100 0 m 0
 72 0 50 22 50 50 c 0
 50 78 72 100 100 100 c 0
 128 100 150 78 150 50 c 0
 150 22 128 0 100 0 c 0
200 0 m 0x8080
 172 0 150 22 150 50 c 0
 150 78 172 100 200 100 c 0
 228 100 250 78 250 50 c 0
 250 22 228 0 200 0 c 0x8080
300 0 m 0x8040
 272 0 250 22 250 50 c 0
 250 78 272 100 300 100 c 0
 328 100 350 78 350 50 c 0
 350 22 328 0 300 0 c 0x8040
EndSplineSet
EndChar

StartChar: Ecircumflex
Encoding: 202 202 25
Width: 400
GlyphClass: 1
Flags: MW
HStem: 0 100<86 114 186 214 286 314> 150 100<86 114> 300 100<86 114 186 214> 450 100<86 114> 600 100<86 114 186 214 286 314> 750 100<86 114 286 314> 900 100<186 214>
VStem: 50 100<36 64 186 214 336 364 486 514 636 664 786 814> 150 100<36 64 36 64 336 364 336 364 636 664 636 664 786 814 936 964> 250 100<36 64 36 64 636 664 636 664 786 814>
LayerCount: 2
Fore
SplineSet
200 900 m 0x0280
 172 900 150 922 150 950 c 0
 150 978 172 1000 200 1000 c 0
 228 1000 250 978 250 950 c 0
 250 922 228 900 200 900 c 0x0280
100 750 m 0x0d40
 72 750 50 772 50 800 c 0
 50 828 72 850 100 850 c 0
 128 850 150 828 150 800 c 0
 150 772 128 750 100 750 c 0x0d40
300 750 m 0
 272 750 250 772 250 800 c 0
 250 828 272 850 300 850 c 0
 328 850 350 828 350 800 c 0
 350 772 328 750 300 750 c 0
100 600 m 0
 72 600 50 622 50 650 c 0
 50 678 72 700 100 700 c 0
 128 700 150 678 150 650 c 0
 150 622 128 600 100 600 c 0
200 600 m 0x0880
 172 600 150 622 150 650 c 0
 150 678 172 700 200 700 c 0
 228 700 250 678 250 650 c 0
 250 622 228 600 200 600 c 0x0880
300 600 m 0x3940
 272 600 250 622 250 650 c 0
 250 678 272 700 300 700 c 0
 328 700 350 678 350 650 c 0
 350 622 328 600 300 600 c 0x3940
100 450 m 0
 72 450 50 472 50 500 c 0
 50 528 72 550 100 550 c 0
 128 550 150 528 150 500 c 0
 150 472 128 450 100 450 c 0
100 300 m 0
 72 300 50 322 50 350 c 0
 50 378 72 400 100 400 c 0
 128 400 150 378 150 350 c 0
 150 322 128 300 100 300 c 0
200 300 m 0x2080
 172 300 150 322 150 350 c 0
 150 378 172 400 200 400 c 0
 228 400 250 378 250 350 c 0
 250 322 228 300 200 300 c 0x2080
100 150 m 0xc1
 72 150 50 172 50 200 c 0
 50 228 72 250 100 250 c 0
 128 250 150 228 150 200 c 0
 150 172 128 150 100 150 c 0xc1
100 0 m 0
 72 0 50 22 50 50 c 0
 50 78 72 100 100 100 c 0
 128 100 150 78 150 50 c 0
 150 22 128 0 100 0 c 0
200 0 m 0x8080
 172 0 150 22 150 50 c 0
 150 78 172 100 200 100 c 0
 228 100 250 78 250 50 c 0
 250 22 228 0 200 0 c 0x8080
300 0 m 0x8040
 272 0 250 22 250 50 c 0
 250 78 272 100 300 100 c 0
 328 100 350 78 350 50 c 0
 350 22 328 0 300 0 c 0x8040
EndSplineSet
EndChar

StartChar: Edieresis
Encoding: 203 203 26
Width: 400
GlyphClass: 1
Flags: MW
HStem: 0 100<86 114 186 214 286 314> 150 100<86 114> 300 100<86 114 186 214> 450 100<86 114> 600 100<86 114 186 214 286 314> 900 100<86 114 286 314>
VStem: 50 100<36 64 186 214 336 364 486 514 636 664 936 964> 150 100<36 64 36 64 336 364 336 364 636 664 636 664 936 964> 250 100<36 64 36 64 636 664 636 664 936 964>
LayerCount: 2
Fore
SplineSet
100 900 m 0xfe80
 72 900 50 922 50 950 c 0
 50 978 72 1000 100 1000 c 0
 128 1000 150 978 150 950 c 0
 150 922 128 900 100 900 c 0xfe80
300 900 m 0
 272 900 250 922 250 950 c 0
 250 978 272 1000 300 1000 c 0
 328 1000 350 978 350 950 c 0
 350 922 328 900 300 900 c 0
100 600 m 0
 72 600 50 622 50 650 c 0
 50 678 72 700 100 700 c 0
 128 700 150 678 150 650 c 0
 150 622 128 600 100 600 c 0
200 600 m 0x09
 172 600 150 622 150 650 c 0
 150 678 172 700 200 700 c 0
 228 700 250 678 250 650 c 0
 250 622 228 600 200 600 c 0x09
300 600 m 0x3a80
 272 600 250 622 250 650 c 0
 250 678 272 700 300 700 c 0
 328 700 350 678 350 650 c 0
 350 622 328 600 300 600 c 0x3a80
100 450 m 0
 72 450 50 472 50 500 c 0
 50 528 72 550 100 550 c 0
 128 550 150 528 150 500 c 0
 150 472 128 450 100 450 c 0
100 300 m 0
 72 300 50 322 50 350 c 0
 50 378 72 400 100 400 c 0
 128 400 150 378 150 350 c 0
 150 322 128 300 100 300 c 0
200 300 m 0x21
 172 300 150 322 150 350 c 0
 150 378 172 400 200 400 c 0
 228 400 250 378 250 350 c 0
 250 322 228 300 200 300 c 0x21
100 150 m 0xc2
 72 150 50 172 50 200 c 0
 50 228 72 250 100 250 c 0
 128 250 150 228 150 200 c 0
 150 172 128 150 100 150 c 0xc2
100 0 m 0
 72 0 50 22 50 50 c 0
 50 78 72 100 100 100 c 0
 128 100 150 78 150 50 c 0
 150 22 128 0 100 0 c 0
200 0 m 0x81
 172 0 150 22 150 50 c 0
 150 78 172 100 200 100 c 0
 228 100 250 78 250 50 c 0
 250 22 228 0 200 0 c 0x81
300 0 m 0x8080
 272 0 250 22 250 50 c 0
 250 78 272 100 300 100 c 0
 328 100 350 78 350 50 c 0
 350 22 328 0 300 0 c 0x8080
EndSplineSet
EndChar

StartChar: Edotaccent
Encoding: 278 278 27
Width: 400
GlyphClass: 1
Flags: MW
HStem: 0 100<86 114 186 214 286 314> 150 100<86 114> 300 100<86 114 186 214> 450 100<86 114> 600 100<86 114 186 214 286 314> 900 100<186 214>
VStem: 50 100<36 64 186 214 336 364 486 514 636 664> 150 100<36 64 36 64 336 364 336 364 636 664 636 664 936 964> 250 100<36 64 36 64 636 664 636 664>
LayerCount: 2
Fore
SplineSet
200 900 m 0x05
 172 900 150 922 150 950 c 0
 150 978 172 1000 200 1000 c 0
 228 1000 250 978 250 950 c 0
 250 922 228 900 200 900 c 0x05
100 600 m 0x0a
 72 600 50 622 50 650 c 0
 50 678 72 700 100 700 c 0
 128 700 150 678 150 650 c 0
 150 622 128 600 100 600 c 0x0a
200 600 m 0x09
 172 600 150 622 150 650 c 0
 150 678 172 700 200 700 c 0
 228 700 250 678 250 650 c 0
 250 622 228 600 200 600 c 0x09
300 600 m 0x3a80
 272 600 250 622 250 650 c 0
 250 678 272 700 300 700 c 0
 328 700 350 678 350 650 c 0
 350 622 328 600 300 600 c 0x3a80
100 450 m 0
 72 450 50 472 50 500 c 0
 50 528 72 550 100 550 c 0
 128 550 150 528 150 500 c 0
 150 472 128 450 100 450 c 0
100 300 m 0
 72 300 50 322 50 350 c 0
 50 378 72 400 100 400 c 0
 128 400 150 378 150 350 c 0
 150 322 128 300 100 300 c 0
200 300 m 0x21
 172 300 150 322 150 350 c 0
 150 378 172 400 200 400 c 0
 228 400 250 378 250 350 c 0
 250 322 228 300 200 300 c 0x21
100 150 m 0xc2
 72 150 50 172 50 200 c 0
 50 228 72 250 100 250 c 0
 128 250 150 228 150 200 c 0
 150 172 128 150 100 150 c 0xc2
100 0 m 0
 72 0 50 22 50 50 c 0
 50 78 72 100 100 100 c 0
 128 100 150 78 150 50 c 0
 150 22 128 0 100 0 c 0
200 0 m 0x81
 172 0 150 22 150 50 c 0
 150 78 172 100 200 100 c 0
 228 100 250 78 250 50 c 0
 250 22 228 0 200 0 c 0x81
300 0 m 0x8080
 272 0 250 22 250 50 c 0
 250 78 272 100 300 100 c 0
 328 100 350 78 350 50 c 0
 350 22 328 0 300 0 c 0x8080
EndSplineSet
EndChar

StartChar: Egrave
Encoding: 200 200 28
Width: 400
GlyphClass: 1
Flags: MW
HStem: 0 100<86 114 186 214 286 314> 150 100<86 114> 300 100<86 114 186 214> 450 100<86 114> 600 100<86 114 186 214 286 314> 750 100<186 214> 900 100<86 114>
VStem: 50 100<36 64 186 214 336 364 486 514 636 664 936 964> 150 100<36 64 36 64 336 364 336 364 636 664 636 664 786 814> 250 100<36 64 36 64 636 664 636 664>
LayerCount: 2
Fore
SplineSet
100 900 m 0xff40
 72 900 50 922 50 950 c 0
 50 978 72 1000 100 1000 c 0
 128 1000 150 978 150 950 c 0
 150 922 128 900 100 900 c 0xff40
200 750 m 0x0480
 172 750 150 772 150 800 c 0
 150 828 172 850 200 850 c 0
 228 850 250 828 250 800 c 0
 250 772 228 750 200 750 c 0x0480
100 600 m 0x09
 72 600 50 622 50 650 c 0
 50 678 72 700 100 700 c 0
 128 700 150 678 150 650 c 0
 150 622 128 600 100 600 c 0x09
200 600 m 0x0880
 172 600 150 622 150 650 c 0
 150 678 172 700 200 700 c 0
 228 700 250 678 250 650 c 0
 250 622 228 600 200 600 c 0x0880
300 600 m 0x3940
 272 600 250 622 250 650 c 0
 250 678 272 700 300 700 c 0
 328 700 350 678 350 650 c 0
 350 622 328 600 300 600 c 0x3940
100 450 m 0
 72 450 50 472 50 500 c 0
 50 528 72 550 100 550 c 0
 128 550 150 528 150 500 c 0
 150 472 128 450 100 450 c 0
100 300 m 0
 72 300 50 322 50 350 c 0
 50 378 72 400 100 400 c 0
 128 400 150 378 150 350 c 0
 150 322 128 300 100 300 c 0
200 300 m 0x2080
 172 300 150 322 150 350 c 0
 150 378 172 400 200 400 c 0
 228 400 250 378 250 350 c 0
 250 322 228 300 200 300 c 0x2080
100 150 m 0xc1
 72 150 50 172 50 200 c 0
 50 228 72 250 100 250 c 0
 128 250 150 228 150 200 c 0
 150 172 128 150 100 150 c 0xc1
100 0 m 0
 72 0 50 22 50 50 c 0
 50 78 72 100 100 100 c 0
 128 100 150 78 150 50 c 0
 150 22 128 0 100 0 c 0
200 0 m 0x8080
 172 0 150 22 150 50 c 0
 150 78 172 100 200 100 c 0
 228 100 250 78 250 50 c 0
 250 22 228 0 200 0 c 0x8080
300 0 m 0x8040
 272 0 250 22 250 50 c 0
 250 78 272 100 300 100 c 0
 328 100 350 78 350 50 c 0
 350 22 328 0 300 0 c 0x8040
EndSplineSet
EndChar

StartChar: Emacron
Encoding: 274 274 29
Width: 400
GlyphClass: 1
Flags: MW
HStem: 0 100<86 114 186 214 286 314> 150 100<86 114> 300 100<86 114 186 214> 450 100<86 114> 600 100<86 114 186 214 286 314> 900 100<86 114 186 214 286 314>
VStem: 50 100<36 64 186 214 336 364 486 514 636 664 936 964> 150 100<36 64 36 64 336 364 336 364 636 664 636 664 936 964 936 964> 250 100<36 64 36 64 636 664 636 664 936 964 936 964>
LayerCount: 2
Fore
SplineSet
100 900 m 0xfe80
 72 900 50 922 50 950 c 0
 50 978 72 1000 100 1000 c 0
 128 1000 150 978 150 950 c 0
 150 922 128 900 100 900 c 0xfe80
200 900 m 0x05
 172 900 150 922 150 950 c 0
 150 978 172 1000 200 1000 c 0
 228 1000 250 978 250 950 c 0
 250 922 228 900 200 900 c 0x05
300 900 m 0x0e80
 272 900 250 922 250 950 c 0
 250 978 272 1000 300 1000 c 0
 328 1000 350 978 350 950 c 0
 350 922 328 900 300 900 c 0x0e80
100 600 m 0
 72 600 50 622 50 650 c 0
 50 678 72 700 100 700 c 0
 128 700 150 678 150 650 c 0
 150 622 128 600 100 600 c 0
200 600 m 0x09
 172 600 150 622 150 650 c 0
 150 678 172 700 200 700 c 0
 228 700 250 678 250 650 c 0
 250 622 228 600 200 600 c 0x09
300 600 m 0x3a80
 272 600 250 622 250 650 c 0
 250 678 272 700 300 700 c 0
 328 700 350 678 350 650 c 0
 350 622 328 600 300 600 c 0x3a80
100 450 m 0
 72 450 50 472 50 500 c 0
 50 528 72 550 100 550 c 0
 128 550 150 528 150 500 c 0
 150 472 128 450 100 450 c 0
100 300 m 0
 72 300 50 322 50 350 c 0
 50 378 72 400 100 400 c 0
 128 400 150 378 150 350 c 0
 150 322 128 300 100 300 c 0
200 300 m 0x21
 172 300 150 322 150 350 c 0
 150 378 172 400 200 400 c 0
 228 400 250 378 250 350 c 0
 250 322 228 300 200 300 c 0x21
100 150 m 0xc2
 72 150 50 172 50 200 c 0
 50 228 72 250 100 250 c 0
 128 250 150 228 150 200 c 0
 150 172 128 150 100 150 c 0xc2
100 0 m 0
 72 0 50 22 50 50 c 0
 50 78 72 100 100 100 c 0
 128 100 150 78 150 50 c 0
 150 22 128 0 100 0 c 0
200 0 m 0x81
 172 0 150 22 150 50 c 0
 150 78 172 100 200 100 c 0
 228 100 250 78 250 50 c 0
 250 22 228 0 200 0 c 0x81
300 0 m 0x8080
 272 0 250 22 250 50 c 0
 250 78 272 100 300 100 c 0
 328 100 350 78 350 50 c 0
 350 22 328 0 300 0 c 0x8080
EndSplineSet
EndChar

StartChar: Eogonek
Encoding: 280 280 30
Width: 400
GlyphClass: 1
Flags: MW
HStem: -300 100<186 214 286 314> -150 100<186 214> 0 100<86 114 186 214 286 314> 150 100<86 114> 300 100<86 114 186 214> 450 100<86 114> 600 100<86 114 186 214 286 314>
VStem: 50 100<36 64 186 214 336 364 486 514 636 664> 150 100<-264 -236 -114 -86 36 64 36 64 336 364 336 364 636 664 636 664> 250 100<-264 -236 -264 -236 36 64 36 64 636 664 636 664>
LayerCount: 2
Fore
SplineSet
100 600 m 0xff40
 72 600 50 622 50 650 c 0
 50 678 72 700 100 700 c 0
 128 700 150 678 150 650 c 0
 150 622 128 600 100 600 c 0xff40
200 600 m 0x0280
 172 600 150 622 150 650 c 0
 150 678 172 700 200 700 c 0
 228 700 250 678 250 650 c 0
 250 622 228 600 200 600 c 0x0280
300 600 m 0x0f40
 272 600 250 622 250 650 c 0
 250 678 272 700 300 700 c 0
 328 700 350 678 350 650 c 0
 350 622 328 600 300 600 c 0x0f40
100 450 m 0
 72 450 50 472 50 500 c 0
 50 528 72 550 100 550 c 0
 128 550 150 528 150 500 c 0
 150 472 128 450 100 450 c 0
100 300 m 0
 72 300 50 322 50 350 c 0
 50 378 72 400 100 400 c 0
 128 400 150 378 150 350 c 0
 150 322 128 300 100 300 c 0
200 300 m 0x0880
 172 300 150 322 150 350 c 0
 150 378 172 400 200 400 c 0
 228 400 250 378 250 350 c 0
 250 322 228 300 200 300 c 0x0880
100 150 m 0x31
 72 150 50 172 50 200 c 0
 50 228 72 250 100 250 c 0
 128 250 150 228 150 200 c 0
 150 172 128 150 100 150 c 0x31
100 0 m 0
 72 0 50 22 50 50 c 0
 50 78 72 100 100 100 c 0
 128 100 150 78 150 50 c 0
 150 22 128 0 100 0 c 0
200 0 m 0x2080
 172 0 150 22 150 50 c 0
 150 78 172 100 200 100 c 0
 228 100 250 78 250 50 c 0
 250 22 228 0 200 0 c 0x2080
300 0 m 0x2040
 272 0 250 22 250 50 c 0
 250 78 272 100 300 100 c 0
 328 100 350 78 350 50 c 0
 350 22 328 0 300 0 c 0x2040
200 -150 m 0xc080
 172 -150 150 -128 150 -100 c 0
 150 -72 172 -50 200 -50 c 0
 228 -50 250 -72 250 -100 c 0
 250 -128 228 -150 200 -150 c 0xc080
200 -300 m 0
 172 -300 150 -278 150 -250 c 0
 150 -222 172 -200 200 -200 c 0
 228 -200 250 -222 250 -250 c 0
 250 -278 228 -300 200 -300 c 0
300 -300 m 0x8040
 272 -300 250 -278 250 -250 c 0
 250 -222 272 -200 300 -200 c 0
 328 -200 350 -222 350 -250 c 0
 350 -278 328 -300 300 -300 c 0x8040
EndSplineSet
EndChar

StartChar: F
Encoding: 70 70 31
Width: 400
GlyphClass: 1
Flags: MW
HStem: 0 100<86 114> 150 100<86 114> 300 100<86 114 186 214> 450 100<86 114> 600 100<86 114 186 214 286 314>
VStem: 50 100<36 64 186 214 336 364 486 514 636 664> 150 100<336 364 336 364 636 664 636 664> 250 100<636 664 636 664>
LayerCount: 2
Fore
SplineSet
100 600 m 0xfd
 72 600 50 622 50 650 c 0
 50 678 72 700 100 700 c 0
 128 700 150 678 150 650 c 0
 150 622 128 600 100 600 c 0xfd
200 600 m 0x0a
 172 600 150 622 150 650 c 0
 150 678 172 700 200 700 c 0
 228 700 250 678 250 650 c 0
 250 622 228 600 200 600 c 0x0a
300 600 m 0x3d
 272 600 250 622 250 650 c 0
 250 678 272 700 300 700 c 0
 328 700 350 678 350 650 c 0
 350 622 328 600 300 600 c 0x3d
100 450 m 0
 72 450 50 472 50 500 c 0
 50 528 72 550 100 550 c 0
 128 550 150 528 150 500 c 0
 150 472 128 450 100 450 c 0
100 300 m 0
 72 300 50 322 50 350 c 0
 50 378 72 400 100 400 c 0
 128 400 150 378 150 350 c 0
 150 322 128 300 100 300 c 0
200 300 m 0x22
 172 300 150 322 150 350 c 0
 150 378 172 400 200 400 c 0
 228 400 250 378 250 350 c 0
 250 322 228 300 200 300 c 0x22
100 150 m 0xc4
 72 150 50 172 50 200 c 0
 50 228 72 250 100 250 c 0
 128 250 150 228 150 200 c 0
 150 172 128 150 100 150 c 0xc4
100 0 m 0
 72 0 50 22 50 50 c 0
 50 78 72 100 100 100 c 0
 128 100 150 78 150 50 c 0
 150 22 128 0 100 0 c 0
EndSplineSet
EndChar

StartChar: G
Encoding: 71 71 32
Width: 400
GlyphClass: 1
Flags: MW
HStem: 0 100<186 214> 150 100<86 114 286 314> 300 100<86 114 286 314> 450 100<86 114> 600 100<186 214 286 314>
VStem: 50 100<186 214 336 364 486 514> 150 100<36 64 186 214 336 364 636 664> 250 100<186 214 336 364 636 664 636 664>
LayerCount: 2
Fore
SplineSet
200 600 m 0x0a
 172 600 150 622 150 650 c 0
 150 678 172 700 200 700 c 0
 228 700 250 678 250 650 c 0
 250 622 228 600 200 600 c 0x0a
300 600 m 0x7d
 272 600 250 622 250 650 c 0
 250 678 272 700 300 700 c 0
 328 700 350 678 350 650 c 0
 350 622 328 600 300 600 c 0x7d
100 450 m 0
 72 450 50 472 50 500 c 0
 50 528 72 550 100 550 c 0
 128 550 150 528 150 500 c 0
 150 472 128 450 100 450 c 0
100 300 m 0
 72 300 50 322 50 350 c 0
 50 378 72 400 100 400 c 0
 128 400 150 378 150 350 c 0
 150 322 128 300 100 300 c 0
300 300 m 0
 272 300 250 322 250 350 c 0
 250 378 272 400 300 400 c 0
 328 400 350 378 350 350 c 0
 350 322 328 300 300 300 c 0
100 150 m 0
 72 150 50 172 50 200 c 0
 50 228 72 250 100 250 c 0
 128 250 150 228 150 200 c 0
 150 172 128 150 100 150 c 0
300 150 m 0
 272 150 250 172 250 200 c 0
 250 228 272 250 300 250 c 0
 328 250 350 228 350 200 c 0
 350 172 328 150 300 150 c 0
200 0 m 0x82
 172 0 150 22 150 50 c 0
 150 78 172 100 200 100 c 0
 228 100 250 78 250 50 c 0
 250 22 228 0 200 0 c 0x82
EndSplineSet
EndChar

StartChar: Gbreve
Encoding: 286 286 33
Width: 400
GlyphClass: 1
Flags: MW
HStem: 0 100<186 214> 150 100<86 114 286 314> 300 100<86 114 286 314> 450 100<86 114> 600 100<186 214 286 314> 750 100<86 114 186 214 286 314> 900 100<86 114 286 314>
VStem: 50 100<186 214 336 364 486 514 786 814 936 964> 150 100<36 64 186 214 336 364 636 664 786 814 786 814 936 964> 250 100<186 214 336 364 636 664 636 664 786 814 786 814 936 964>
LayerCount: 2
Fore
SplineSet
100 900 m 0xff40
 72 900 50 922 50 950 c 0
 50 978 72 1000 100 1000 c 0
 128 1000 150 978 150 950 c 0
 150 922 128 900 100 900 c 0xff40
300 900 m 0
 272 900 250 922 250 950 c 0
 250 978 272 1000 300 1000 c 0
 328 1000 350 978 350 950 c 0
 350 922 328 900 300 900 c 0
100 750 m 0
 72 750 50 772 50 800 c 0
 50 828 72 850 100 850 c 0
 128 850 150 828 150 800 c 0
 150 772 128 750 100 750 c 0
200 750 m 0x0480
 172 750 150 772 150 800 c 0
 150 828 172 850 200 850 c 0
 228 850 250 828 250 800 c 0
 250 772 228 750 200 750 c 0x0480
300 750 m 0x0440
 272 750 250 772 250 800 c 0
 250 828 272 850 300 850 c 0
 328 850 350 828 350 800 c 0
 350 772 328 750 300 750 c 0x0440
200 600 m 0x0880
 172 600 150 622 150 650 c 0
 150 678 172 700 200 700 c 0
 228 700 250 678 250 650 c 0
 250 622 228 600 200 600 c 0x0880
300 600 m 0x7940
 272 600 250 622 250 650 c 0
 250 678 272 700 300 700 c 0
 328 700 350 678 350 650 c 0
 350 622 328 600 300 600 c 0x7940
100 450 m 0
 72 450 50 472 50 500 c 0
 50 528 72 550 100 550 c 0
 128 550 150 528 150 500 c 0
 150 472 128 450 100 450 c 0
100 300 m 0
 72 300 50 322 50 350 c 0
 50 378 72 400 100 400 c 0
 128 400 150 378 150 350 c 0
 150 322 128 300 100 300 c 0
300 300 m 0
 272 300 250 322 250 350 c 0
 250 378 272 400 300 400 c 0
 328 400 350 378 350 350 c 0
 350 322 328 300 300 300 c 0
100 150 m 0
 72 150 50 172 50 200 c 0
 50 228 72 250 100 250 c 0
 128 250 150 228 150 200 c 0
 150 172 128 150 100 150 c 0
300 150 m 0
 272 150 250 172 250 200 c 0
 250 228 272 250 300 250 c 0
 328 250 350 228 350 200 c 0
 350 172 328 150 300 150 c 0
200 0 m 0x8080
 172 0 150 22 150 50 c 0
 150 78 172 100 200 100 c 0
 228 100 250 78 250 50 c 0
 250 22 228 0 200 0 c 0x8080
EndSplineSet
EndChar

StartChar: uni0122
Encoding: 290 290 34
Width: 400
GlyphClass: 1
Flags: MW
HStem: -300 100<86 114> -150 100<186 214> 0 100<186 214> 150 100<86 114 286 314> 300 100<86 114 286 314> 450 100<86 114> 600 100<186 214 286 314>
VStem: 50 100<-264 -236 186 214 336 364 486 514> 150 100<-114 -86 36 64 186 214 336 364 636 664> 250 100<186 214 336 364 636 664 636 664>
LayerCount: 2
Fore
SplineSet
200 600 m 0x0280
 172 600 150 622 150 650 c 0
 150 678 172 700 200 700 c 0
 228 700 250 678 250 650 c 0
 250 622 228 600 200 600 c 0x0280
300 600 m 0x1f40
 272 600 250 622 250 650 c 0
 250 678 272 700 300 700 c 0
 328 700 350 678 350 650 c 0
 350 622 328 600 300 600 c 0x1f40
100 450 m 0
 72 450 50 472 50 500 c 0
 50 528 72 550 100 550 c 0
 128 550 150 528 150 500 c 0
 150 472 128 450 100 450 c 0
100 300 m 0
 72 300 50 322 50 350 c 0
 50 378 72 400 100 400 c 0
 128 400 150 378 150 350 c 0
 150 322 128 300 100 300 c 0
300 300 m 0
 272 300 250 322 250 350 c 0
 250 378 272 400 300 400 c 0
 328 400 350 378 350 350 c 0
 350 322 328 300 300 300 c 0
100 150 m 0
 72 150 50 172 50 200 c 0
 50 228 72 250 100 250 c 0
 128 250 150 228 150 200 c 0
 150 172 128 150 100 150 c 0
300 150 m 0
 272 150 250 172 250 200 c 0
 250 228 272 250 300 250 c 0
 328 250 350 228 350 200 c 0
 350 172 328 150 300 150 c 0
200 0 m 0x6080
 172 0 150 22 150 50 c 0
 150 78 172 100 200 100 c 0
 228 100 250 78 250 50 c 0
 250 22 228 0 200 0 c 0x6080
200 -150 m 0
 172 -150 150 -128 150 -100 c 0
 150 -72 172 -50 200 -50 c 0
 228 -50 250 -72 250 -100 c 0
 250 -128 228 -150 200 -150 c 0
100 -300 m 0x81
 72 -300 50 -278 50 -250 c 0
 50 -222 72 -200 100 -200 c 0
 128 -200 150 -222 150 -250 c 0
 150 -278 128 -300 100 -300 c 0x81
EndSplineSet
EndChar

StartChar: Gdotaccent
Encoding: 288 288 35
Width: 400
GlyphClass: 1
Flags: MW
HStem: 0 100<186 214> 150 100<86 114 286 314> 300 100<86 114 286 314> 450 100<86 114> 600 100<186 214 286 314> 900 100<186 214>
VStem: 50 100<186 214 336 364 486 514> 150 100<36 64 186 214 336 364 636 664 936 964> 250 100<186 214 336 364 636 664 636 664>
LayerCount: 2
Fore
SplineSet
200 900 m 0x0d
 172 900 150 922 150 950 c 0
 150 978 172 1000 200 1000 c 0
 228 1000 250 978 250 950 c 0
 250 922 228 900 200 900 c 0x0d
200 600 m 0
 172 600 150 622 150 650 c 0
 150 678 172 700 200 700 c 0
 228 700 250 678 250 650 c 0
 250 622 228 600 200 600 c 0
300 600 m 0x7a80
 272 600 250 622 250 650 c 0
 250 678 272 700 300 700 c 0
 328 700 350 678 350 650 c 0
 350 622 328 600 300 600 c 0x7a80
100 450 m 0
 72 450 50 472 50 500 c 0
 50 528 72 550 100 550 c 0
 128 550 150 528 150 500 c 0
 150 472 128 450 100 450 c 0
100 300 m 0
 72 300 50 322 50 350 c 0
 50 378 72 400 100 400 c 0
 128 400 150 378 150 350 c 0
 150 322 128 300 100 300 c 0
300 300 m 0
 272 300 250 322 250 350 c 0
 250 378 272 400 300 400 c 0
 328 400 350 378 350 350 c 0
 350 322 328 300 300 300 c 0
100 150 m 0
 72 150 50 172 50 200 c 0
 50 228 72 250 100 250 c 0
 128 250 150 228 150 200 c 0
 150 172 128 150 100 150 c 0
300 150 m 0
 272 150 250 172 250 200 c 0
 250 228 272 250 300 250 c 0
 328 250 350 228 350 200 c 0
 350 172 328 150 300 150 c 0
200 0 m 0x81
 172 0 150 22 150 50 c 0
 150 78 172 100 200 100 c 0
 228 100 250 78 250 50 c 0
 250 22 228 0 200 0 c 0x81
EndSplineSet
EndChar

StartChar: H
Encoding: 72 72 36
Width: 400
GlyphClass: 1
Flags: MW
HStem: 0 100<86 114 286 314> 150 100<86 114 286 314> 300 100<86 114 186 214 286 314> 450 100<86 114 286 314> 600 100<86 114 286 314>
VStem: 50 100<36 64 186 214 336 364 486 514 636 664> 150 100<36 64 186 214 336 364 336 364 486 514 636 664> 250 100<36 64 186 214 336 364 336 364 486 514 636 664>
LayerCount: 2
Fore
SplineSet
100 600 m 0xfd
 72 600 50 622 50 650 c 0
 50 678 72 700 100 700 c 0
 128 700 150 678 150 650 c 0
 150 622 128 600 100 600 c 0xfd
300 600 m 0
 272 600 250 622 250 650 c 0
 250 678 272 700 300 700 c 0
 328 700 350 678 350 650 c 0
 350 622 328 600 300 600 c 0
100 450 m 0
 72 450 50 472 50 500 c 0
 50 528 72 550 100 550 c 0
 128 550 150 528 150 500 c 0
 150 472 128 450 100 450 c 0
300 450 m 0
 272 450 250 472 250 500 c 0
 250 528 272 550 300 550 c 0
 328 550 350 528 350 500 c 0
 350 472 328 450 300 450 c 0
100 300 m 0
 72 300 50 322 50 350 c 0
 50 378 72 400 100 400 c 0
 128 400 150 378 150 350 c 0
 150 322 128 300 100 300 c 0
200 300 m 0x22
 172 300 150 322 150 350 c 0
 150 378 172 400 200 400 c 0
 228 400 250 378 250 350 c 0
 250 322 228 300 200 300 c 0x22
300 300 m 0xe5
 272 300 250 322 250 350 c 0
 250 378 272 400 300 400 c 0
 328 400 350 378 350 350 c 0
 350 322 328 300 300 300 c 0xe5
100 150 m 0
 72 150 50 172 50 200 c 0
 50 228 72 250 100 250 c 0
 128 250 150 228 150 200 c 0
 150 172 128 150 100 150 c 0
300 150 m 0
 272 150 250 172 250 200 c 0
 250 228 272 250 300 250 c 0
 328 250 350 228 350 200 c 0
 350 172 328 150 300 150 c 0
100 0 m 0
 72 0 50 22 50 50 c 0
 50 78 72 100 100 100 c 0
 128 100 150 78 150 50 c 0
 150 22 128 0 100 0 c 0
300 0 m 0
 272 0 250 22 250 50 c 0
 250 78 272 100 300 100 c 0
 328 100 350 78 350 50 c 0
 350 22 328 0 300 0 c 0
EndSplineSet
EndChar

StartChar: Hbar
Encoding: 294 294 37
Width: 600
GlyphClass: 1
Flags: MW
HStem: 0 100<186 214 386 414> 150 100<186 214 386 414> 300 100<186 214 286 314 386 414> 450 100<86 114 186 214 286 314 386 414 486 514> 600 100<186 214 386 414>
VStem: 50 100<486 514> 150 100<36 64 186 214 336 364 486 514 486 514 636 664> 250 100<36 64 186 214 336 364 336 364 486 514 486 514 636 664> 350 100<36 64 186 214 336 364 336 364 486 514 486 514 636 664> 450 100<486 514 486 514>
LayerCount: 2
Fore
SplineSet
200 600 m 0xfa80
 172 600 150 622 150 650 c 0
 150 678 172 700 200 700 c 0
 228 700 250 678 250 650 c 0
 250 622 228 600 200 600 c 0xfa80
400 600 m 0
 372 600 350 622 350 650 c 0
 350 678 372 700 400 700 c 0
 428 700 450 678 450 650 c 0
 450 622 428 600 400 600 c 0
100 550 m 0x14
 128 550 150 528 150 500 c 0
 150 472 128 450 100 450 c 0
 72 450 50 472 50 500 c 0
 50 528 72 550 100 550 c 0x14
200 550 m 0x12
 228 550 250 528 250 500 c 0
 250 472 228 450 200 450 c 0
 172 450 150 472 150 500 c 0
 150 528 172 550 200 550 c 0x12
300 550 m 0x11
 328 550 350 528 350 500 c 0
 350 472 328 450 300 450 c 0
 272 450 250 472 250 500 c 0
 250 528 272 550 300 550 c 0x11
400 550 m 0x1080
 428 550 450 528 450 500 c 0
 450 472 428 450 400 450 c 0
 372 450 350 472 350 500 c 0
 350 528 372 550 400 550 c 0x1080
500 550 m 0x3240
 528 550 550 528 550 500 c 0
 550 472 528 450 500 450 c 0
 472 450 450 472 450 500 c 0
 450 528 472 550 500 550 c 0x3240
200 400 m 0
 228 400 250 378 250 350 c 0
 250 322 228 300 200 300 c 0
 172 300 150 322 150 350 c 0
 150 378 172 400 200 400 c 0
300 400 m 0x21
 328 400 350 378 350 350 c 0
 350 322 328 300 300 300 c 0
 272 300 250 322 250 350 c 0
 250 378 272 400 300 400 c 0x21
400 400 m 0xe280
 428 400 450 378 450 350 c 0
 450 322 428 300 400 300 c 0
 372 300 350 322 350 350 c 0
 350 378 372 400 400 400 c 0xe280
200 250 m 0
 228 250 250 228 250 200 c 0
 250 172 228 150 200 150 c 0
 172 150 150 172 150 200 c 0
 150 228 172 250 200 250 c 0
400 250 m 0
 428 250 450 228 450 200 c 0
 450 172 428 150 400 150 c 0
 372 150 350 172 350 200 c 0
 350 228 372 250 400 250 c 0
200 100 m 0
 228 100 250 78 250 50 c 0
 250 22 228 0 200 0 c 0
 172 0 150 22 150 50 c 0
 150 78 172 100 200 100 c 0
400 100 m 0
 428 100 450 78 450 50 c 0
 450 22 428 0 400 0 c 0
 372 0 350 22 350 50 c 0
 350 78 372 100 400 100 c 0
EndSplineSet
EndChar

StartChar: I
Encoding: 73 73 38
Width: 400
GlyphClass: 1
Flags: MW
HStem: 0 100<86 114 186 214 286 314> 150 100<186 214> 300 100<186 214> 450 100<186 214> 600 100<86 114 186 214 286 314>
VStem: 50 100<36 64 636 664> 150 100<36 64 36 64 186 214 336 364 486 514 636 664 636 664> 250 100<36 64 36 64 636 664 636 664>
LayerCount: 2
Fore
SplineSet
100 600 m 0x0c
 72 600 50 622 50 650 c 0
 50 678 72 700 100 700 c 0
 128 700 150 678 150 650 c 0
 150 622 128 600 100 600 c 0x0c
200 600 m 0x0a
 172 600 150 622 150 650 c 0
 150 678 172 700 200 700 c 0
 228 700 250 678 250 650 c 0
 250 622 228 600 200 600 c 0x0a
300 600 m 0x09
 272 600 250 622 250 650 c 0
 250 678 272 700 300 700 c 0
 328 700 350 678 350 650 c 0
 350 622 328 600 300 600 c 0x09
200 450 m 0x72
 172 450 150 472 150 500 c 0
 150 528 172 550 200 550 c 0
 228 550 250 528 250 500 c 0
 250 472 228 450 200 450 c 0x72
200 300 m 0
 172 300 150 322 150 350 c 0
 150 378 172 400 200 400 c 0
 228 400 250 378 250 350 c 0
 250 322 228 300 200 300 c 0
200 150 m 0
 172 150 150 172 150 200 c 0
 150 228 172 250 200 250 c 0
 228 250 250 228 250 200 c 0
 250 172 228 150 200 150 c 0
100 0 m 0x84
 72 0 50 22 50 50 c 0
 50 78 72 100 100 100 c 0
 128 100 150 78 150 50 c 0
 150 22 128 0 100 0 c 0x84
200 0 m 0x82
 172 0 150 22 150 50 c 0
 150 78 172 100 200 100 c 0
 228 100 250 78 250 50 c 0
 250 22 228 0 200 0 c 0x82
300 0 m 0x81
 272 0 250 22 250 50 c 0
 250 78 272 100 300 100 c 0
 328 100 350 78 350 50 c 0
 350 22 328 0 300 0 c 0x81
EndSplineSet
EndChar

StartChar: Iacute
Encoding: 205 205 39
Width: 400
GlyphClass: 1
Flags: MW
HStem: 0 100<86 114 186 214 286 314> 150 100<186 214> 300 100<186 214> 450 100<186 214> 600 100<86 114 186 214 286 314> 750 100<186 214> 900 100<286 314>
VStem: 50 100<36 64 636 664> 150 100<36 64 36 64 186 214 336 364 486 514 636 664 636 664 786 814> 250 100<36 64 36 64 636 664 636 664 936 964>
LayerCount: 2
Fore
SplineSet
300 900 m 0x0240
 272 900 250 922 250 950 c 0
 250 978 272 1000 300 1000 c 0
 328 1000 350 978 350 950 c 0
 350 922 328 900 300 900 c 0x0240
200 750 m 0x0480
 172 750 150 772 150 800 c 0
 150 828 172 850 200 850 c 0
 228 850 250 828 250 800 c 0
 250 772 228 750 200 750 c 0x0480
100 600 m 0x09
 72 600 50 622 50 650 c 0
 50 678 72 700 100 700 c 0
 128 700 150 678 150 650 c 0
 150 622 128 600 100 600 c 0x09
200 600 m 0x0880
 172 600 150 622 150 650 c 0
 150 678 172 700 200 700 c 0
 228 700 250 678 250 650 c 0
 250 622 228 600 200 600 c 0x0880
300 600 m 0x0840
 272 600 250 622 250 650 c 0
 250 678 272 700 300 700 c 0
 328 700 350 678 350 650 c 0
 350 622 328 600 300 600 c 0x0840
200 450 m 0x7080
 172 450 150 472 150 500 c 0
 150 528 172 550 200 550 c 0
 228 550 250 528 250 500 c 0
 250 472 228 450 200 450 c 0x7080
200 300 m 0
 172 300 150 322 150 350 c 0
 150 378 172 400 200 400 c 0
 228 400 250 378 250 350 c 0
 250 322 228 300 200 300 c 0
200 150 m 0
 172 150 150 172 150 200 c 0
 150 228 172 250 200 250 c 0
 228 250 250 228 250 200 c 0
 250 172 228 150 200 150 c 0
100 0 m 0x81
 72 0 50 22 50 50 c 0
 50 78 72 100 100 100 c 0
 128 100 150 78 150 50 c 0
 150 22 128 0 100 0 c 0x81
200 0 m 0x8080
 172 0 150 22 150 50 c 0
 150 78 172 100 200 100 c 0
 228 100 250 78 250 50 c 0
 250 22 228 0 200 0 c 0x8080
300 0 m 0x8040
 272 0 250 22 250 50 c 0
 250 78 272 100 300 100 c 0
 328 100 350 78 350 50 c 0
 350 22 328 0 300 0 c 0x8040
EndSplineSet
EndChar

StartChar: Icircumflex
Encoding: 206 206 40
Width: 400
GlyphClass: 1
Flags: MW
HStem: 0 100<86 114 186 214 286 314> 150 100<186 214> 300 100<186 214> 450 100<186 214> 600 100<86 114 186 214 286 314> 750 100<86 114 286 314> 900 100<186 214>
VStem: 50 100<36 64 636 664 786 814> 150 100<36 64 36 64 186 214 336 364 486 514 636 664 636 664 786 814 936 964> 250 100<36 64 36 64 636 664 636 664 786 814>
LayerCount: 2
Fore
SplineSet
200 900 m 0xfe80
 172 900 150 922 150 950 c 0
 150 978 172 1000 200 1000 c 0
 228 1000 250 978 250 950 c 0
 250 922 228 900 200 900 c 0xfe80
100 750 m 0x0d40
 72 750 50 772 50 800 c 0
 50 828 72 850 100 850 c 0
 128 850 150 828 150 800 c 0
 150 772 128 750 100 750 c 0x0d40
300 750 m 0
 272 750 250 772 250 800 c 0
 250 828 272 850 300 850 c 0
 328 850 350 828 350 800 c 0
 350 772 328 750 300 750 c 0
100 600 m 0
 72 600 50 622 50 650 c 0
 50 678 72 700 100 700 c 0
 128 700 150 678 150 650 c 0
 150 622 128 600 100 600 c 0
200 600 m 0x0880
 172 600 150 622 150 650 c 0
 150 678 172 700 200 700 c 0
 228 700 250 678 250 650 c 0
 250 622 228 600 200 600 c 0x0880
300 600 m 0x0840
 272 600 250 622 250 650 c 0
 250 678 272 700 300 700 c 0
 328 700 350 678 350 650 c 0
 350 622 328 600 300 600 c 0x0840
200 450 m 0x7080
 172 450 150 472 150 500 c 0
 150 528 172 550 200 550 c 0
 228 550 250 528 250 500 c 0
 250 472 228 450 200 450 c 0x7080
200 300 m 0
 172 300 150 322 150 350 c 0
 150 378 172 400 200 400 c 0
 228 400 250 378 250 350 c 0
 250 322 228 300 200 300 c 0
200 150 m 0
 172 150 150 172 150 200 c 0
 150 228 172 250 200 250 c 0
 228 250 250 228 250 200 c 0
 250 172 228 150 200 150 c 0
100 0 m 0x81
 72 0 50 22 50 50 c 0
 50 78 72 100 100 100 c 0
 128 100 150 78 150 50 c 0
 150 22 128 0 100 0 c 0x81
200 0 m 0x8080
 172 0 150 22 150 50 c 0
 150 78 172 100 200 100 c 0
 228 100 250 78 250 50 c 0
 250 22 228 0 200 0 c 0x8080
300 0 m 0x8040
 272 0 250 22 250 50 c 0
 250 78 272 100 300 100 c 0
 328 100 350 78 350 50 c 0
 350 22 328 0 300 0 c 0x8040
EndSplineSet
EndChar

StartChar: Idieresis
Encoding: 207 207 41
Width: 400
GlyphClass: 1
Flags: MW
HStem: 0 100<86 114 186 214 286 314> 150 100<186 214> 300 100<186 214> 450 100<186 214> 600 100<86 114 186 214 286 314> 900 100<86 114 286 314>
VStem: 50 100<36 64 636 664 936 964> 150 100<36 64 36 64 186 214 336 364 486 514 636 664 636 664 936 964> 250 100<36 64 36 64 636 664 636 664 936 964>
LayerCount: 2
Fore
SplineSet
100 900 m 0x0e80
 72 900 50 922 50 950 c 0
 50 978 72 1000 100 1000 c 0
 128 1000 150 978 150 950 c 0
 150 922 128 900 100 900 c 0x0e80
300 900 m 0
 272 900 250 922 250 950 c 0
 250 978 272 1000 300 1000 c 0
 328 1000 350 978 350 950 c 0
 350 922 328 900 300 900 c 0
100 600 m 0
 72 600 50 622 50 650 c 0
 50 678 72 700 100 700 c 0
 128 700 150 678 150 650 c 0
 150 622 128 600 100 600 c 0
200 600 m 0x09
 172 600 150 622 150 650 c 0
 150 678 172 700 200 700 c 0
 228 700 250 678 250 650 c 0
 250 622 228 600 200 600 c 0x09
300 600 m 0x0880
 272 600 250 622 250 650 c 0
 250 678 272 700 300 700 c 0
 328 700 350 678 350 650 c 0
 350 622 328 600 300 600 c 0x0880
200 450 m 0x71
 172 450 150 472 150 500 c 0
 150 528 172 550 200 550 c 0
 228 550 250 528 250 500 c 0
 250 472 228 450 200 450 c 0x71
200 300 m 0
 172 300 150 322 150 350 c 0
 150 378 172 400 200 400 c 0
 228 400 250 378 250 350 c 0
 250 322 228 300 200 300 c 0
200 150 m 0
 172 150 150 172 150 200 c 0
 150 228 172 250 200 250 c 0
 228 250 250 228 250 200 c 0
 250 172 228 150 200 150 c 0
100 0 m 0x82
 72 0 50 22 50 50 c 0
 50 78 72 100 100 100 c 0
 128 100 150 78 150 50 c 0
 150 22 128 0 100 0 c 0x82
200 0 m 0x81
 172 0 150 22 150 50 c 0
 150 78 172 100 200 100 c 0
 228 100 250 78 250 50 c 0
 250 22 228 0 200 0 c 0x81
300 0 m 0x8080
 272 0 250 22 250 50 c 0
 250 78 272 100 300 100 c 0
 328 100 350 78 350 50 c 0
 350 22 328 0 300 0 c 0x8080
EndSplineSet
EndChar

StartChar: Idotaccent
Encoding: 304 304 42
Width: 400
GlyphClass: 1
Flags: MW
HStem: 0 100<86 114 186 214 286 314> 150 100<186 214> 300 100<186 214> 450 100<186 214> 600 100<86 114 186 214 286 314> 900 100<186 214>
VStem: 50 100<36 64 636 664> 150 100<36 64 36 64 186 214 336 364 486 514 636 664 636 664 936 964> 250 100<36 64 36 64 636 664 636 664>
LayerCount: 2
Fore
SplineSet
200 900 m 0xfd
 172 900 150 922 150 950 c 0
 150 978 172 1000 200 1000 c 0
 228 1000 250 978 250 950 c 0
 250 922 228 900 200 900 c 0xfd
100 600 m 0x0a
 72 600 50 622 50 650 c 0
 50 678 72 700 100 700 c 0
 128 700 150 678 150 650 c 0
 150 622 128 600 100 600 c 0x0a
200 600 m 0x09
 172 600 150 622 150 650 c 0
 150 678 172 700 200 700 c 0
 228 700 250 678 250 650 c 0
 250 622 228 600 200 600 c 0x09
300 600 m 0x0880
 272 600 250 622 250 650 c 0
 250 678 272 700 300 700 c 0
 328 700 350 678 350 650 c 0
 350 622 328 600 300 600 c 0x0880
200 450 m 0x71
 172 450 150 472 150 500 c 0
 150 528 172 550 200 550 c 0
 228 550 250 528 250 500 c 0
 250 472 228 450 200 450 c 0x71
200 300 m 0
 172 300 150 322 150 350 c 0
 150 378 172 400 200 400 c 0
 228 400 250 378 250 350 c 0
 250 322 228 300 200 300 c 0
200 150 m 0
 172 150 150 172 150 200 c 0
 150 228 172 250 200 250 c 0
 228 250 250 228 250 200 c 0
 250 172 228 150 200 150 c 0
100 0 m 0x82
 72 0 50 22 50 50 c 0
 50 78 72 100 100 100 c 0
 128 100 150 78 150 50 c 0
 150 22 128 0 100 0 c 0x82
200 0 m 0x81
 172 0 150 22 150 50 c 0
 150 78 172 100 200 100 c 0
 228 100 250 78 250 50 c 0
 250 22 228 0 200 0 c 0x81
300 0 m 0x8080
 272 0 250 22 250 50 c 0
 250 78 272 100 300 100 c 0
 328 100 350 78 350 50 c 0
 350 22 328 0 300 0 c 0x8080
EndSplineSet
EndChar

StartChar: Igrave
Encoding: 204 204 43
Width: 400
GlyphClass: 1
Flags: MW
HStem: 0 100<86 114 186 214 286 314> 150 100<186 214> 300 100<186 214> 450 100<186 214> 600 100<86 114 186 214 286 314> 750 100<186 214> 900 100<86 114>
VStem: 50 100<36 64 636 664 936 964> 150 100<36 64 36 64 186 214 336 364 486 514 636 664 636 664 786 814> 250 100<36 64 36 64 636 664 636 664>
LayerCount: 2
Fore
SplineSet
100 900 m 0x03
 72 900 50 922 50 950 c 0
 50 978 72 1000 100 1000 c 0
 128 1000 150 978 150 950 c 0
 150 922 128 900 100 900 c 0x03
200 750 m 0x0480
 172 750 150 772 150 800 c 0
 150 828 172 850 200 850 c 0
 228 850 250 828 250 800 c 0
 250 772 228 750 200 750 c 0x0480
100 600 m 0x09
 72 600 50 622 50 650 c 0
 50 678 72 700 100 700 c 0
 128 700 150 678 150 650 c 0
 150 622 128 600 100 600 c 0x09
200 600 m 0x0880
 172 600 150 622 150 650 c 0
 150 678 172 700 200 700 c 0
 228 700 250 678 250 650 c 0
 250 622 228 600 200 600 c 0x0880
300 600 m 0x0840
 272 600 250 622 250 650 c 0
 250 678 272 700 300 700 c 0
 328 700 350 678 350 650 c 0
 350 622 328 600 300 600 c 0x0840
200 450 m 0x7080
 172 450 150 472 150 500 c 0
 150 528 172 550 200 550 c 0
 228 550 250 528 250 500 c 0
 250 472 228 450 200 450 c 0x7080
200 300 m 0
 172 300 150 322 150 350 c 0
 150 378 172 400 200 400 c 0
 228 400 250 378 250 350 c 0
 250 322 228 300 200 300 c 0
200 150 m 0
 172 150 150 172 150 200 c 0
 150 228 172 250 200 250 c 0
 228 250 250 228 250 200 c 0
 250 172 228 150 200 150 c 0
100 0 m 0x81
 72 0 50 22 50 50 c 0
 50 78 72 100 100 100 c 0
 128 100 150 78 150 50 c 0
 150 22 128 0 100 0 c 0x81
200 0 m 0x8080
 172 0 150 22 150 50 c 0
 150 78 172 100 200 100 c 0
 228 100 250 78 250 50 c 0
 250 22 228 0 200 0 c 0x8080
300 0 m 0x8040
 272 0 250 22 250 50 c 0
 250 78 272 100 300 100 c 0
 328 100 350 78 350 50 c 0
 350 22 328 0 300 0 c 0x8040
EndSplineSet
EndChar

StartChar: Imacron
Encoding: 298 298 44
Width: 400
GlyphClass: 1
Flags: MW
HStem: 0 100<86 114 186 214 286 314> 150 100<186 214> 300 100<186 214> 450 100<186 214> 600 100<86 114 186 214 286 314> 900 100<86 114 186 214 286 314>
VStem: 50 100<36 64 636 664 936 964> 150 100<36 64 36 64 186 214 336 364 486 514 636 664 636 664 936 964 936 964> 250 100<36 64 36 64 636 664 636 664 936 964 936 964>
LayerCount: 2
Fore
SplineSet
100 900 m 0x06
 72 900 50 922 50 950 c 0
 50 978 72 1000 100 1000 c 0
 128 1000 150 978 150 950 c 0
 150 922 128 900 100 900 c 0x06
200 900 m 0x05
 172 900 150 922 150 950 c 0
 150 978 172 1000 200 1000 c 0
 228 1000 250 978 250 950 c 0
 250 922 228 900 200 900 c 0x05
300 900 m 0x0e80
 272 900 250 922 250 950 c 0
 250 978 272 1000 300 1000 c 0
 328 1000 350 978 350 950 c 0
 350 922 328 900 300 900 c 0x0e80
100 600 m 0
 72 600 50 622 50 650 c 0
 50 678 72 700 100 700 c 0
 128 700 150 678 150 650 c 0
 150 622 128 600 100 600 c 0
200 600 m 0x09
 172 600 150 622 150 650 c 0
 150 678 172 700 200 700 c 0
 228 700 250 678 250 650 c 0
 250 622 228 600 200 600 c 0x09
300 600 m 0x0880
 272 600 250 622 250 650 c 0
 250 678 272 700 300 700 c 0
 328 700 350 678 350 650 c 0
 350 622 328 600 300 600 c 0x0880
200 450 m 0x71
 172 450 150 472 150 500 c 0
 150 528 172 550 200 550 c 0
 228 550 250 528 250 500 c 0
 250 472 228 450 200 450 c 0x71
200 300 m 0
 172 300 150 322 150 350 c 0
 150 378 172 400 200 400 c 0
 228 400 250 378 250 350 c 0
 250 322 228 300 200 300 c 0
200 150 m 0
 172 150 150 172 150 200 c 0
 150 228 172 250 200 250 c 0
 228 250 250 228 250 200 c 0
 250 172 228 150 200 150 c 0
100 0 m 0x82
 72 0 50 22 50 50 c 0
 50 78 72 100 100 100 c 0
 128 100 150 78 150 50 c 0
 150 22 128 0 100 0 c 0x82
200 0 m 0x81
 172 0 150 22 150 50 c 0
 150 78 172 100 200 100 c 0
 228 100 250 78 250 50 c 0
 250 22 228 0 200 0 c 0x81
300 0 m 0x8080
 272 0 250 22 250 50 c 0
 250 78 272 100 300 100 c 0
 328 100 350 78 350 50 c 0
 350 22 328 0 300 0 c 0x8080
EndSplineSet
EndChar

StartChar: Iogonek
Encoding: 302 302 45
Width: 400
GlyphClass: 1
Flags: MW
HStem: -300 100<186 214 286 314> -150 100<186 214> 0 100<86 114 186 214 286 314> 150 100<186 214> 300 100<186 214> 450 100<186 214> 600 100<86 114 186 214 286 314>
VStem: 50 100<36 64 636 664> 150 100<-264 -236 -114 -86 36 64 36 64 186 214 336 364 486 514 636 664 636 664> 250 100<-264 -236 -264 -236 36 64 36 64 636 664 636 664>
LayerCount: 2
Fore
SplineSet
100 600 m 0x03
 72 600 50 622 50 650 c 0
 50 678 72 700 100 700 c 0
 128 700 150 678 150 650 c 0
 150 622 128 600 100 600 c 0x03
200 600 m 0x0280
 172 600 150 622 150 650 c 0
 150 678 172 700 200 700 c 0
 228 700 250 678 250 650 c 0
 250 622 228 600 200 600 c 0x0280
300 600 m 0x0240
 272 600 250 622 250 650 c 0
 250 678 272 700 300 700 c 0
 328 700 350 678 350 650 c 0
 350 622 328 600 300 600 c 0x0240
200 450 m 0x1c80
 172 450 150 472 150 500 c 0
 150 528 172 550 200 550 c 0
 228 550 250 528 250 500 c 0
 250 472 228 450 200 450 c 0x1c80
200 300 m 0
 172 300 150 322 150 350 c 0
 150 378 172 400 200 400 c 0
 228 400 250 378 250 350 c 0
 250 322 228 300 200 300 c 0
200 150 m 0
 172 150 150 172 150 200 c 0
 150 228 172 250 200 250 c 0
 228 250 250 228 250 200 c 0
 250 172 228 150 200 150 c 0
100 0 m 0x21
 72 0 50 22 50 50 c 0
 50 78 72 100 100 100 c 0
 128 100 150 78 150 50 c 0
 150 22 128 0 100 0 c 0x21
200 0 m 0x2080
 172 0 150 22 150 50 c 0
 150 78 172 100 200 100 c 0
 228 100 250 78 250 50 c 0
 250 22 228 0 200 0 c 0x2080
300 0 m 0x2040
 272 0 250 22 250 50 c 0
 250 78 272 100 300 100 c 0
 328 100 350 78 350 50 c 0
 350 22 328 0 300 0 c 0x2040
200 -150 m 0xc080
 172 -150 150 -128 150 -100 c 0
 150 -72 172 -50 200 -50 c 0
 228 -50 250 -72 250 -100 c 0
 250 -128 228 -150 200 -150 c 0xc080
200 -300 m 0
 172 -300 150 -278 150 -250 c 0
 150 -222 172 -200 200 -200 c 0
 228 -200 250 -222 250 -250 c 0
 250 -278 228 -300 200 -300 c 0
300 -300 m 0x8040
 272 -300 250 -278 250 -250 c 0
 250 -222 272 -200 300 -200 c 0
 328 -200 350 -222 350 -250 c 0
 350 -278 328 -300 300 -300 c 0x8040
EndSplineSet
EndChar

StartChar: J
Encoding: 74 74 46
Width: 400
GlyphClass: 1
Flags: MW
HStem: 0 100<186 214> 150 100<86 114 286 314> 300 100<286 314> 450 100<286 314> 600 100<286 314>
VStem: 50 100<186 214> 150 100<36 64 186 214> 250 100<186 214 336 364 486 514 636 664>
LayerCount: 2
Fore
SplineSet
300 600 m 0xfd
 272 600 250 622 250 650 c 0
 250 678 272 700 300 700 c 0
 328 700 350 678 350 650 c 0
 350 622 328 600 300 600 c 0xfd
300 450 m 0
 272 450 250 472 250 500 c 0
 250 528 272 550 300 550 c 0
 328 550 350 528 350 500 c 0
 350 472 328 450 300 450 c 0
300 300 m 0
 272 300 250 322 250 350 c 0
 250 378 272 400 300 400 c 0
 328 400 350 378 350 350 c 0
 350 322 328 300 300 300 c 0
100 150 m 0
 72 150 50 172 50 200 c 0
 50 228 72 250 100 250 c 0
 128 250 150 228 150 200 c 0
 150 172 128 150 100 150 c 0
300 150 m 0
 272 150 250 172 250 200 c 0
 250 228 272 250 300 250 c 0
 328 250 350 228 350 200 c 0
 350 172 328 150 300 150 c 0
200 0 m 0x82
 172 0 150 22 150 50 c 0
 150 78 172 100 200 100 c 0
 228 100 250 78 250 50 c 0
 250 22 228 0 200 0 c 0x82
EndSplineSet
EndChar

StartChar: K
Encoding: 75 75 47
Width: 400
GlyphClass: 1
Flags: MW
HStem: 0 100<86 114 286 314> 150 100<86 114 286 314> 300 100<86 114 186 214> 450 100<86 114 286 314> 600 100<86 114 286 314>
VStem: 50 100<36 64 186 214 336 364 486 514 636 664> 150 100<36 64 186 214 336 364 336 364 486 514 636 664> 250 100<36 64 186 214 486 514 636 664>
LayerCount: 2
Fore
SplineSet
100 600 m 0xfd
 72 600 50 622 50 650 c 0
 50 678 72 700 100 700 c 0
 128 700 150 678 150 650 c 0
 150 622 128 600 100 600 c 0xfd
300 600 m 0
 272 600 250 622 250 650 c 0
 250 678 272 700 300 700 c 0
 328 700 350 678 350 650 c 0
 350 622 328 600 300 600 c 0
100 450 m 0
 72 450 50 472 50 500 c 0
 50 528 72 550 100 550 c 0
 128 550 150 528 150 500 c 0
 150 472 128 450 100 450 c 0
300 450 m 0
 272 450 250 472 250 500 c 0
 250 528 272 550 300 550 c 0
 328 550 350 528 350 500 c 0
 350 472 328 450 300 450 c 0
100 300 m 0
 72 300 50 322 50 350 c 0
 50 378 72 400 100 400 c 0
 128 400 150 378 150 350 c 0
 150 322 128 300 100 300 c 0
200 300 m 0x22
 172 300 150 322 150 350 c 0
 150 378 172 400 200 400 c 0
 228 400 250 378 250 350 c 0
 250 322 228 300 200 300 c 0x22
100 150 m 0xc5
 72 150 50 172 50 200 c 0
 50 228 72 250 100 250 c 0
 128 250 150 228 150 200 c 0
 150 172 128 150 100 150 c 0xc5
300 150 m 0
 272 150 250 172 250 200 c 0
 250 228 272 250 300 250 c 0
 328 250 350 228 350 200 c 0
 350 172 328 150 300 150 c 0
100 0 m 0
 72 0 50 22 50 50 c 0
 50 78 72 100 100 100 c 0
 128 100 150 78 150 50 c 0
 150 22 128 0 100 0 c 0
300 0 m 0
 272 0 250 22 250 50 c 0
 250 78 272 100 300 100 c 0
 328 100 350 78 350 50 c 0
 350 22 328 0 300 0 c 0
EndSplineSet
EndChar

StartChar: uni0136
Encoding: 310 310 48
Width: 400
GlyphClass: 1
Flags: MW
HStem: -300 100<86 114> -150 100<186 214> 0 100<86 114 286 314> 150 100<86 114 286 314> 300 100<86 114 186 214> 450 100<86 114 286 314> 600 100<86 114 286 314>
VStem: 50 100<-264 -236 36 64 186 214 336 364 486 514 636 664> 150 100<-114 -86 36 64 186 214 336 364 336 364 486 514 636 664> 250 100<36 64 186 214 486 514 636 664>
LayerCount: 2
Fore
SplineSet
100 600 m 0xff40
 72 600 50 622 50 650 c 0
 50 678 72 700 100 700 c 0
 128 700 150 678 150 650 c 0
 150 622 128 600 100 600 c 0xff40
300 600 m 0
 272 600 250 622 250 650 c 0
 250 678 272 700 300 700 c 0
 328 700 350 678 350 650 c 0
 350 622 328 600 300 600 c 0
100 450 m 0
 72 450 50 472 50 500 c 0
 50 528 72 550 100 550 c 0
 128 550 150 528 150 500 c 0
 150 472 128 450 100 450 c 0
300 450 m 0
 272 450 250 472 250 500 c 0
 250 528 272 550 300 550 c 0
 328 550 350 528 350 500 c 0
 350 472 328 450 300 450 c 0
100 300 m 0
 72 300 50 322 50 350 c 0
 50 378 72 400 100 400 c 0
 128 400 150 378 150 350 c 0
 150 322 128 300 100 300 c 0
200 300 m 0x0880
 172 300 150 322 150 350 c 0
 150 378 172 400 200 400 c 0
 228 400 250 378 250 350 c 0
 250 322 228 300 200 300 c 0x0880
100 150 m 0x3140
 72 150 50 172 50 200 c 0
 50 228 72 250 100 250 c 0
 128 250 150 228 150 200 c 0
 150 172 128 150 100 150 c 0x3140
300 150 m 0
 272 150 250 172 250 200 c 0
 250 228 272 250 300 250 c 0
 328 250 350 228 350 200 c 0
 350 172 328 150 300 150 c 0
100 0 m 0
 72 0 50 22 50 50 c 0
 50 78 72 100 100 100 c 0
 128 100 150 78 150 50 c 0
 150 22 128 0 100 0 c 0
300 0 m 0
 272 0 250 22 250 50 c 0
 250 78 272 100 300 100 c 0
 328 100 350 78 350 50 c 0
 350 22 328 0 300 0 c 0
200 -150 m 0x4080
 172 -150 150 -128 150 -100 c 0
 150 -72 172 -50 200 -50 c 0
 228 -50 250 -72 250 -100 c 0
 250 -128 228 -150 200 -150 c 0x4080
100 -300 m 0x81
 72 -300 50 -278 50 -250 c 0
 50 -222 72 -200 100 -200 c 0
 128 -200 150 -222 150 -250 c 0
 150 -278 128 -300 100 -300 c 0x81
EndSplineSet
EndChar

StartChar: L
Encoding: 76 76 49
Width: 400
GlyphClass: 1
Flags: MW
HStem: 0 100<86 114 186 214 286 314> 150 100<86 114> 300 100<86 114> 450 100<86 114> 600 100<86 114>
VStem: 50 100<36 64 186 214 336 364 486 514 636 664> 150 100<36 64 36 64> 250 100<36 64 36 64>
LayerCount: 2
Fore
SplineSet
100 600 m 0xfd
 72 600 50 622 50 650 c 0
 50 678 72 700 100 700 c 0
 128 700 150 678 150 650 c 0
 150 622 128 600 100 600 c 0xfd
100 450 m 0
 72 450 50 472 50 500 c 0
 50 528 72 550 100 550 c 0
 128 550 150 528 150 500 c 0
 150 472 128 450 100 450 c 0
100 300 m 0
 72 300 50 322 50 350 c 0
 50 378 72 400 100 400 c 0
 128 400 150 378 150 350 c 0
 150 322 128 300 100 300 c 0
100 150 m 0
 72 150 50 172 50 200 c 0
 50 228 72 250 100 250 c 0
 128 250 150 228 150 200 c 0
 150 172 128 150 100 150 c 0
100 0 m 0
 72 0 50 22 50 50 c 0
 50 78 72 100 100 100 c 0
 128 100 150 78 150 50 c 0
 150 22 128 0 100 0 c 0
200 0 m 0x82
 172 0 150 22 150 50 c 0
 150 78 172 100 200 100 c 0
 228 100 250 78 250 50 c 0
 250 22 228 0 200 0 c 0x82
300 0 m 0x81
 272 0 250 22 250 50 c 0
 250 78 272 100 300 100 c 0
 328 100 350 78 350 50 c 0
 350 22 328 0 300 0 c 0x81
EndSplineSet
EndChar

StartChar: Lacute
Encoding: 313 313 50
Width: 400
GlyphClass: 1
Flags: MW
HStem: 0 100<86 114 186 214 286 314> 150 100<86 114> 300 100<86 114> 450 100<86 114> 600 100<86 114> 750 100<186 214> 900 100<286 314>
VStem: 50 100<36 64 186 214 336 364 486 514 636 664> 150 100<36 64 36 64 786 814> 250 100<36 64 36 64 936 964>
LayerCount: 2
Fore
SplineSet
300 900 m 0xff40
 272 900 250 922 250 950 c 0
 250 978 272 1000 300 1000 c 0
 328 1000 350 978 350 950 c 0
 350 922 328 900 300 900 c 0xff40
200 750 m 0x0480
 172 750 150 772 150 800 c 0
 150 828 172 850 200 850 c 0
 228 850 250 828 250 800 c 0
 250 772 228 750 200 750 c 0x0480
100 600 m 0xf9
 72 600 50 622 50 650 c 0
 50 678 72 700 100 700 c 0
 128 700 150 678 150 650 c 0
 150 622 128 600 100 600 c 0xf9
100 450 m 0
 72 450 50 472 50 500 c 0
 50 528 72 550 100 550 c 0
 128 550 150 528 150 500 c 0
 150 472 128 450 100 450 c 0
100 300 m 0
 72 300 50 322 50 350 c 0
 50 378 72 400 100 400 c 0
 128 400 150 378 150 350 c 0
 150 322 128 300 100 300 c 0
100 150 m 0
 72 150 50 172 50 200 c 0
 50 228 72 250 100 250 c 0
 128 250 150 228 150 200 c 0
 150 172 128 150 100 150 c 0
100 0 m 0
 72 0 50 22 50 50 c 0
 50 78 72 100 100 100 c 0
 128 100 150 78 150 50 c 0
 150 22 128 0 100 0 c 0
200 0 m 0x8080
 172 0 150 22 150 50 c 0
 150 78 172 100 200 100 c 0
 228 100 250 78 250 50 c 0
 250 22 228 0 200 0 c 0x8080
300 0 m 0x8040
 272 0 250 22 250 50 c 0
 250 78 272 100 300 100 c 0
 328 100 350 78 350 50 c 0
 350 22 328 0 300 0 c 0x8040
EndSplineSet
EndChar

StartChar: Lcaron
Encoding: 317 317 51
Width: 400
GlyphClass: 1
Flags: MW
HStem: 0 100<86 114 186 214 286 314> 150 100<86 114> 300 100<86 114> 450 100<86 114> 600 100<86 114 286 314> 750 100<286 314>
VStem: 50 100<36 64 186 214 336 364 486 514 636 664> 150 100<36 64 36 64 636 664> 250 100<36 64 36 64 636 664 786 814>
LayerCount: 2
Fore
SplineSet
300 750 m 0xfe80
 272 750 250 772 250 800 c 0
 250 828 272 850 300 850 c 0
 328 850 350 828 350 800 c 0
 350 772 328 750 300 750 c 0xfe80
100 600 m 0
 72 600 50 622 50 650 c 0
 50 678 72 700 100 700 c 0
 128 700 150 678 150 650 c 0
 150 622 128 600 100 600 c 0
300 600 m 0
 272 600 250 622 250 650 c 0
 250 678 272 700 300 700 c 0
 328 700 350 678 350 650 c 0
 350 622 328 600 300 600 c 0
100 450 m 0
 72 450 50 472 50 500 c 0
 50 528 72 550 100 550 c 0
 128 550 150 528 150 500 c 0
 150 472 128 450 100 450 c 0
100 300 m 0
 72 300 50 322 50 350 c 0
 50 378 72 400 100 400 c 0
 128 400 150 378 150 350 c 0
 150 322 128 300 100 300 c 0
100 150 m 0
 72 150 50 172 50 200 c 0
 50 228 72 250 100 250 c 0
 128 250 150 228 150 200 c 0
 150 172 128 150 100 150 c 0
100 0 m 0
 72 0 50 22 50 50 c 0
 50 78 72 100 100 100 c 0
 128 100 150 78 150 50 c 0
 150 22 128 0 100 0 c 0
200 0 m 0x81
 172 0 150 22 150 50 c 0
 150 78 172 100 200 100 c 0
 228 100 250 78 250 50 c 0
 250 22 228 0 200 0 c 0x81
300 0 m 0x8080
 272 0 250 22 250 50 c 0
 250 78 272 100 300 100 c 0
 328 100 350 78 350 50 c 0
 350 22 328 0 300 0 c 0x8080
EndSplineSet
EndChar

StartChar: uni013B
Encoding: 315 315 52
Width: 400
GlyphClass: 1
Flags: MW
HStem: -300 100<86 114> -150 100<186 214> 0 100<86 114 186 214 286 314> 150 100<86 114> 300 100<86 114> 450 100<86 114> 600 100<86 114>
VStem: 50 100<-264 -236 36 64 186 214 336 364 486 514 636 664> 150 100<-114 -86 36 64 36 64> 250 100<36 64 36 64>
LayerCount: 2
Fore
SplineSet
100 600 m 0xff40
 72 600 50 622 50 650 c 0
 50 678 72 700 100 700 c 0
 128 700 150 678 150 650 c 0
 150 622 128 600 100 600 c 0xff40
100 450 m 0
 72 450 50 472 50 500 c 0
 50 528 72 550 100 550 c 0
 128 550 150 528 150 500 c 0
 150 472 128 450 100 450 c 0
100 300 m 0
 72 300 50 322 50 350 c 0
 50 378 72 400 100 400 c 0
 128 400 150 378 150 350 c 0
 150 322 128 300 100 300 c 0
100 150 m 0
 72 150 50 172 50 200 c 0
 50 228 72 250 100 250 c 0
 128 250 150 228 150 200 c 0
 150 172 128 150 100 150 c 0
100 0 m 0
 72 0 50 22 50 50 c 0
 50 78 72 100 100 100 c 0
 128 100 150 78 150 50 c 0
 150 22 128 0 100 0 c 0
200 0 m 0x2080
 172 0 150 22 150 50 c 0
 150 78 172 100 200 100 c 0
 228 100 250 78 250 50 c 0
 250 22 228 0 200 0 c 0x2080
300 0 m 0x2040
 272 0 250 22 250 50 c 0
 250 78 272 100 300 100 c 0
 328 100 350 78 350 50 c 0
 350 22 328 0 300 0 c 0x2040
200 -150 m 0x4080
 172 -150 150 -128 150 -100 c 0
 150 -72 172 -50 200 -50 c 0
 228 -50 250 -72 250 -100 c 0
 250 -128 228 -150 200 -150 c 0x4080
100 -300 m 0x81
 72 -300 50 -278 50 -250 c 0
 50 -222 72 -200 100 -200 c 0
 128 -200 150 -222 150 -250 c 0
 150 -278 128 -300 100 -300 c 0x81
EndSplineSet
EndChar

StartChar: Lslash
Encoding: 321 321 53
Width: 500
GlyphClass: 1
Flags: MW
HStem: 0 100<186 214 286 314 386 414> 150 100<86 114 186 214> 300 100<186 214> 450 100<186 214 286 314> 600 100<186 214 386 414>
VStem: 50 100<186 214> 150 100<36 64 186 214 186 214 336 364 486 514 636 664> 250 100<36 64 36 64 486 514 486 514 636 664> 350 100<36 64 36 64 636 664>
LayerCount: 2
Fore
SplineSet
200 600 m 0xfa80
 172 600 150 622 150 650 c 0
 150 678 172 700 200 700 c 0
 228 700 250 678 250 650 c 0
 250 622 228 600 200 600 c 0xfa80
400 600 m 0
 372 600 350 622 350 650 c 0
 350 678 372 700 400 700 c 0
 428 700 450 678 450 650 c 0
 450 622 428 600 400 600 c 0
200 450 m 0
 172 450 150 472 150 500 c 0
 150 528 172 550 200 550 c 0
 228 550 250 528 250 500 c 0
 250 472 228 450 200 450 c 0
300 450 m 0x11
 272 450 250 472 250 500 c 0
 250 528 272 550 300 550 c 0
 328 550 350 528 350 500 c 0
 350 472 328 450 300 450 c 0x11
200 300 m 0x22
 172 300 150 322 150 350 c 0
 150 378 172 400 200 400 c 0
 228 400 250 378 250 350 c 0
 250 322 228 300 200 300 c 0x22
100 150 m 0x44
 72 150 50 172 50 200 c 0
 50 228 72 250 100 250 c 0
 128 250 150 228 150 200 c 0
 150 172 128 150 100 150 c 0x44
200 150 m 0xc2
 172 150 150 172 150 200 c 0
 150 228 172 250 200 250 c 0
 228 250 250 228 250 200 c 0
 250 172 228 150 200 150 c 0xc2
200 0 m 0
 172 0 150 22 150 50 c 0
 150 78 172 100 200 100 c 0
 228 100 250 78 250 50 c 0
 250 22 228 0 200 0 c 0
300 0 m 0x81
 272 0 250 22 250 50 c 0
 250 78 272 100 300 100 c 0
 328 100 350 78 350 50 c 0
 350 22 328 0 300 0 c 0x81
400 0 m 0x8080
 372 0 350 22 350 50 c 0
 350 78 372 100 400 100 c 0
 428 100 450 78 450 50 c 0
 450 22 428 0 400 0 c 0x8080
EndSplineSet
EndChar

StartChar: M
Encoding: 77 77 54
Width: 400
GlyphClass: 1
Flags: MW
HStem: 0 100<86 114 286 314> 150 100<86 114 286 314> 300 100<86 114 186 214 286 314> 450 100<86 114 186 214 286 314> 600 100<86 114 286 314>
VStem: 50 100<36 64 186 214 336 364 486 514 636 664> 150 100<36 64 186 214 336 364 336 364 486 514 486 514 636 664> 250 100<36 64 186 214 336 364 336 364 486 514 486 514 636 664>
LayerCount: 2
Fore
SplineSet
100 600 m 0xfd
 72 600 50 622 50 650 c 0
 50 678 72 700 100 700 c 0
 128 700 150 678 150 650 c 0
 150 622 128 600 100 600 c 0xfd
300 600 m 0
 272 600 250 622 250 650 c 0
 250 678 272 700 300 700 c 0
 328 700 350 678 350 650 c 0
 350 622 328 600 300 600 c 0
100 450 m 0
 72 450 50 472 50 500 c 0
 50 528 72 550 100 550 c 0
 128 550 150 528 150 500 c 0
 150 472 128 450 100 450 c 0
200 450 m 0x12
 172 450 150 472 150 500 c 0
 150 528 172 550 200 550 c 0
 228 550 250 528 250 500 c 0
 250 472 228 450 200 450 c 0x12
300 450 m 0x35
 272 450 250 472 250 500 c 0
 250 528 272 550 300 550 c 0
 328 550 350 528 350 500 c 0
 350 472 328 450 300 450 c 0x35
100 300 m 0
 72 300 50 322 50 350 c 0
 50 378 72 400 100 400 c 0
 128 400 150 378 150 350 c 0
 150 322 128 300 100 300 c 0
200 300 m 0x22
 172 300 150 322 150 350 c 0
 150 378 172 400 200 400 c 0
 228 400 250 378 250 350 c 0
 250 322 228 300 200 300 c 0x22
300 300 m 0xe5
 272 300 250 322 250 350 c 0
 250 378 272 400 300 400 c 0
 328 400 350 378 350 350 c 0
 350 322 328 300 300 300 c 0xe5
100 150 m 0
 72 150 50 172 50 200 c 0
 50 228 72 250 100 250 c 0
 128 250 150 228 150 200 c 0
 150 172 128 150 100 150 c 0
300 150 m 0
 272 150 250 172 250 200 c 0
 250 228 272 250 300 250 c 0
 328 250 350 228 350 200 c 0
 350 172 328 150 300 150 c 0
100 0 m 0
 72 0 50 22 50 50 c 0
 50 78 72 100 100 100 c 0
 128 100 150 78 150 50 c 0
 150 22 128 0 100 0 c 0
300 0 m 0
 272 0 250 22 250 50 c 0
 250 78 272 100 300 100 c 0
 328 100 350 78 350 50 c 0
 350 22 328 0 300 0 c 0
EndSplineSet
EndChar

StartChar: N
Encoding: 78 78 55
Width: 400
GlyphClass: 1
Flags: MW
HStem: 0 100<86 114 286 314> 150 100<86 114 186 214 286 314> 300 100<86 114 186 214 286 314> 450 100<86 114 186 214 286 314> 600 100<86 114 286 314>
VStem: 50 100<36 64 186 214 336 364 486 514 636 664> 150 100<36 64 186 214 186 214 336 364 336 364 486 514 486 514 636 664> 250 100<36 64 186 214 186 214 336 364 336 364 486 514 486 514 636 664>
LayerCount: 2
Fore
SplineSet
100 600 m 0xfd
 72 600 50 622 50 650 c 0
 50 678 72 700 100 700 c 0
 128 700 150 678 150 650 c 0
 150 622 128 600 100 600 c 0xfd
300 600 m 0
 272 600 250 622 250 650 c 0
 250 678 272 700 300 700 c 0
 328 700 350 678 350 650 c 0
 350 622 328 600 300 600 c 0
100 450 m 0
 72 450 50 472 50 500 c 0
 50 528 72 550 100 550 c 0
 128 550 150 528 150 500 c 0
 150 472 128 450 100 450 c 0
200 450 m 0x12
 172 450 150 472 150 500 c 0
 150 528 172 550 200 550 c 0
 228 550 250 528 250 500 c 0
 250 472 228 450 200 450 c 0x12
300 450 m 0x35
 272 450 250 472 250 500 c 0
 250 528 272 550 300 550 c 0
 328 550 350 528 350 500 c 0
 350 472 328 450 300 450 c 0x35
100 300 m 0
 72 300 50 322 50 350 c 0
 50 378 72 400 100 400 c 0
 128 400 150 378 150 350 c 0
 150 322 128 300 100 300 c 0
200 300 m 0x22
 172 300 150 322 150 350 c 0
 150 378 172 400 200 400 c 0
 228 400 250 378 250 350 c 0
 250 322 228 300 200 300 c 0x22
300 300 m 0x65
 272 300 250 322 250 350 c 0
 250 378 272 400 300 400 c 0
 328 400 350 378 350 350 c 0
 350 322 328 300 300 300 c 0x65
100 150 m 0
 72 150 50 172 50 200 c 0
 50 228 72 250 100 250 c 0
 128 250 150 228 150 200 c 0
 150 172 128 150 100 150 c 0
200 150 m 0x42
 172 150 150 172 150 200 c 0
 150 228 172 250 200 250 c 0
 228 250 250 228 250 200 c 0
 250 172 228 150 200 150 c 0x42
300 150 m 0xc5
 272 150 250 172 250 200 c 0
 250 228 272 250 300 250 c 0
 328 250 350 228 350 200 c 0
 350 172 328 150 300 150 c 0xc5
100 0 m 0
 72 0 50 22 50 50 c 0
 50 78 72 100 100 100 c 0
 128 100 150 78 150 50 c 0
 150 22 128 0 100 0 c 0
300 0 m 0
 272 0 250 22 250 50 c 0
 250 78 272 100 300 100 c 0
 328 100 350 78 350 50 c 0
 350 22 328 0 300 0 c 0
EndSplineSet
EndChar

StartChar: Nacute
Encoding: 323 323 56
Width: 400
GlyphClass: 1
Flags: MW
HStem: 0 100<86 114 286 314> 150 100<86 114 186 214 286 314> 300 100<86 114 186 214 286 314> 450 100<86 114 186 214 286 314> 600 100<86 114 286 314> 750 100<186 214> 900 100<286 314>
VStem: 50 100<36 64 186 214 336 364 486 514 636 664> 150 100<36 64 186 214 186 214 336 364 336 364 486 514 486 514 636 664 786 814> 250 100<36 64 186 214 186 214 336 364 336 364 486 514 486 514 636 664 936 964>
LayerCount: 2
Fore
SplineSet
300 900 m 0xff40
 272 900 250 922 250 950 c 0
 250 978 272 1000 300 1000 c 0
 328 1000 350 978 350 950 c 0
 350 922 328 900 300 900 c 0xff40
200 750 m 0x0480
 172 750 150 772 150 800 c 0
 150 828 172 850 200 850 c 0
 228 850 250 828 250 800 c 0
 250 772 228 750 200 750 c 0x0480
100 600 m 0x1940
 72 600 50 622 50 650 c 0
 50 678 72 700 100 700 c 0
 128 700 150 678 150 650 c 0
 150 622 128 600 100 600 c 0x1940
300 600 m 0
 272 600 250 622 250 650 c 0
 250 678 272 700 300 700 c 0
 328 700 350 678 350 650 c 0
 350 622 328 600 300 600 c 0
100 450 m 0
 72 450 50 472 50 500 c 0
 50 528 72 550 100 550 c 0
 128 550 150 528 150 500 c 0
 150 472 128 450 100 450 c 0
200 450 m 0x1080
 172 450 150 472 150 500 c 0
 150 528 172 550 200 550 c 0
 228 550 250 528 250 500 c 0
 250 472 228 450 200 450 c 0x1080
300 450 m 0x3140
 272 450 250 472 250 500 c 0
 250 528 272 550 300 550 c 0
 328 550 350 528 350 500 c 0
 350 472 328 450 300 450 c 0x3140
100 300 m 0
 72 300 50 322 50 350 c 0
 50 378 72 400 100 400 c 0
 128 400 150 378 150 350 c 0
 150 322 128 300 100 300 c 0
200 300 m 0x2080
 172 300 150 322 150 350 c 0
 150 378 172 400 200 400 c 0
 228 400 250 378 250 350 c 0
 250 322 228 300 200 300 c 0x2080
300 300 m 0x6140
 272 300 250 322 250 350 c 0
 250 378 272 400 300 400 c 0
 328 400 350 378 350 350 c 0
 350 322 328 300 300 300 c 0x6140
100 150 m 0
 72 150 50 172 50 200 c 0
 50 228 72 250 100 250 c 0
 128 250 150 228 150 200 c 0
 150 172 128 150 100 150 c 0
200 150 m 0x4080
 172 150 150 172 150 200 c 0
 150 228 172 250 200 250 c 0
 228 250 250 228 250 200 c 0
 250 172 228 150 200 150 c 0x4080
300 150 m 0xc140
 272 150 250 172 250 200 c 0
 250 228 272 250 300 250 c 0
 328 250 350 228 350 200 c 0
 350 172 328 150 300 150 c 0xc140
100 0 m 0
 72 0 50 22 50 50 c 0
 50 78 72 100 100 100 c 0
 128 100 150 78 150 50 c 0
 150 22 128 0 100 0 c 0
300 0 m 0
 272 0 250 22 250 50 c 0
 250 78 272 100 300 100 c 0
 328 100 350 78 350 50 c 0
 350 22 328 0 300 0 c 0
EndSplineSet
EndChar

StartChar: Ncaron
Encoding: 327 327 57
Width: 400
GlyphClass: 1
Flags: MW
HStem: 0 100<86 114 286 314> 150 100<86 114 186 214 286 314> 300 100<86 114 186 214 286 314> 450 100<86 114 186 214 286 314> 600 100<86 114 286 314> 750 100<186 214> 900 100<86 114 286 314>
VStem: 50 100<36 64 186 214 336 364 486 514 636 664 936 964> 150 100<36 64 186 214 186 214 336 364 336 364 486 514 486 514 636 664 786 814 936 964> 250 100<36 64 186 214 186 214 336 364 336 364 486 514 486 514 636 664 936 964>
LayerCount: 2
Fore
SplineSet
100 900 m 0xff40
 72 900 50 922 50 950 c 0
 50 978 72 1000 100 1000 c 0
 128 1000 150 978 150 950 c 0
 150 922 128 900 100 900 c 0xff40
300 900 m 0
 272 900 250 922 250 950 c 0
 250 978 272 1000 300 1000 c 0
 328 1000 350 978 350 950 c 0
 350 922 328 900 300 900 c 0
200 750 m 0x0480
 172 750 150 772 150 800 c 0
 150 828 172 850 200 850 c 0
 228 850 250 828 250 800 c 0
 250 772 228 750 200 750 c 0x0480
100 600 m 0x1940
 72 600 50 622 50 650 c 0
 50 678 72 700 100 700 c 0
 128 700 150 678 150 650 c 0
 150 622 128 600 100 600 c 0x1940
300 600 m 0
 272 600 250 622 250 650 c 0
 250 678 272 700 300 700 c 0
 328 700 350 678 350 650 c 0
 350 622 328 600 300 600 c 0
100 450 m 0
 72 450 50 472 50 500 c 0
 50 528 72 550 100 550 c 0
 128 550 150 528 150 500 c 0
 150 472 128 450 100 450 c 0
200 450 m 0x1080
 172 450 150 472 150 500 c 0
 150 528 172 550 200 550 c 0
 228 550 250 528 250 500 c 0
 250 472 228 450 200 450 c 0x1080
300 450 m 0x3140
 272 450 250 472 250 500 c 0
 250 528 272 550 300 550 c 0
 328 550 350 528 350 500 c 0
 350 472 328 450 300 450 c 0x3140
100 300 m 0
 72 300 50 322 50 350 c 0
 50 378 72 400 100 400 c 0
 128 400 150 378 150 350 c 0
 150 322 128 300 100 300 c 0
200 300 m 0x2080
 172 300 150 322 150 350 c 0
 150 378 172 400 200 400 c 0
 228 400 250 378 250 350 c 0
 250 322 228 300 200 300 c 0x2080
300 300 m 0x6140
 272 300 250 322 250 350 c 0
 250 378 272 400 300 400 c 0
 328 400 350 378 350 350 c 0
 350 322 328 300 300 300 c 0x6140
100 150 m 0
 72 150 50 172 50 200 c 0
 50 228 72 250 100 250 c 0
 128 250 150 228 150 200 c 0
 150 172 128 150 100 150 c 0
200 150 m 0x4080
 172 150 150 172 150 200 c 0
 150 228 172 250 200 250 c 0
 228 250 250 228 250 200 c 0
 250 172 228 150 200 150 c 0x4080
300 150 m 0xc140
 272 150 250 172 250 200 c 0
 250 228 272 250 300 250 c 0
 328 250 350 228 350 200 c 0
 350 172 328 150 300 150 c 0xc140
100 0 m 0
 72 0 50 22 50 50 c 0
 50 78 72 100 100 100 c 0
 128 100 150 78 150 50 c 0
 150 22 128 0 100 0 c 0
300 0 m 0
 272 0 250 22 250 50 c 0
 250 78 272 100 300 100 c 0
 328 100 350 78 350 50 c 0
 350 22 328 0 300 0 c 0
EndSplineSet
EndChar

StartChar: uni0145
Encoding: 325 325 58
Width: 400
GlyphClass: 1
Flags: MW
HStem: -300 100<86 114> -150 100<186 214> 0 100<86 114 286 314> 150 100<86 114 186 214 286 314> 300 100<86 114 186 214 286 314> 450 100<86 114 186 214 286 314> 600 100<86 114 286 314>
VStem: 50 100<-264 -236 36 64 186 214 336 364 486 514 636 664> 150 100<-114 -86 36 64 186 214 186 214 336 364 336 364 486 514 486 514 636 664> 250 100<36 64 186 214 186 214 336 364 336 364 486 514 486 514 636 664>
LayerCount: 2
Fore
SplineSet
100 600 m 0xff40
 72 600 50 622 50 650 c 0
 50 678 72 700 100 700 c 0
 128 700 150 678 150 650 c 0
 150 622 128 600 100 600 c 0xff40
300 600 m 0
 272 600 250 622 250 650 c 0
 250 678 272 700 300 700 c 0
 328 700 350 678 350 650 c 0
 350 622 328 600 300 600 c 0
100 450 m 0
 72 450 50 472 50 500 c 0
 50 528 72 550 100 550 c 0
 128 550 150 528 150 500 c 0
 150 472 128 450 100 450 c 0
200 450 m 0x0480
 172 450 150 472 150 500 c 0
 150 528 172 550 200 550 c 0
 228 550 250 528 250 500 c 0
 250 472 228 450 200 450 c 0x0480
300 450 m 0x0d40
 272 450 250 472 250 500 c 0
 250 528 272 550 300 550 c 0
 328 550 350 528 350 500 c 0
 350 472 328 450 300 450 c 0x0d40
100 300 m 0
 72 300 50 322 50 350 c 0
 50 378 72 400 100 400 c 0
 128 400 150 378 150 350 c 0
 150 322 128 300 100 300 c 0
200 300 m 0x0880
 172 300 150 322 150 350 c 0
 150 378 172 400 200 400 c 0
 228 400 250 378 250 350 c 0
 250 322 228 300 200 300 c 0x0880
300 300 m 0x1940
 272 300 250 322 250 350 c 0
 250 378 272 400 300 400 c 0
 328 400 350 378 350 350 c 0
 350 322 328 300 300 300 c 0x1940
100 150 m 0
 72 150 50 172 50 200 c 0
 50 228 72 250 100 250 c 0
 128 250 150 228 150 200 c 0
 150 172 128 150 100 150 c 0
200 150 m 0x1080
 172 150 150 172 150 200 c 0
 150 228 172 250 200 250 c 0
 228 250 250 228 250 200 c 0
 250 172 228 150 200 150 c 0x1080
300 150 m 0x3140
 272 150 250 172 250 200 c 0
 250 228 272 250 300 250 c 0
 328 250 350 228 350 200 c 0
 350 172 328 150 300 150 c 0x3140
100 0 m 0
 72 0 50 22 50 50 c 0
 50 78 72 100 100 100 c 0
 128 100 150 78 150 50 c 0
 150 22 128 0 100 0 c 0
300 0 m 0
 272 0 250 22 250 50 c 0
 250 78 272 100 300 100 c 0
 328 100 350 78 350 50 c 0
 350 22 328 0 300 0 c 0
200 -150 m 0x4080
 172 -150 150 -128 150 -100 c 0
 150 -72 172 -50 200 -50 c 0
 228 -50 250 -72 250 -100 c 0
 250 -128 228 -150 200 -150 c 0x4080
100 -300 m 0x81
 72 -300 50 -278 50 -250 c 0
 50 -222 72 -200 100 -200 c 0
 128 -200 150 -222 150 -250 c 0
 150 -278 128 -300 100 -300 c 0x81
EndSplineSet
EndChar

StartChar: Eng
Encoding: 330 330 59
Width: 400
GlyphClass: 1
Flags: MW
HStem: -300 100<186 214> -150 100<286 314> 0 100<86 114 286 314> 150 100<86 114 186 214 286 314> 300 100<86 114 186 214 286 314> 450 100<86 114 186 214 286 314> 600 100<86 114 286 314>
VStem: 50 100<36 64 186 214 336 364 486 514 636 664> 150 100<-264 -236 36 64 186 214 186 214 336 364 336 364 486 514 486 514 636 664> 250 100<-114 -86 36 64 186 214 186 214 336 364 336 364 486 514 486 514 636 664>
LayerCount: 2
Fore
SplineSet
100 600 m 0xff40
 72 600 50 622 50 650 c 0
 50 678 72 700 100 700 c 0
 128 700 150 678 150 650 c 0
 150 622 128 600 100 600 c 0xff40
300 600 m 0
 272 600 250 622 250 650 c 0
 250 678 272 700 300 700 c 0
 328 700 350 678 350 650 c 0
 350 622 328 600 300 600 c 0
100 450 m 0
 72 450 50 472 50 500 c 0
 50 528 72 550 100 550 c 0
 128 550 150 528 150 500 c 0
 150 472 128 450 100 450 c 0
200 450 m 0x0480
 172 450 150 472 150 500 c 0
 150 528 172 550 200 550 c 0
 228 550 250 528 250 500 c 0
 250 472 228 450 200 450 c 0x0480
300 450 m 0x0d40
 272 450 250 472 250 500 c 0
 250 528 272 550 300 550 c 0
 328 550 350 528 350 500 c 0
 350 472 328 450 300 450 c 0x0d40
100 300 m 0
 72 300 50 322 50 350 c 0
 50 378 72 400 100 400 c 0
 128 400 150 378 150 350 c 0
 150 322 128 300 100 300 c 0
200 300 m 0x0880
 172 300 150 322 150 350 c 0
 150 378 172 400 200 400 c 0
 228 400 250 378 250 350 c 0
 250 322 228 300 200 300 c 0x0880
300 300 m 0x1940
 272 300 250 322 250 350 c 0
 250 378 272 400 300 400 c 0
 328 400 350 378 350 350 c 0
 350 322 328 300 300 300 c 0x1940
100 150 m 0
 72 150 50 172 50 200 c 0
 50 228 72 250 100 250 c 0
 128 250 150 228 150 200 c 0
 150 172 128 150 100 150 c 0
200 150 m 0x1080
 172 150 150 172 150 200 c 0
 150 228 172 250 200 250 c 0
 228 250 250 228 250 200 c 0
 250 172 228 150 200 150 c 0x1080
300 150 m 0x7140
 272 150 250 172 250 200 c 0
 250 228 272 250 300 250 c 0
 328 250 350 228 350 200 c 0
 350 172 328 150 300 150 c 0x7140
100 0 m 0
 72 0 50 22 50 50 c 0
 50 78 72 100 100 100 c 0
 128 100 150 78 150 50 c 0
 150 22 128 0 100 0 c 0
300 0 m 0
 272 0 250 22 250 50 c 0
 250 78 272 100 300 100 c 0
 328 100 350 78 350 50 c 0
 350 22 328 0 300 0 c 0
300 -150 m 0
 272 -150 250 -128 250 -100 c 0
 250 -72 272 -50 300 -50 c 0
 328 -50 350 -72 350 -100 c 0
 350 -128 328 -150 300 -150 c 0
200 -300 m 0x8080
 172 -300 150 -278 150 -250 c 0
 150 -222 172 -200 200 -200 c 0
 228 -200 250 -222 250 -250 c 0
 250 -278 228 -300 200 -300 c 0x8080
EndSplineSet
EndChar

StartChar: Ntilde
Encoding: 209 209 60
Width: 400
GlyphClass: 1
Flags: MW
HStem: 0 100<86 114 286 314> 150 100<86 114 186 214 286 314> 300 100<86 114 186 214 286 314> 450 100<86 114 186 214 286 314> 600 100<86 114 286 314> 750 100<186 214 286 314> 900 100<86 114 186 214>
VStem: 50 100<36 64 186 214 336 364 486 514 636 664 936 964> 150 100<36 64 186 214 186 214 336 364 336 364 486 514 486 514 636 664 786 814 936 964 936 964> 250 100<36 64 186 214 186 214 336 364 336 364 486 514 486 514 636 664 786 814 786 814>
LayerCount: 2
Fore
SplineSet
100 900 m 0xff40
 72 900 50 922 50 950 c 0
 50 978 72 1000 100 1000 c 0
 128 1000 150 978 150 950 c 0
 150 922 128 900 100 900 c 0xff40
200 900 m 0x0680
 172 900 150 922 150 950 c 0
 150 978 172 1000 200 1000 c 0
 228 1000 250 978 250 950 c 0
 250 922 228 900 200 900 c 0x0680
200 750 m 0
 172 750 150 772 150 800 c 0
 150 828 172 850 200 850 c 0
 228 850 250 828 250 800 c 0
 250 772 228 750 200 750 c 0
300 750 m 0x1d40
 272 750 250 772 250 800 c 0
 250 828 272 850 300 850 c 0
 328 850 350 828 350 800 c 0
 350 772 328 750 300 750 c 0x1d40
100 600 m 0
 72 600 50 622 50 650 c 0
 50 678 72 700 100 700 c 0
 128 700 150 678 150 650 c 0
 150 622 128 600 100 600 c 0
300 600 m 0
 272 600 250 622 250 650 c 0
 250 678 272 700 300 700 c 0
 328 700 350 678 350 650 c 0
 350 622 328 600 300 600 c 0
100 450 m 0
 72 450 50 472 50 500 c 0
 50 528 72 550 100 550 c 0
 128 550 150 528 150 500 c 0
 150 472 128 450 100 450 c 0
200 450 m 0x1080
 172 450 150 472 150 500 c 0
 150 528 172 550 200 550 c 0
 228 550 250 528 250 500 c 0
 250 472 228 450 200 450 c 0x1080
300 450 m 0x3140
 272 450 250 472 250 500 c 0
 250 528 272 550 300 550 c 0
 328 550 350 528 350 500 c 0
 350 472 328 450 300 450 c 0x3140
100 300 m 0
 72 300 50 322 50 350 c 0
 50 378 72 400 100 400 c 0
 128 400 150 378 150 350 c 0
 150 322 128 300 100 300 c 0
200 300 m 0x2080
 172 300 150 322 150 350 c 0
 150 378 172 400 200 400 c 0
 228 400 250 378 250 350 c 0
 250 322 228 300 200 300 c 0x2080
300 300 m 0x6140
 272 300 250 322 250 350 c 0
 250 378 272 400 300 400 c 0
 328 400 350 378 350 350 c 0
 350 322 328 300 300 300 c 0x6140
100 150 m 0
 72 150 50 172 50 200 c 0
 50 228 72 250 100 250 c 0
 128 250 150 228 150 200 c 0
 150 172 128 150 100 150 c 0
200 150 m 0x4080
 172 150 150 172 150 200 c 0
 150 228 172 250 200 250 c 0
 228 250 250 228 250 200 c 0
 250 172 228 150 200 150 c 0x4080
300 150 m 0xc140
 272 150 250 172 250 200 c 0
 250 228 272 250 300 250 c 0
 328 250 350 228 350 200 c 0
 350 172 328 150 300 150 c 0xc140
100 0 m 0
 72 0 50 22 50 50 c 0
 50 78 72 100 100 100 c 0
 128 100 150 78 150 50 c 0
 150 22 128 0 100 0 c 0
300 0 m 0
 272 0 250 22 250 50 c 0
 250 78 272 100 300 100 c 0
 328 100 350 78 350 50 c 0
 350 22 328 0 300 0 c 0
EndSplineSet
EndChar

StartChar: O
Encoding: 79 79 61
Width: 400
GlyphClass: 1
Flags: MW
HStem: 0 100<186 214> 150 100<86 114 286 314> 300 100<86 114 286 314> 450 100<86 114 286 314> 600 100<186 214>
VStem: 50 100<186 214 336 364 486 514> 150 100<36 64 186 214 336 364 486 514 636 664> 250 100<186 214 336 364 486 514>
LayerCount: 2
Fore
SplineSet
200 600 m 0x0a
 172 600 150 622 150 650 c 0
 150 678 172 700 200 700 c 0
 228 700 250 678 250 650 c 0
 250 622 228 600 200 600 c 0x0a
100 450 m 0x75
 72 450 50 472 50 500 c 0
 50 528 72 550 100 550 c 0
 128 550 150 528 150 500 c 0
 150 472 128 450 100 450 c 0x75
300 450 m 0
 272 450 250 472 250 500 c 0
 250 528 272 550 300 550 c 0
 328 550 350 528 350 500 c 0
 350 472 328 450 300 450 c 0
100 300 m 0
 72 300 50 322 50 350 c 0
 50 378 72 400 100 400 c 0
 128 400 150 378 150 350 c 0
 150 322 128 300 100 300 c 0
300 300 m 0
 272 300 250 322 250 350 c 0
 250 378 272 400 300 400 c 0
 328 400 350 378 350 350 c 0
 350 322 328 300 300 300 c 0
100 150 m 0
 72 150 50 172 50 200 c 0
 50 228 72 250 100 250 c 0
 128 250 150 228 150 200 c 0
 150 172 128 150 100 150 c 0
300 150 m 0
 272 150 250 172 250 200 c 0
 250 228 272 250 300 250 c 0
 328 250 350 228 350 200 c 0
 350 172 328 150 300 150 c 0
200 0 m 0x82
 172 0 150 22 150 50 c 0
 150 78 172 100 200 100 c 0
 228 100 250 78 250 50 c 0
 250 22 228 0 200 0 c 0x82
EndSplineSet
EndChar

StartChar: Oacute
Encoding: 211 211 62
Width: 400
GlyphClass: 1
Flags: MW
HStem: 0 100<186 214> 150 100<86 114 286 314> 300 100<86 114 286 314> 450 100<86 114 286 314> 600 100<186 214> 750 100<186 214> 900 100<286 314>
VStem: 50 100<186 214 336 364 486 514> 150 100<36 64 186 214 336 364 486 514 636 664 786 814> 250 100<186 214 336 364 486 514 936 964>
LayerCount: 2
Fore
SplineSet
300 900 m 0xff40
 272 900 250 922 250 950 c 0
 250 978 272 1000 300 1000 c 0
 328 1000 350 978 350 950 c 0
 350 922 328 900 300 900 c 0xff40
200 750 m 0x0c80
 172 750 150 772 150 800 c 0
 150 828 172 850 200 850 c 0
 228 850 250 828 250 800 c 0
 250 772 228 750 200 750 c 0x0c80
200 600 m 0
 172 600 150 622 150 650 c 0
 150 678 172 700 200 700 c 0
 228 700 250 678 250 650 c 0
 250 622 228 600 200 600 c 0
100 450 m 0x7140
 72 450 50 472 50 500 c 0
 50 528 72 550 100 550 c 0
 128 550 150 528 150 500 c 0
 150 472 128 450 100 450 c 0x7140
300 450 m 0
 272 450 250 472 250 500 c 0
 250 528 272 550 300 550 c 0
 328 550 350 528 350 500 c 0
 350 472 328 450 300 450 c 0
100 300 m 0
 72 300 50 322 50 350 c 0
 50 378 72 400 100 400 c 0
 128 400 150 378 150 350 c 0
 150 322 128 300 100 300 c 0
300 300 m 0
 272 300 250 322 250 350 c 0
 250 378 272 400 300 400 c 0
 328 400 350 378 350 350 c 0
 350 322 328 300 300 300 c 0
100 150 m 0
 72 150 50 172 50 200 c 0
 50 228 72 250 100 250 c 0
 128 250 150 228 150 200 c 0
 150 172 128 150 100 150 c 0
300 150 m 0
 272 150 250 172 250 200 c 0
 250 228 272 250 300 250 c 0
 328 250 350 228 350 200 c 0
 350 172 328 150 300 150 c 0
200 0 m 0x8080
 172 0 150 22 150 50 c 0
 150 78 172 100 200 100 c 0
 228 100 250 78 250 50 c 0
 250 22 228 0 200 0 c 0x8080
EndSplineSet
EndChar

StartChar: Ocircumflex
Encoding: 212 212 63
Width: 400
GlyphClass: 1
Flags: MW
HStem: 0 100<186 214> 150 100<86 114 286 314> 300 100<86 114 286 314> 450 100<86 114 286 314> 600 100<186 214> 750 100<86 114 286 314> 900 100<186 214>
VStem: 50 100<186 214 336 364 486 514 786 814> 150 100<36 64 186 214 336 364 486 514 636 664 786 814 936 964> 250 100<186 214 336 364 486 514 786 814>
LayerCount: 2
Fore
SplineSet
200 900 m 0x0280
 172 900 150 922 150 950 c 0
 150 978 172 1000 200 1000 c 0
 228 1000 250 978 250 950 c 0
 250 922 228 900 200 900 c 0x0280
100 750 m 0x0540
 72 750 50 772 50 800 c 0
 50 828 72 850 100 850 c 0
 128 850 150 828 150 800 c 0
 150 772 128 750 100 750 c 0x0540
300 750 m 0
 272 750 250 772 250 800 c 0
 250 828 272 850 300 850 c 0
 328 850 350 828 350 800 c 0
 350 772 328 750 300 750 c 0
200 600 m 0x0880
 172 600 150 622 150 650 c 0
 150 678 172 700 200 700 c 0
 228 700 250 678 250 650 c 0
 250 622 228 600 200 600 c 0x0880
100 450 m 0x7140
 72 450 50 472 50 500 c 0
 50 528 72 550 100 550 c 0
 128 550 150 528 150 500 c 0
 150 472 128 450 100 450 c 0x7140
300 450 m 0
 272 450 250 472 250 500 c 0
 250 528 272 550 300 550 c 0
 328 550 350 528 350 500 c 0
 350 472 328 450 300 450 c 0
100 300 m 0
 72 300 50 322 50 350 c 0
 50 378 72 400 100 400 c 0
 128 400 150 378 150 350 c 0
 150 322 128 300 100 300 c 0
300 300 m 0
 272 300 250 322 250 350 c 0
 250 378 272 400 300 400 c 0
 328 400 350 378 350 350 c 0
 350 322 328 300 300 300 c 0
100 150 m 0
 72 150 50 172 50 200 c 0
 50 228 72 250 100 250 c 0
 128 250 150 228 150 200 c 0
 150 172 128 150 100 150 c 0
300 150 m 0
 272 150 250 172 250 200 c 0
 250 228 272 250 300 250 c 0
 328 250 350 228 350 200 c 0
 350 172 328 150 300 150 c 0
200 0 m 0x8080
 172 0 150 22 150 50 c 0
 150 78 172 100 200 100 c 0
 228 100 250 78 250 50 c 0
 250 22 228 0 200 0 c 0x8080
EndSplineSet
EndChar

StartChar: Odieresis
Encoding: 214 214 64
Width: 400
GlyphClass: 1
Flags: MW
HStem: 0 100<186 214> 150 100<86 114 286 314> 300 100<86 114 286 314> 450 100<86 114 286 314> 600 100<186 214> 900 100<86 114 286 314>
VStem: 50 100<186 214 336 364 486 514 936 964> 150 100<36 64 186 214 336 364 486 514 636 664 936 964> 250 100<186 214 336 364 486 514 936 964>
LayerCount: 2
Fore
SplineSet
100 900 m 0xfe80
 72 900 50 922 50 950 c 0
 50 978 72 1000 100 1000 c 0
 128 1000 150 978 150 950 c 0
 150 922 128 900 100 900 c 0xfe80
300 900 m 0
 272 900 250 922 250 950 c 0
 250 978 272 1000 300 1000 c 0
 328 1000 350 978 350 950 c 0
 350 922 328 900 300 900 c 0
200 600 m 0x09
 172 600 150 622 150 650 c 0
 150 678 172 700 200 700 c 0
 228 700 250 678 250 650 c 0
 250 622 228 600 200 600 c 0x09
100 450 m 0x7280
 72 450 50 472 50 500 c 0
 50 528 72 550 100 550 c 0
 128 550 150 528 150 500 c 0
 150 472 128 450 100 450 c 0x7280
300 450 m 0
 272 450 250 472 250 500 c 0
 250 528 272 550 300 550 c 0
 328 550 350 528 350 500 c 0
 350 472 328 450 300 450 c 0
100 300 m 0
 72 300 50 322 50 350 c 0
 50 378 72 400 100 400 c 0
 128 400 150 378 150 350 c 0
 150 322 128 300 100 300 c 0
300 300 m 0
 272 300 250 322 250 350 c 0
 250 378 272 400 300 400 c 0
 328 400 350 378 350 350 c 0
 350 322 328 300 300 300 c 0
100 150 m 0
 72 150 50 172 50 200 c 0
 50 228 72 250 100 250 c 0
 128 250 150 228 150 200 c 0
 150 172 128 150 100 150 c 0
300 150 m 0
 272 150 250 172 250 200 c 0
 250 228 272 250 300 250 c 0
 328 250 350 228 350 200 c 0
 350 172 328 150 300 150 c 0
200 0 m 0x81
 172 0 150 22 150 50 c 0
 150 78 172 100 200 100 c 0
 228 100 250 78 250 50 c 0
 250 22 228 0 200 0 c 0x81
EndSplineSet
EndChar

StartChar: Ograve
Encoding: 210 210 65
Width: 400
GlyphClass: 1
Flags: MW
HStem: 0 100<186 214> 150 100<86 114 286 314> 300 100<86 114 286 314> 450 100<86 114 286 314> 600 100<186 214> 750 100<186 214> 900 100<86 114>
VStem: 50 100<186 214 336 364 486 514 936 964> 150 100<36 64 186 214 336 364 486 514 636 664 786 814> 250 100<186 214 336 364 486 514>
LayerCount: 2
Fore
SplineSet
100 900 m 0xff40
 72 900 50 922 50 950 c 0
 50 978 72 1000 100 1000 c 0
 128 1000 150 978 150 950 c 0
 150 922 128 900 100 900 c 0xff40
200 750 m 0x0c80
 172 750 150 772 150 800 c 0
 150 828 172 850 200 850 c 0
 228 850 250 828 250 800 c 0
 250 772 228 750 200 750 c 0x0c80
200 600 m 0
 172 600 150 622 150 650 c 0
 150 678 172 700 200 700 c 0
 228 700 250 678 250 650 c 0
 250 622 228 600 200 600 c 0
100 450 m 0x7140
 72 450 50 472 50 500 c 0
 50 528 72 550 100 550 c 0
 128 550 150 528 150 500 c 0
 150 472 128 450 100 450 c 0x7140
300 450 m 0
 272 450 250 472 250 500 c 0
 250 528 272 550 300 550 c 0
 328 550 350 528 350 500 c 0
 350 472 328 450 300 450 c 0
100 300 m 0
 72 300 50 322 50 350 c 0
 50 378 72 400 100 400 c 0
 128 400 150 378 150 350 c 0
 150 322 128 300 100 300 c 0
300 300 m 0
 272 300 250 322 250 350 c 0
 250 378 272 400 300 400 c 0
 328 400 350 378 350 350 c 0
 350 322 328 300 300 300 c 0
100 150 m 0
 72 150 50 172 50 200 c 0
 50 228 72 250 100 250 c 0
 128 250 150 228 150 200 c 0
 150 172 128 150 100 150 c 0
300 150 m 0
 272 150 250 172 250 200 c 0
 250 228 272 250 300 250 c 0
 328 250 350 228 350 200 c 0
 350 172 328 150 300 150 c 0
200 0 m 0x8080
 172 0 150 22 150 50 c 0
 150 78 172 100 200 100 c 0
 228 100 250 78 250 50 c 0
 250 22 228 0 200 0 c 0x8080
EndSplineSet
EndChar

StartChar: Ohungarumlaut
Encoding: 336 336 66
Width: 400
GlyphClass: 1
Flags: MW
HStem: 0 100<186 214> 150 100<86 114 286 314> 300 100<86 114 286 314> 450 100<86 114 286 314> 600 100<186 214> 750 100<86 114 186 214> 900 100<186 214 286 314>
VStem: 50 100<186 214 336 364 486 514 786 814> 150 100<36 64 186 214 336 364 486 514 636 664 786 814 786 814 936 964> 250 100<186 214 336 364 486 514 936 964 936 964>
LayerCount: 2
Fore
SplineSet
200 900 m 0x0280
 172 900 150 922 150 950 c 0
 150 978 172 1000 200 1000 c 0
 228 1000 250 978 250 950 c 0
 250 922 228 900 200 900 c 0x0280
300 900 m 0x0740
 272 900 250 922 250 950 c 0
 250 978 272 1000 300 1000 c 0
 328 1000 350 978 350 950 c 0
 350 922 328 900 300 900 c 0x0740
100 750 m 0
 72 750 50 772 50 800 c 0
 50 828 72 850 100 850 c 0
 128 850 150 828 150 800 c 0
 150 772 128 750 100 750 c 0
200 750 m 0x0c80
 172 750 150 772 150 800 c 0
 150 828 172 850 200 850 c 0
 228 850 250 828 250 800 c 0
 250 772 228 750 200 750 c 0x0c80
200 600 m 0
 172 600 150 622 150 650 c 0
 150 678 172 700 200 700 c 0
 228 700 250 678 250 650 c 0
 250 622 228 600 200 600 c 0
100 450 m 0x7140
 72 450 50 472 50 500 c 0
 50 528 72 550 100 550 c 0
 128 550 150 528 150 500 c 0
 150 472 128 450 100 450 c 0x7140
300 450 m 0
 272 450 250 472 250 500 c 0
 250 528 272 550 300 550 c 0
 328 550 350 528 350 500 c 0
 350 472 328 450 300 450 c 0
100 300 m 0
 72 300 50 322 50 350 c 0
 50 378 72 400 100 400 c 0
 128 400 150 378 150 350 c 0
 150 322 128 300 100 300 c 0
300 300 m 0
 272 300 250 322 250 350 c 0
 250 378 272 400 300 400 c 0
 328 400 350 378 350 350 c 0
 350 322 328 300 300 300 c 0
100 150 m 0
 72 150 50 172 50 200 c 0
 50 228 72 250 100 250 c 0
 128 250 150 228 150 200 c 0
 150 172 128 150 100 150 c 0
300 150 m 0
 272 150 250 172 250 200 c 0
 250 228 272 250 300 250 c 0
 328 250 350 228 350 200 c 0
 350 172 328 150 300 150 c 0
200 0 m 0x8080
 172 0 150 22 150 50 c 0
 150 78 172 100 200 100 c 0
 228 100 250 78 250 50 c 0
 250 22 228 0 200 0 c 0x8080
EndSplineSet
EndChar

StartChar: Omacron
Encoding: 332 332 67
Width: 400
GlyphClass: 1
Flags: MW
HStem: 0 100<186 214> 150 100<86 114 286 314> 300 100<86 114 286 314> 450 100<86 114 286 314> 600 100<186 214> 900 100<86 114 186 214 286 314>
VStem: 50 100<186 214 336 364 486 514 936 964> 150 100<36 64 186 214 336 364 486 514 636 664 936 964 936 964> 250 100<186 214 336 364 486 514 936 964 936 964>
LayerCount: 2
Fore
SplineSet
100 900 m 0xfe80
 72 900 50 922 50 950 c 0
 50 978 72 1000 100 1000 c 0
 128 1000 150 978 150 950 c 0
 150 922 128 900 100 900 c 0xfe80
200 900 m 0x05
 172 900 150 922 150 950 c 0
 150 978 172 1000 200 1000 c 0
 228 1000 250 978 250 950 c 0
 250 922 228 900 200 900 c 0x05
300 900 m 0x0480
 272 900 250 922 250 950 c 0
 250 978 272 1000 300 1000 c 0
 328 1000 350 978 350 950 c 0
 350 922 328 900 300 900 c 0x0480
200 600 m 0x09
 172 600 150 622 150 650 c 0
 150 678 172 700 200 700 c 0
 228 700 250 678 250 650 c 0
 250 622 228 600 200 600 c 0x09
100 450 m 0x7280
 72 450 50 472 50 500 c 0
 50 528 72 550 100 550 c 0
 128 550 150 528 150 500 c 0
 150 472 128 450 100 450 c 0x7280
300 450 m 0
 272 450 250 472 250 500 c 0
 250 528 272 550 300 550 c 0
 328 550 350 528 350 500 c 0
 350 472 328 450 300 450 c 0
100 300 m 0
 72 300 50 322 50 350 c 0
 50 378 72 400 100 400 c 0
 128 400 150 378 150 350 c 0
 150 322 128 300 100 300 c 0
300 300 m 0
 272 300 250 322 250 350 c 0
 250 378 272 400 300 400 c 0
 328 400 350 378 350 350 c 0
 350 322 328 300 300 300 c 0
100 150 m 0
 72 150 50 172 50 200 c 0
 50 228 72 250 100 250 c 0
 128 250 150 228 150 200 c 0
 150 172 128 150 100 150 c 0
300 150 m 0
 272 150 250 172 250 200 c 0
 250 228 272 250 300 250 c 0
 328 250 350 228 350 200 c 0
 350 172 328 150 300 150 c 0
200 0 m 0x81
 172 0 150 22 150 50 c 0
 150 78 172 100 200 100 c 0
 228 100 250 78 250 50 c 0
 250 22 228 0 200 0 c 0x81
EndSplineSet
EndChar

StartChar: Oslash
Encoding: 216 216 68
Width: 400
GlyphClass: 1
Flags: MW
HStem: 0 100<86 114 186 214> 150 100<86 114 286 314> 300 100<86 114 286 314> 450 100<86 114 286 314> 600 100<186 214 286 314>
VStem: 50 100<36 64 186 214 336 364 486 514> 150 100<36 64 36 64 186 214 336 364 486 514 636 664> 250 100<186 214 336 364 486 514 636 664 636 664>
LayerCount: 2
Fore
SplineSet
200 600 m 0x0a
 172 600 150 622 150 650 c 0
 150 678 172 700 200 700 c 0
 228 700 250 678 250 650 c 0
 250 622 228 600 200 600 c 0x0a
300 600 m 0xfd
 272 600 250 622 250 650 c 0
 250 678 272 700 300 700 c 0
 328 700 350 678 350 650 c 0
 350 622 328 600 300 600 c 0xfd
100 450 m 0
 72 450 50 472 50 500 c 0
 50 528 72 550 100 550 c 0
 128 550 150 528 150 500 c 0
 150 472 128 450 100 450 c 0
300 450 m 0
 272 450 250 472 250 500 c 0
 250 528 272 550 300 550 c 0
 328 550 350 528 350 500 c 0
 350 472 328 450 300 450 c 0
100 300 m 0
 72 300 50 322 50 350 c 0
 50 378 72 400 100 400 c 0
 128 400 150 378 150 350 c 0
 150 322 128 300 100 300 c 0
300 300 m 0
 272 300 250 322 250 350 c 0
 250 378 272 400 300 400 c 0
 328 400 350 378 350 350 c 0
 350 322 328 300 300 300 c 0
100 150 m 0
 72 150 50 172 50 200 c 0
 50 228 72 250 100 250 c 0
 128 250 150 228 150 200 c 0
 150 172 128 150 100 150 c 0
300 150 m 0
 272 150 250 172 250 200 c 0
 250 228 272 250 300 250 c 0
 328 250 350 228 350 200 c 0
 350 172 328 150 300 150 c 0
100 0 m 0
 72 0 50 22 50 50 c 0
 50 78 72 100 100 100 c 0
 128 100 150 78 150 50 c 0
 150 22 128 0 100 0 c 0
200 0 m 0x82
 172 0 150 22 150 50 c 0
 150 78 172 100 200 100 c 0
 228 100 250 78 250 50 c 0
 250 22 228 0 200 0 c 0x82
EndSplineSet
EndChar

StartChar: Otilde
Encoding: 213 213 69
Width: 400
GlyphClass: 1
Flags: MW
HStem: 0 100<186 214> 150 100<86 114 286 314> 300 100<86 114 286 314> 450 100<86 114 286 314> 600 100<186 214> 750 100<186 214 286 314> 900 100<86 114 186 214>
VStem: 50 100<186 214 336 364 486 514 936 964> 150 100<36 64 186 214 336 364 486 514 636 664 786 814 936 964 936 964> 250 100<186 214 336 364 486 514 786 814 786 814>
LayerCount: 2
Fore
SplineSet
100 900 m 0xff40
 72 900 50 922 50 950 c 0
 50 978 72 1000 100 1000 c 0
 128 1000 150 978 150 950 c 0
 150 922 128 900 100 900 c 0xff40
200 900 m 0x0680
 172 900 150 922 150 950 c 0
 150 978 172 1000 200 1000 c 0
 228 1000 250 978 250 950 c 0
 250 922 228 900 200 900 c 0x0680
200 750 m 0
 172 750 150 772 150 800 c 0
 150 828 172 850 200 850 c 0
 228 850 250 828 250 800 c 0
 250 772 228 750 200 750 c 0
300 750 m 0x0440
 272 750 250 772 250 800 c 0
 250 828 272 850 300 850 c 0
 328 850 350 828 350 800 c 0
 350 772 328 750 300 750 c 0x0440
200 600 m 0x0880
 172 600 150 622 150 650 c 0
 150 678 172 700 200 700 c 0
 228 700 250 678 250 650 c 0
 250 622 228 600 200 600 c 0x0880
100 450 m 0x7140
 72 450 50 472 50 500 c 0
 50 528 72 550 100 550 c 0
 128 550 150 528 150 500 c 0
 150 472 128 450 100 450 c 0x7140
300 450 m 0
 272 450 250 472 250 500 c 0
 250 528 272 550 300 550 c 0
 328 550 350 528 350 500 c 0
 350 472 328 450 300 450 c 0
100 300 m 0
 72 300 50 322 50 350 c 0
 50 378 72 400 100 400 c 0
 128 400 150 378 150 350 c 0
 150 322 128 300 100 300 c 0
300 300 m 0
 272 300 250 322 250 350 c 0
 250 378 272 400 300 400 c 0
 328 400 350 378 350 350 c 0
 350 322 328 300 300 300 c 0
100 150 m 0
 72 150 50 172 50 200 c 0
 50 228 72 250 100 250 c 0
 128 250 150 228 150 200 c 0
 150 172 128 150 100 150 c 0
300 150 m 0
 272 150 250 172 250 200 c 0
 250 228 272 250 300 250 c 0
 328 250 350 228 350 200 c 0
 350 172 328 150 300 150 c 0
200 0 m 0x8080
 172 0 150 22 150 50 c 0
 150 78 172 100 200 100 c 0
 228 100 250 78 250 50 c 0
 250 22 228 0 200 0 c 0x8080
EndSplineSet
EndChar

StartChar: OE
Encoding: 338 338 70
Width: 600
GlyphClass: 1
Flags: MW
HStem: 0 100<186 214 286 314 386 414 486 514> 150 100<86 114 286 314> 300 100<86 114 286 314 386 414> 450 100<86 114 286 314> 600 100<186 214 286 314 386 414 486 514>
VStem: 50 100<186 214 336 364 486 514> 150 100<36 64 186 214 336 364 486 514 636 664> 250 100<36 64 36 64 186 214 336 364 486 514 636 664 636 664> 350 100<36 64 36 64 336 364 336 364 636 664 636 664> 450 100<36 64 36 64 636 664 636 664>
LayerCount: 2
Fore
SplineSet
200 600 m 0x0a
 172 600 150 622 150 650 c 0
 150 678 172 700 200 700 c 0
 228 700 250 678 250 650 c 0
 250 622 228 600 200 600 c 0x0a
300 600 m 0x09
 272 600 250 622 250 650 c 0
 250 678 272 700 300 700 c 0
 328 700 350 678 350 650 c 0
 350 622 328 600 300 600 c 0x09
400 600 m 0x0880
 372 600 350 622 350 650 c 0
 350 678 372 700 400 700 c 0
 428 700 450 678 450 650 c 0
 450 622 428 600 400 600 c 0x0880
500 600 m 0x3d40
 472 600 450 622 450 650 c 0
 450 678 472 700 500 700 c 0
 528 700 550 678 550 650 c 0
 550 622 528 600 500 600 c 0x3d40
100 450 m 0
 72 450 50 472 50 500 c 0
 50 528 72 550 100 550 c 0
 128 550 150 528 150 500 c 0
 150 472 128 450 100 450 c 0
300 450 m 0
 272 450 250 472 250 500 c 0
 250 528 272 550 300 550 c 0
 328 550 350 528 350 500 c 0
 350 472 328 450 300 450 c 0
100 300 m 0
 72 300 50 322 50 350 c 0
 50 378 72 400 100 400 c 0
 128 400 150 378 150 350 c 0
 150 322 128 300 100 300 c 0
300 300 m 0
 272 300 250 322 250 350 c 0
 250 378 272 400 300 400 c 0
 328 400 350 378 350 350 c 0
 350 322 328 300 300 300 c 0
400 300 m 0x6480
 372 300 350 322 350 350 c 0
 350 378 372 400 400 400 c 0
 428 400 450 378 450 350 c 0
 450 322 428 300 400 300 c 0x6480
100 150 m 0
 72 150 50 172 50 200 c 0
 50 228 72 250 100 250 c 0
 128 250 150 228 150 200 c 0
 150 172 128 150 100 150 c 0
300 150 m 0x41
 272 150 250 172 250 200 c 0
 250 228 272 250 300 250 c 0
 328 250 350 228 350 200 c 0
 350 172 328 150 300 150 c 0x41
200 0 m 0x82
 172 0 150 22 150 50 c 0
 150 78 172 100 200 100 c 0
 228 100 250 78 250 50 c 0
 250 22 228 0 200 0 c 0x82
300 0 m 0x81
 272 0 250 22 250 50 c 0
 250 78 272 100 300 100 c 0
 328 100 350 78 350 50 c 0
 350 22 328 0 300 0 c 0x81
400 0 m 0x8080
 372 0 350 22 350 50 c 0
 350 78 372 100 400 100 c 0
 428 100 450 78 450 50 c 0
 450 22 428 0 400 0 c 0x8080
500 0 m 0x8040
 472 0 450 22 450 50 c 0
 450 78 472 100 500 100 c 0
 528 100 550 78 550 50 c 0
 550 22 528 0 500 0 c 0x8040
EndSplineSet
EndChar

StartChar: P
Encoding: 80 80 71
Width: 400
GlyphClass: 1
Flags: MW
HStem: 0 100<86 114> 150 100<86 114> 300 100<86 114 186 214> 450 100<86 114 286 314> 600 100<86 114 186 214>
VStem: 50 100<36 64 186 214 336 364 486 514 636 664> 150 100<336 364 336 364 486 514 636 664 636 664> 250 100<486 514>
LayerCount: 2
Fore
SplineSet
100 600 m 0xfd
 72 600 50 622 50 650 c 0
 50 678 72 700 100 700 c 0
 128 700 150 678 150 650 c 0
 150 622 128 600 100 600 c 0xfd
200 600 m 0x0a
 172 600 150 622 150 650 c 0
 150 678 172 700 200 700 c 0
 228 700 250 678 250 650 c 0
 250 622 228 600 200 600 c 0x0a
100 450 m 0x35
 72 450 50 472 50 500 c 0
 50 528 72 550 100 550 c 0
 128 550 150 528 150 500 c 0
 150 472 128 450 100 450 c 0x35
300 450 m 0
 272 450 250 472 250 500 c 0
 250 528 272 550 300 550 c 0
 328 550 350 528 350 500 c 0
 350 472 328 450 300 450 c 0
100 300 m 0
 72 300 50 322 50 350 c 0
 50 378 72 400 100 400 c 0
 128 400 150 378 150 350 c 0
 150 322 128 300 100 300 c 0
200 300 m 0x22
 172 300 150 322 150 350 c 0
 150 378 172 400 200 400 c 0
 228 400 250 378 250 350 c 0
 250 322 228 300 200 300 c 0x22
100 150 m 0xc4
 72 150 50 172 50 200 c 0
 50 228 72 250 100 250 c 0
 128 250 150 228 150 200 c 0
 150 172 128 150 100 150 c 0xc4
100 0 m 0
 72 0 50 22 50 50 c 0
 50 78 72 100 100 100 c 0
 128 100 150 78 150 50 c 0
 150 22 128 0 100 0 c 0
EndSplineSet
EndChar

StartChar: Thorn
Encoding: 222 222 72
Width: 400
GlyphClass: 1
Flags: MW
HStem: 0 100<86 114> 150 100<86 114 186 214> 300 100<86 114 286 314> 450 100<86 114 186 214> 600 100<86 114>
VStem: 50 100<36 64 186 214 336 364 486 514 636 664> 150 100<186 214 186 214 336 364 486 514 486 514> 250 100<336 364>
LayerCount: 2
Fore
SplineSet
100 600 m 0xfd
 72 600 50 622 50 650 c 0
 50 678 72 700 100 700 c 0
 128 700 150 678 150 650 c 0
 150 622 128 600 100 600 c 0xfd
100 450 m 0
 72 450 50 472 50 500 c 0
 50 528 72 550 100 550 c 0
 128 550 150 528 150 500 c 0
 150 472 128 450 100 450 c 0
200 450 m 0x12
 172 450 150 472 150 500 c 0
 150 528 172 550 200 550 c 0
 228 550 250 528 250 500 c 0
 250 472 228 450 200 450 c 0x12
100 300 m 0x65
 72 300 50 322 50 350 c 0
 50 378 72 400 100 400 c 0
 128 400 150 378 150 350 c 0
 150 322 128 300 100 300 c 0x65
300 300 m 0
 272 300 250 322 250 350 c 0
 250 378 272 400 300 400 c 0
 328 400 350 378 350 350 c 0
 350 322 328 300 300 300 c 0
100 150 m 0
 72 150 50 172 50 200 c 0
 50 228 72 250 100 250 c 0
 128 250 150 228 150 200 c 0
 150 172 128 150 100 150 c 0
200 150 m 0x42
 172 150 150 172 150 200 c 0
 150 228 172 250 200 250 c 0
 228 250 250 228 250 200 c 0
 250 172 228 150 200 150 c 0x42
100 0 m 0x84
 72 0 50 22 50 50 c 0
 50 78 72 100 100 100 c 0
 128 100 150 78 150 50 c 0
 150 22 128 0 100 0 c 0x84
EndSplineSet
EndChar

StartChar: Q
Encoding: 81 81 73
Width: 400
GlyphClass: 1
Flags: MW
HStem: 0 100<186 214 286 314> 150 100<86 114 286 314> 300 100<86 114 286 314> 450 100<86 114 286 314> 600 100<186 214>
VStem: 50 100<186 214 336 364 486 514> 150 100<36 64 186 214 336 364 486 514 636 664> 250 100<36 64 36 64 186 214 336 364 486 514>
LayerCount: 2
Fore
SplineSet
200 600 m 0x0a
 172 600 150 622 150 650 c 0
 150 678 172 700 200 700 c 0
 228 700 250 678 250 650 c 0
 250 622 228 600 200 600 c 0x0a
100 450 m 0x75
 72 450 50 472 50 500 c 0
 50 528 72 550 100 550 c 0
 128 550 150 528 150 500 c 0
 150 472 128 450 100 450 c 0x75
300 450 m 0
 272 450 250 472 250 500 c 0
 250 528 272 550 300 550 c 0
 328 550 350 528 350 500 c 0
 350 472 328 450 300 450 c 0
100 300 m 0
 72 300 50 322 50 350 c 0
 50 378 72 400 100 400 c 0
 128 400 150 378 150 350 c 0
 150 322 128 300 100 300 c 0
300 300 m 0
 272 300 250 322 250 350 c 0
 250 378 272 400 300 400 c 0
 328 400 350 378 350 350 c 0
 350 322 328 300 300 300 c 0
100 150 m 0
 72 150 50 172 50 200 c 0
 50 228 72 250 100 250 c 0
 128 250 150 228 150 200 c 0
 150 172 128 150 100 150 c 0
300 150 m 0
 272 150 250 172 250 200 c 0
 250 228 272 250 300 250 c 0
 328 250 350 228 350 200 c 0
 350 172 328 150 300 150 c 0
200 0 m 0x82
 172 0 150 22 150 50 c 0
 150 78 172 100 200 100 c 0
 228 100 250 78 250 50 c 0
 250 22 228 0 200 0 c 0x82
300 0 m 0x81
 272 0 250 22 250 50 c 0
 250 78 272 100 300 100 c 0
 328 100 350 78 350 50 c 0
 350 22 328 0 300 0 c 0x81
EndSplineSet
EndChar

StartChar: R
Encoding: 82 82 74
Width: 400
GlyphClass: 1
Flags: MW
HStem: 0 100<86 114 286 314> 150 100<86 114 286 314> 300 100<86 114 186 214> 450 100<86 114 286 314> 600 100<86 114 186 214>
VStem: 50 100<36 64 186 214 336 364 486 514 636 664> 150 100<36 64 186 214 336 364 336 364 486 514 636 664 636 664> 250 100<36 64 186 214 486 514>
LayerCount: 2
Fore
SplineSet
100 600 m 0xfd
 72 600 50 622 50 650 c 0
 50 678 72 700 100 700 c 0
 128 700 150 678 150 650 c 0
 150 622 128 600 100 600 c 0xfd
200 600 m 0x0a
 172 600 150 622 150 650 c 0
 150 678 172 700 200 700 c 0
 228 700 250 678 250 650 c 0
 250 622 228 600 200 600 c 0x0a
100 450 m 0x35
 72 450 50 472 50 500 c 0
 50 528 72 550 100 550 c 0
 128 550 150 528 150 500 c 0
 150 472 128 450 100 450 c 0x35
300 450 m 0
 272 450 250 472 250 500 c 0
 250 528 272 550 300 550 c 0
 328 550 350 528 350 500 c 0
 350 472 328 450 300 450 c 0
100 300 m 0
 72 300 50 322 50 350 c 0
 50 378 72 400 100 400 c 0
 128 400 150 378 150 350 c 0
 150 322 128 300 100 300 c 0
200 300 m 0x22
 172 300 150 322 150 350 c 0
 150 378 172 400 200 400 c 0
 228 400 250 378 250 350 c 0
 250 322 228 300 200 300 c 0x22
100 150 m 0xc5
 72 150 50 172 50 200 c 0
 50 228 72 250 100 250 c 0
 128 250 150 228 150 200 c 0
 150 172 128 150 100 150 c 0xc5
300 150 m 0
 272 150 250 172 250 200 c 0
 250 228 272 250 300 250 c 0
 328 250 350 228 350 200 c 0
 350 172 328 150 300 150 c 0
100 0 m 0
 72 0 50 22 50 50 c 0
 50 78 72 100 100 100 c 0
 128 100 150 78 150 50 c 0
 150 22 128 0 100 0 c 0
300 0 m 0
 272 0 250 22 250 50 c 0
 250 78 272 100 300 100 c 0
 328 100 350 78 350 50 c 0
 350 22 328 0 300 0 c 0
EndSplineSet
EndChar

StartChar: Racute
Encoding: 340 340 75
Width: 400
GlyphClass: 1
Flags: MW
HStem: 0 100<86 114 286 314> 150 100<86 114 286 314> 300 100<86 114 186 214> 450 100<86 114 286 314> 600 100<86 114 186 214> 750 100<186 214> 900 100<286 314>
VStem: 50 100<36 64 186 214 336 364 486 514 636 664> 150 100<36 64 186 214 336 364 336 364 486 514 636 664 636 664 786 814> 250 100<36 64 186 214 486 514 936 964>
LayerCount: 2
Fore
SplineSet
300 900 m 0xff40
 272 900 250 922 250 950 c 0
 250 978 272 1000 300 1000 c 0
 328 1000 350 978 350 950 c 0
 350 922 328 900 300 900 c 0xff40
200 750 m 0x0480
 172 750 150 772 150 800 c 0
 150 828 172 850 200 850 c 0
 228 850 250 828 250 800 c 0
 250 772 228 750 200 750 c 0x0480
100 600 m 0x09
 72 600 50 622 50 650 c 0
 50 678 72 700 100 700 c 0
 128 700 150 678 150 650 c 0
 150 622 128 600 100 600 c 0x09
200 600 m 0x0880
 172 600 150 622 150 650 c 0
 150 678 172 700 200 700 c 0
 228 700 250 678 250 650 c 0
 250 622 228 600 200 600 c 0x0880
100 450 m 0x3140
 72 450 50 472 50 500 c 0
 50 528 72 550 100 550 c 0
 128 550 150 528 150 500 c 0
 150 472 128 450 100 450 c 0x3140
300 450 m 0
 272 450 250 472 250 500 c 0
 250 528 272 550 300 550 c 0
 328 550 350 528 350 500 c 0
 350 472 328 450 300 450 c 0
100 300 m 0
 72 300 50 322 50 350 c 0
 50 378 72 400 100 400 c 0
 128 400 150 378 150 350 c 0
 150 322 128 300 100 300 c 0
200 300 m 0x2080
 172 300 150 322 150 350 c 0
 150 378 172 400 200 400 c 0
 228 400 250 378 250 350 c 0
 250 322 228 300 200 300 c 0x2080
100 150 m 0xc140
 72 150 50 172 50 200 c 0
 50 228 72 250 100 250 c 0
 128 250 150 228 150 200 c 0
 150 172 128 150 100 150 c 0xc140
300 150 m 0
 272 150 250 172 250 200 c 0
 250 228 272 250 300 250 c 0
 328 250 350 228 350 200 c 0
 350 172 328 150 300 150 c 0
100 0 m 0
 72 0 50 22 50 50 c 0
 50 78 72 100 100 100 c 0
 128 100 150 78 150 50 c 0
 150 22 128 0 100 0 c 0
300 0 m 0
 272 0 250 22 250 50 c 0
 250 78 272 100 300 100 c 0
 328 100 350 78 350 50 c 0
 350 22 328 0 300 0 c 0
EndSplineSet
EndChar

StartChar: Rcaron
Encoding: 344 344 76
Width: 400
GlyphClass: 1
Flags: MW
HStem: 0 100<86 114 286 314> 150 100<86 114 286 314> 300 100<86 114 186 214> 450 100<86 114 286 314> 600 100<86 114 186 214> 750 100<186 214> 900 100<86 114 286 314>
VStem: 50 100<36 64 186 214 336 364 486 514 636 664 936 964> 150 100<36 64 186 214 336 364 336 364 486 514 636 664 636 664 786 814 936 964> 250 100<36 64 186 214 486 514 936 964>
LayerCount: 2
Fore
SplineSet
100 900 m 0xff40
 72 900 50 922 50 950 c 0
 50 978 72 1000 100 1000 c 0
 128 1000 150 978 150 950 c 0
 150 922 128 900 100 900 c 0xff40
300 900 m 0
 272 900 250 922 250 950 c 0
 250 978 272 1000 300 1000 c 0
 328 1000 350 978 350 950 c 0
 350 922 328 900 300 900 c 0
200 750 m 0x0480
 172 750 150 772 150 800 c 0
 150 828 172 850 200 850 c 0
 228 850 250 828 250 800 c 0
 250 772 228 750 200 750 c 0x0480
100 600 m 0x09
 72 600 50 622 50 650 c 0
 50 678 72 700 100 700 c 0
 128 700 150 678 150 650 c 0
 150 622 128 600 100 600 c 0x09
200 600 m 0x0880
 172 600 150 622 150 650 c 0
 150 678 172 700 200 700 c 0
 228 700 250 678 250 650 c 0
 250 622 228 600 200 600 c 0x0880
100 450 m 0x3140
 72 450 50 472 50 500 c 0
 50 528 72 550 100 550 c 0
 128 550 150 528 150 500 c 0
 150 472 128 450 100 450 c 0x3140
300 450 m 0
 272 450 250 472 250 500 c 0
 250 528 272 550 300 550 c 0
 328 550 350 528 350 500 c 0
 350 472 328 450 300 450 c 0
100 300 m 0
 72 300 50 322 50 350 c 0
 50 378 72 400 100 400 c 0
 128 400 150 378 150 350 c 0
 150 322 128 300 100 300 c 0
200 300 m 0x2080
 172 300 150 322 150 350 c 0
 150 378 172 400 200 400 c 0
 228 400 250 378 250 350 c 0
 250 322 228 300 200 300 c 0x2080
100 150 m 0xc140
 72 150 50 172 50 200 c 0
 50 228 72 250 100 250 c 0
 128 250 150 228 150 200 c 0
 150 172 128 150 100 150 c 0xc140
300 150 m 0
 272 150 250 172 250 200 c 0
 250 228 272 250 300 250 c 0
 328 250 350 228 350 200 c 0
 350 172 328 150 300 150 c 0
100 0 m 0
 72 0 50 22 50 50 c 0
 50 78 72 100 100 100 c 0
 128 100 150 78 150 50 c 0
 150 22 128 0 100 0 c 0
300 0 m 0
 272 0 250 22 250 50 c 0
 250 78 272 100 300 100 c 0
 328 100 350 78 350 50 c 0
 350 22 328 0 300 0 c 0
EndSplineSet
EndChar

StartChar: uni0156
Encoding: 342 342 77
Width: 400
GlyphClass: 1
Flags: MW
HStem: -300 100<86 114> -150 100<186 214> 0 100<86 114 286 314> 150 100<86 114 286 314> 300 100<86 114 186 214> 450 100<86 114 286 314> 600 100<86 114 186 214>
VStem: 50 100<-264 -236 36 64 186 214 336 364 486 514 636 664> 150 100<-114 -86 36 64 186 214 336 364 336 364 486 514 636 664 636 664> 250 100<36 64 186 214 486 514>
LayerCount: 2
Fore
SplineSet
100 600 m 0xff40
 72 600 50 622 50 650 c 0
 50 678 72 700 100 700 c 0
 128 700 150 678 150 650 c 0
 150 622 128 600 100 600 c 0xff40
200 600 m 0x0280
 172 600 150 622 150 650 c 0
 150 678 172 700 200 700 c 0
 228 700 250 678 250 650 c 0
 250 622 228 600 200 600 c 0x0280
100 450 m 0x0d40
 72 450 50 472 50 500 c 0
 50 528 72 550 100 550 c 0
 128 550 150 528 150 500 c 0
 150 472 128 450 100 450 c 0x0d40
300 450 m 0
 272 450 250 472 250 500 c 0
 250 528 272 550 300 550 c 0
 328 550 350 528 350 500 c 0
 350 472 328 450 300 450 c 0
100 300 m 0
 72 300 50 322 50 350 c 0
 50 378 72 400 100 400 c 0
 128 400 150 378 150 350 c 0
 150 322 128 300 100 300 c 0
200 300 m 0x0880
 172 300 150 322 150 350 c 0
 150 378 172 400 200 400 c 0
 228 400 250 378 250 350 c 0
 250 322 228 300 200 300 c 0x0880
100 150 m 0x3140
 72 150 50 172 50 200 c 0
 50 228 72 250 100 250 c 0
 128 250 150 228 150 200 c 0
 150 172 128 150 100 150 c 0x3140
300 150 m 0
 272 150 250 172 250 200 c 0
 250 228 272 250 300 250 c 0
 328 250 350 228 350 200 c 0
 350 172 328 150 300 150 c 0
100 0 m 0
 72 0 50 22 50 50 c 0
 50 78 72 100 100 100 c 0
 128 100 150 78 150 50 c 0
 150 22 128 0 100 0 c 0
300 0 m 0
 272 0 250 22 250 50 c 0
 250 78 272 100 300 100 c 0
 328 100 350 78 350 50 c 0
 350 22 328 0 300 0 c 0
200 -150 m 0x4080
 172 -150 150 -128 150 -100 c 0
 150 -72 172 -50 200 -50 c 0
 228 -50 250 -72 250 -100 c 0
 250 -128 228 -150 200 -150 c 0x4080
100 -300 m 0x81
 72 -300 50 -278 50 -250 c 0
 50 -222 72 -200 100 -200 c 0
 128 -200 150 -222 150 -250 c 0
 150 -278 128 -300 100 -300 c 0x81
EndSplineSet
EndChar

StartChar: S
Encoding: 83 83 78
Width: 400
GlyphClass: 1
Flags: MW
HStem: 0 100<86 114 186 214> 150 100<286 314> 300 100<186 214> 450 100<86 114> 600 100<186 214 286 314>
VStem: 50 100<36 64 486 514> 150 100<36 64 36 64 336 364 636 664> 250 100<186 214 636 664 636 664>
LayerCount: 2
Fore
SplineSet
200 600 m 0xfa
 172 600 150 622 150 650 c 0
 150 678 172 700 200 700 c 0
 228 700 250 678 250 650 c 0
 250 622 228 600 200 600 c 0xfa
300 600 m 0x1d
 272 600 250 622 250 650 c 0
 250 678 272 700 300 700 c 0
 328 700 350 678 350 650 c 0
 350 622 328 600 300 600 c 0x1d
100 450 m 0
 72 450 50 472 50 500 c 0
 50 528 72 550 100 550 c 0
 128 550 150 528 150 500 c 0
 150 472 128 450 100 450 c 0
200 300 m 0x22
 172 300 150 322 150 350 c 0
 150 378 172 400 200 400 c 0
 228 400 250 378 250 350 c 0
 250 322 228 300 200 300 c 0x22
300 150 m 0xc5
 272 150 250 172 250 200 c 0
 250 228 272 250 300 250 c 0
 328 250 350 228 350 200 c 0
 350 172 328 150 300 150 c 0xc5
100 0 m 0
 72 0 50 22 50 50 c 0
 50 78 72 100 100 100 c 0
 128 100 150 78 150 50 c 0
 150 22 128 0 100 0 c 0
200 0 m 0x82
 172 0 150 22 150 50 c 0
 150 78 172 100 200 100 c 0
 228 100 250 78 250 50 c 0
 250 22 228 0 200 0 c 0x82
EndSplineSet
EndChar

StartChar: Sacute
Encoding: 346 346 79
Width: 400
GlyphClass: 1
Flags: MW
HStem: 0 100<86 114 186 214> 150 100<286 314> 300 100<186 214> 450 100<86 114> 600 100<186 214 286 314> 750 100<186 214> 900 100<286 314>
VStem: 50 100<36 64 486 514> 150 100<36 64 36 64 336 364 636 664 786 814> 250 100<186 214 636 664 636 664 936 964>
LayerCount: 2
Fore
SplineSet
300 900 m 0x0240
 272 900 250 922 250 950 c 0
 250 978 272 1000 300 1000 c 0
 328 1000 350 978 350 950 c 0
 350 922 328 900 300 900 c 0x0240
200 750 m 0x0c80
 172 750 150 772 150 800 c 0
 150 828 172 850 200 850 c 0
 228 850 250 828 250 800 c 0
 250 772 228 750 200 750 c 0x0c80
200 600 m 0
 172 600 150 622 150 650 c 0
 150 678 172 700 200 700 c 0
 228 700 250 678 250 650 c 0
 250 622 228 600 200 600 c 0
300 600 m 0x1940
 272 600 250 622 250 650 c 0
 250 678 272 700 300 700 c 0
 328 700 350 678 350 650 c 0
 350 622 328 600 300 600 c 0x1940
100 450 m 0
 72 450 50 472 50 500 c 0
 50 528 72 550 100 550 c 0
 128 550 150 528 150 500 c 0
 150 472 128 450 100 450 c 0
200 300 m 0x2080
 172 300 150 322 150 350 c 0
 150 378 172 400 200 400 c 0
 228 400 250 378 250 350 c 0
 250 322 228 300 200 300 c 0x2080
300 150 m 0xc140
 272 150 250 172 250 200 c 0
 250 228 272 250 300 250 c 0
 328 250 350 228 350 200 c 0
 350 172 328 150 300 150 c 0xc140
100 0 m 0
 72 0 50 22 50 50 c 0
 50 78 72 100 100 100 c 0
 128 100 150 78 150 50 c 0
 150 22 128 0 100 0 c 0
200 0 m 0x8080
 172 0 150 22 150 50 c 0
 150 78 172 100 200 100 c 0
 228 100 250 78 250 50 c 0
 250 22 228 0 200 0 c 0x8080
EndSplineSet
EndChar

StartChar: Scaron
Encoding: 352 352 80
Width: 400
GlyphClass: 1
Flags: MW
HStem: 0 100<86 114 186 214> 150 100<286 314> 300 100<186 214> 450 100<86 114> 600 100<186 214 286 314> 750 100<186 214> 900 100<86 114 286 314>
VStem: 50 100<36 64 486 514 936 964> 150 100<36 64 36 64 336 364 636 664 786 814 936 964> 250 100<186 214 636 664 636 664 936 964>
LayerCount: 2
Fore
SplineSet
100 900 m 0x0340
 72 900 50 922 50 950 c 0
 50 978 72 1000 100 1000 c 0
 128 1000 150 978 150 950 c 0
 150 922 128 900 100 900 c 0x0340
300 900 m 0
 272 900 250 922 250 950 c 0
 250 978 272 1000 300 1000 c 0
 328 1000 350 978 350 950 c 0
 350 922 328 900 300 900 c 0
200 750 m 0x0c80
 172 750 150 772 150 800 c 0
 150 828 172 850 200 850 c 0
 228 850 250 828 250 800 c 0
 250 772 228 750 200 750 c 0x0c80
200 600 m 0
 172 600 150 622 150 650 c 0
 150 678 172 700 200 700 c 0
 228 700 250 678 250 650 c 0
 250 622 228 600 200 600 c 0
300 600 m 0x1940
 272 600 250 622 250 650 c 0
 250 678 272 700 300 700 c 0
 328 700 350 678 350 650 c 0
 350 622 328 600 300 600 c 0x1940
100 450 m 0
 72 450 50 472 50 500 c 0
 50 528 72 550 100 550 c 0
 128 550 150 528 150 500 c 0
 150 472 128 450 100 450 c 0
200 300 m 0x2080
 172 300 150 322 150 350 c 0
 150 378 172 400 200 400 c 0
 228 400 250 378 250 350 c 0
 250 322 228 300 200 300 c 0x2080
300 150 m 0xc140
 272 150 250 172 250 200 c 0
 250 228 272 250 300 250 c 0
 328 250 350 228 350 200 c 0
 350 172 328 150 300 150 c 0xc140
100 0 m 0
 72 0 50 22 50 50 c 0
 50 78 72 100 100 100 c 0
 128 100 150 78 150 50 c 0
 150 22 128 0 100 0 c 0
200 0 m 0x8080
 172 0 150 22 150 50 c 0
 150 78 172 100 200 100 c 0
 228 100 250 78 250 50 c 0
 250 22 228 0 200 0 c 0x8080
EndSplineSet
EndChar

StartChar: Scedilla
Encoding: 350 350 81
Width: 400
GlyphClass: 1
Flags: MW
HStem: -300 100<86 114 186 214> -150 100<186 214> 0 100<86 114 186 214> 150 100<286 314> 300 100<186 214> 450 100<86 114> 600 100<186 214 286 314>
VStem: 50 100<-264 -236 36 64 486 514> 150 100<-264 -236 -264 -236 -114 -86 36 64 36 64 336 364 636 664> 250 100<186 214 636 664 636 664>
LayerCount: 2
Fore
SplineSet
200 600 m 0xfe80
 172 600 150 622 150 650 c 0
 150 678 172 700 200 700 c 0
 228 700 250 678 250 650 c 0
 250 622 228 600 200 600 c 0xfe80
300 600 m 0x0740
 272 600 250 622 250 650 c 0
 250 678 272 700 300 700 c 0
 328 700 350 678 350 650 c 0
 350 622 328 600 300 600 c 0x0740
100 450 m 0
 72 450 50 472 50 500 c 0
 50 528 72 550 100 550 c 0
 128 550 150 528 150 500 c 0
 150 472 128 450 100 450 c 0
200 300 m 0x0880
 172 300 150 322 150 350 c 0
 150 378 172 400 200 400 c 0
 228 400 250 378 250 350 c 0
 250 322 228 300 200 300 c 0x0880
300 150 m 0x3140
 272 150 250 172 250 200 c 0
 250 228 272 250 300 250 c 0
 328 250 350 228 350 200 c 0
 350 172 328 150 300 150 c 0x3140
100 0 m 0
 72 0 50 22 50 50 c 0
 50 78 72 100 100 100 c 0
 128 100 150 78 150 50 c 0
 150 22 128 0 100 0 c 0
200 0 m 0x6080
 172 0 150 22 150 50 c 0
 150 78 172 100 200 100 c 0
 228 100 250 78 250 50 c 0
 250 22 228 0 200 0 c 0x6080
200 -150 m 0
 172 -150 150 -128 150 -100 c 0
 150 -72 172 -50 200 -50 c 0
 228 -50 250 -72 250 -100 c 0
 250 -128 228 -150 200 -150 c 0
100 -300 m 0x81
 72 -300 50 -278 50 -250 c 0
 50 -222 72 -200 100 -200 c 0
 128 -200 150 -222 150 -250 c 0
 150 -278 128 -300 100 -300 c 0x81
200 -300 m 0x8080
 172 -300 150 -278 150 -250 c 0
 150 -222 172 -200 200 -200 c 0
 228 -200 250 -222 250 -250 c 0
 250 -278 228 -300 200 -300 c 0x8080
EndSplineSet
Substitution2: "'locl' Forme localizzate in Latino lookup 2 subtable" uni0218
Substitution2: "'locl' Forme localizzate in Latino lookup 1 subtable" uni0218
Substitution2: "'aalt' Accedi a tutte le alternative lookup 0 subtable" uni0218
EndChar

StartChar: uni0218
Encoding: 536 536 82
Width: 400
GlyphClass: 1
Flags: MW
HStem: -300 100<86 114> -150 100<186 214> 0 100<86 114 186 214> 150 100<286 314> 300 100<186 214> 450 100<86 114> 600 100<186 214 286 314>
VStem: 50 100<-264 -236 36 64 486 514> 150 100<-114 -86 36 64 36 64 336 364 636 664> 250 100<186 214 636 664 636 664>
LayerCount: 2
Fore
SplineSet
200 600 m 0xfe80
 172 600 150 622 150 650 c 0
 150 678 172 700 200 700 c 0
 228 700 250 678 250 650 c 0
 250 622 228 600 200 600 c 0xfe80
300 600 m 0x0740
 272 600 250 622 250 650 c 0
 250 678 272 700 300 700 c 0
 328 700 350 678 350 650 c 0
 350 622 328 600 300 600 c 0x0740
100 450 m 0
 72 450 50 472 50 500 c 0
 50 528 72 550 100 550 c 0
 128 550 150 528 150 500 c 0
 150 472 128 450 100 450 c 0
200 300 m 0x0880
 172 300 150 322 150 350 c 0
 150 378 172 400 200 400 c 0
 228 400 250 378 250 350 c 0
 250 322 228 300 200 300 c 0x0880
300 150 m 0x3140
 272 150 250 172 250 200 c 0
 250 228 272 250 300 250 c 0
 328 250 350 228 350 200 c 0
 350 172 328 150 300 150 c 0x3140
100 0 m 0
 72 0 50 22 50 50 c 0
 50 78 72 100 100 100 c 0
 128 100 150 78 150 50 c 0
 150 22 128 0 100 0 c 0
200 0 m 0x6080
 172 0 150 22 150 50 c 0
 150 78 172 100 200 100 c 0
 228 100 250 78 250 50 c 0
 250 22 228 0 200 0 c 0x6080
200 -150 m 0
 172 -150 150 -128 150 -100 c 0
 150 -72 172 -50 200 -50 c 0
 228 -50 250 -72 250 -100 c 0
 250 -128 228 -150 200 -150 c 0
100 -300 m 0x81
 72 -300 50 -278 50 -250 c 0
 50 -222 72 -200 100 -200 c 0
 128 -200 150 -222 150 -250 c 0
 150 -278 128 -300 100 -300 c 0x81
EndSplineSet
EndChar

StartChar: uni1E9E
Encoding: 7838 7838 83
Width: 400
GlyphClass: 1
Flags: MW
HStem: 0 100<86 114 186 214> 150 100<86 114 286 314> 300 100<86 114 186 214> 450 100<86 114 286 314> 600 100<186 214>
VStem: 50 100<36 64 186 214 336 364 486 514> 150 100<36 64 36 64 186 214 336 364 336 364 486 514 636 664> 250 100<186 214 486 514>
LayerCount: 2
Fore
SplineSet
200 600 m 0x0a
 172 600 150 622 150 650 c 0
 150 678 172 700 200 700 c 0
 228 700 250 678 250 650 c 0
 250 622 228 600 200 600 c 0x0a
100 450 m 0x35
 72 450 50 472 50 500 c 0
 50 528 72 550 100 550 c 0
 128 550 150 528 150 500 c 0
 150 472 128 450 100 450 c 0x35
300 450 m 0
 272 450 250 472 250 500 c 0
 250 528 272 550 300 550 c 0
 328 550 350 528 350 500 c 0
 350 472 328 450 300 450 c 0
100 300 m 0
 72 300 50 322 50 350 c 0
 50 378 72 400 100 400 c 0
 128 400 150 378 150 350 c 0
 150 322 128 300 100 300 c 0
200 300 m 0x22
 172 300 150 322 150 350 c 0
 150 378 172 400 200 400 c 0
 228 400 250 378 250 350 c 0
 250 322 228 300 200 300 c 0x22
100 150 m 0xc5
 72 150 50 172 50 200 c 0
 50 228 72 250 100 250 c 0
 128 250 150 228 150 200 c 0
 150 172 128 150 100 150 c 0xc5
300 150 m 0
 272 150 250 172 250 200 c 0
 250 228 272 250 300 250 c 0
 328 250 350 228 350 200 c 0
 350 172 328 150 300 150 c 0
100 0 m 0
 72 0 50 22 50 50 c 0
 50 78 72 100 100 100 c 0
 128 100 150 78 150 50 c 0
 150 22 128 0 100 0 c 0
200 0 m 0x82
 172 0 150 22 150 50 c 0
 150 78 172 100 200 100 c 0
 228 100 250 78 250 50 c 0
 250 22 228 0 200 0 c 0x82
EndSplineSet
EndChar

StartChar: T
Encoding: 84 84 84
Width: 400
GlyphClass: 1
Flags: MW
HStem: 0 100<186 214> 150 100<186 214> 300 100<186 214> 450 100<186 214> 600 100<86 114 186 214 286 314>
VStem: 50 100<636 664> 150 100<36 64 186 214 336 364 486 514 636 664 636 664> 250 100<636 664 636 664>
LayerCount: 2
Fore
SplineSet
100 600 m 0x0c
 72 600 50 622 50 650 c 0
 50 678 72 700 100 700 c 0
 128 700 150 678 150 650 c 0
 150 622 128 600 100 600 c 0x0c
200 600 m 0x0a
 172 600 150 622 150 650 c 0
 150 678 172 700 200 700 c 0
 228 700 250 678 250 650 c 0
 250 622 228 600 200 600 c 0x0a
300 600 m 0x09
 272 600 250 622 250 650 c 0
 250 678 272 700 300 700 c 0
 328 700 350 678 350 650 c 0
 350 622 328 600 300 600 c 0x09
200 450 m 0xf2
 172 450 150 472 150 500 c 0
 150 528 172 550 200 550 c 0
 228 550 250 528 250 500 c 0
 250 472 228 450 200 450 c 0xf2
200 300 m 0
 172 300 150 322 150 350 c 0
 150 378 172 400 200 400 c 0
 228 400 250 378 250 350 c 0
 250 322 228 300 200 300 c 0
200 150 m 0
 172 150 150 172 150 200 c 0
 150 228 172 250 200 250 c 0
 228 250 250 228 250 200 c 0
 250 172 228 150 200 150 c 0
200 0 m 0
 172 0 150 22 150 50 c 0
 150 78 172 100 200 100 c 0
 228 100 250 78 250 50 c 0
 250 22 228 0 200 0 c 0
EndSplineSet
EndChar

StartChar: Tbar
Encoding: 358 358 85
Width: 400
GlyphClass: 1
Flags: MW
HStem: 0 100<186 214> 150 100<186 214> 300 100<86 114 186 214 286 314> 450 100<186 214> 600 100<86 114 186 214 286 314>
VStem: 50 100<336 364 636 664> 150 100<36 64 186 214 336 364 336 364 486 514 636 664 636 664> 250 100<336 364 336 364 636 664 636 664>
LayerCount: 2
Fore
SplineSet
100 600 m 0x0c
 72 600 50 622 50 650 c 0
 50 678 72 700 100 700 c 0
 128 700 150 678 150 650 c 0
 150 622 128 600 100 600 c 0x0c
200 600 m 0x0a
 172 600 150 622 150 650 c 0
 150 678 172 700 200 700 c 0
 228 700 250 678 250 650 c 0
 250 622 228 600 200 600 c 0x0a
300 600 m 0x09
 272 600 250 622 250 650 c 0
 250 678 272 700 300 700 c 0
 328 700 350 678 350 650 c 0
 350 622 328 600 300 600 c 0x09
200 550 m 0x12
 228 550 250 528 250 500 c 0
 250 472 228 450 200 450 c 0
 172 450 150 472 150 500 c 0
 150 528 172 550 200 550 c 0x12
100 400 m 0x24
 128 400 150 378 150 350 c 0
 150 322 128 300 100 300 c 0
 72 300 50 322 50 350 c 0
 50 378 72 400 100 400 c 0x24
200 400 m 0x22
 228 400 250 378 250 350 c 0
 250 322 228 300 200 300 c 0
 172 300 150 322 150 350 c 0
 150 378 172 400 200 400 c 0x22
300 400 m 0x21
 328 400 350 378 350 350 c 0
 350 322 328 300 300 300 c 0
 272 300 250 322 250 350 c 0
 250 378 272 400 300 400 c 0x21
200 250 m 0xc2
 228 250 250 228 250 200 c 0
 250 172 228 150 200 150 c 0
 172 150 150 172 150 200 c 0
 150 228 172 250 200 250 c 0xc2
200 100 m 0
 228 100 250 78 250 50 c 0
 250 22 228 0 200 0 c 0
 172 0 150 22 150 50 c 0
 150 78 172 100 200 100 c 0
EndSplineSet
EndChar

StartChar: Tcaron
Encoding: 356 356 86
Width: 400
GlyphClass: 1
Flags: MW
HStem: 0 100<186 214> 150 100<186 214> 300 100<186 214> 450 100<186 214> 600 100<86 114 186 214 286 314> 750 100<186 214> 900 100<86 114 286 314>
VStem: 50 100<636 664 936 964> 150 100<36 64 186 214 336 364 486 514 636 664 636 664 786 814 936 964> 250 100<636 664 636 664 936 964>
LayerCount: 2
Fore
SplineSet
100 900 m 0x0340
 72 900 50 922 50 950 c 0
 50 978 72 1000 100 1000 c 0
 128 1000 150 978 150 950 c 0
 150 922 128 900 100 900 c 0x0340
300 900 m 0
 272 900 250 922 250 950 c 0
 250 978 272 1000 300 1000 c 0
 328 1000 350 978 350 950 c 0
 350 922 328 900 300 900 c 0
200 750 m 0x0480
 172 750 150 772 150 800 c 0
 150 828 172 850 200 850 c 0
 228 850 250 828 250 800 c 0
 250 772 228 750 200 750 c 0x0480
100 600 m 0x09
 72 600 50 622 50 650 c 0
 50 678 72 700 100 700 c 0
 128 700 150 678 150 650 c 0
 150 622 128 600 100 600 c 0x09
200 600 m 0x0880
 172 600 150 622 150 650 c 0
 150 678 172 700 200 700 c 0
 228 700 250 678 250 650 c 0
 250 622 228 600 200 600 c 0x0880
300 600 m 0x0840
 272 600 250 622 250 650 c 0
 250 678 272 700 300 700 c 0
 328 700 350 678 350 650 c 0
 350 622 328 600 300 600 c 0x0840
200 450 m 0xf080
 172 450 150 472 150 500 c 0
 150 528 172 550 200 550 c 0
 228 550 250 528 250 500 c 0
 250 472 228 450 200 450 c 0xf080
200 300 m 0
 172 300 150 322 150 350 c 0
 150 378 172 400 200 400 c 0
 228 400 250 378 250 350 c 0
 250 322 228 300 200 300 c 0
200 150 m 0
 172 150 150 172 150 200 c 0
 150 228 172 250 200 250 c 0
 228 250 250 228 250 200 c 0
 250 172 228 150 200 150 c 0
200 0 m 0
 172 0 150 22 150 50 c 0
 150 78 172 100 200 100 c 0
 228 100 250 78 250 50 c 0
 250 22 228 0 200 0 c 0
EndSplineSet
EndChar

StartChar: uni0162
Encoding: 354 354 87
Width: 400
GlyphClass: 1
Flags: MW
HStem: -300 100<86 114 186 214> -150 100<186 214> 0 100<186 214> 150 100<186 214> 300 100<186 214> 450 100<186 214> 600 100<86 114 186 214 286 314>
VStem: 50 100<-264 -236 636 664> 150 100<-264 -236 -264 -236 -114 -86 36 64 186 214 336 364 486 514 636 664 636 664> 250 100<636 664 636 664>
LayerCount: 2
Fore
SplineSet
100 600 m 0x03
 72 600 50 622 50 650 c 0
 50 678 72 700 100 700 c 0
 128 700 150 678 150 650 c 0
 150 622 128 600 100 600 c 0x03
200 600 m 0x0280
 172 600 150 622 150 650 c 0
 150 678 172 700 200 700 c 0
 228 700 250 678 250 650 c 0
 250 622 228 600 200 600 c 0x0280
300 600 m 0x0240
 272 600 250 622 250 650 c 0
 250 678 272 700 300 700 c 0
 328 700 350 678 350 650 c 0
 350 622 328 600 300 600 c 0x0240
200 450 m 0x7c80
 172 450 150 472 150 500 c 0
 150 528 172 550 200 550 c 0
 228 550 250 528 250 500 c 0
 250 472 228 450 200 450 c 0x7c80
200 300 m 0
 172 300 150 322 150 350 c 0
 150 378 172 400 200 400 c 0
 228 400 250 378 250 350 c 0
 250 322 228 300 200 300 c 0
200 150 m 0
 172 150 150 172 150 200 c 0
 150 228 172 250 200 250 c 0
 228 250 250 228 250 200 c 0
 250 172 228 150 200 150 c 0
200 0 m 0
 172 0 150 22 150 50 c 0
 150 78 172 100 200 100 c 0
 228 100 250 78 250 50 c 0
 250 22 228 0 200 0 c 0
200 -150 m 0
 172 -150 150 -128 150 -100 c 0
 150 -72 172 -50 200 -50 c 0
 228 -50 250 -72 250 -100 c 0
 250 -128 228 -150 200 -150 c 0
100 -300 m 0x81
 72 -300 50 -278 50 -250 c 0
 50 -222 72 -200 100 -200 c 0
 128 -200 150 -222 150 -250 c 0
 150 -278 128 -300 100 -300 c 0x81
200 -300 m 0x8080
 172 -300 150 -278 150 -250 c 0
 150 -222 172 -200 200 -200 c 0
 228 -200 250 -222 250 -250 c 0
 250 -278 228 -300 200 -300 c 0x8080
EndSplineSet
Substitution2: "'locl' Forme localizzate in Latino lookup 2 subtable" uni021A
Substitution2: "'locl' Forme localizzate in Latino lookup 1 subtable" uni021A
Substitution2: "'aalt' Accedi a tutte le alternative lookup 0 subtable" uni021A
EndChar

StartChar: uni021A
Encoding: 538 538 88
Width: 400
GlyphClass: 1
Flags: MW
HStem: -300 100<86 114> -150 100<186 214> 0 100<186 214> 150 100<186 214> 300 100<186 214> 450 100<186 214> 600 100<86 114 186 214 286 314>
VStem: 50 100<-264 -236 636 664> 150 100<-114 -86 36 64 186 214 336 364 486 514 636 664 636 664> 250 100<636 664 636 664>
LayerCount: 2
Fore
SplineSet
100 600 m 0x03
 72 600 50 622 50 650 c 0
 50 678 72 700 100 700 c 0
 128 700 150 678 150 650 c 0
 150 622 128 600 100 600 c 0x03
200 600 m 0x0280
 172 600 150 622 150 650 c 0
 150 678 172 700 200 700 c 0
 228 700 250 678 250 650 c 0
 250 622 228 600 200 600 c 0x0280
300 600 m 0x0240
 272 600 250 622 250 650 c 0
 250 678 272 700 300 700 c 0
 328 700 350 678 350 650 c 0
 350 622 328 600 300 600 c 0x0240
200 450 m 0x7c80
 172 450 150 472 150 500 c 0
 150 528 172 550 200 550 c 0
 228 550 250 528 250 500 c 0
 250 472 228 450 200 450 c 0x7c80
200 300 m 0
 172 300 150 322 150 350 c 0
 150 378 172 400 200 400 c 0
 228 400 250 378 250 350 c 0
 250 322 228 300 200 300 c 0
200 150 m 0
 172 150 150 172 150 200 c 0
 150 228 172 250 200 250 c 0
 228 250 250 228 250 200 c 0
 250 172 228 150 200 150 c 0
200 0 m 0
 172 0 150 22 150 50 c 0
 150 78 172 100 200 100 c 0
 228 100 250 78 250 50 c 0
 250 22 228 0 200 0 c 0
200 -150 m 0
 172 -150 150 -128 150 -100 c 0
 150 -72 172 -50 200 -50 c 0
 228 -50 250 -72 250 -100 c 0
 250 -128 228 -150 200 -150 c 0
100 -300 m 0x81
 72 -300 50 -278 50 -250 c 0
 50 -222 72 -200 100 -200 c 0
 128 -200 150 -222 150 -250 c 0
 150 -278 128 -300 100 -300 c 0x81
EndSplineSet
EndChar

StartChar: U
Encoding: 85 85 89
Width: 400
GlyphClass: 1
Flags: MW
HStem: 0 100<186 214 286 314> 150 100<86 114 286 314> 300 100<86 114 286 314> 450 100<86 114 286 314> 600 100<86 114 286 314>
VStem: 50 100<186 214 336 364 486 514 636 664> 150 100<36 64 186 214 336 364 486 514 636 664> 250 100<36 64 36 64 186 214 336 364 486 514 636 664>
LayerCount: 2
Fore
SplineSet
100 600 m 0xfd
 72 600 50 622 50 650 c 0
 50 678 72 700 100 700 c 0
 128 700 150 678 150 650 c 0
 150 622 128 600 100 600 c 0xfd
300 600 m 0
 272 600 250 622 250 650 c 0
 250 678 272 700 300 700 c 0
 328 700 350 678 350 650 c 0
 350 622 328 600 300 600 c 0
100 450 m 0
 72 450 50 472 50 500 c 0
 50 528 72 550 100 550 c 0
 128 550 150 528 150 500 c 0
 150 472 128 450 100 450 c 0
300 450 m 0
 272 450 250 472 250 500 c 0
 250 528 272 550 300 550 c 0
 328 550 350 528 350 500 c 0
 350 472 328 450 300 450 c 0
100 300 m 0
 72 300 50 322 50 350 c 0
 50 378 72 400 100 400 c 0
 128 400 150 378 150 350 c 0
 150 322 128 300 100 300 c 0
300 300 m 0
 272 300 250 322 250 350 c 0
 250 378 272 400 300 400 c 0
 328 400 350 378 350 350 c 0
 350 322 328 300 300 300 c 0
100 150 m 0
 72 150 50 172 50 200 c 0
 50 228 72 250 100 250 c 0
 128 250 150 228 150 200 c 0
 150 172 128 150 100 150 c 0
300 150 m 0
 272 150 250 172 250 200 c 0
 250 228 272 250 300 250 c 0
 328 250 350 228 350 200 c 0
 350 172 328 150 300 150 c 0
200 0 m 0x82
 172 0 150 22 150 50 c 0
 150 78 172 100 200 100 c 0
 228 100 250 78 250 50 c 0
 250 22 228 0 200 0 c 0x82
300 0 m 0x81
 272 0 250 22 250 50 c 0
 250 78 272 100 300 100 c 0
 328 100 350 78 350 50 c 0
 350 22 328 0 300 0 c 0x81
EndSplineSet
EndChar

StartChar: Uacute
Encoding: 218 218 90
Width: 400
GlyphClass: 1
Flags: MW
HStem: 0 100<186 214 286 314> 150 100<86 114 286 314> 300 100<86 114 286 314> 450 100<86 114 286 314> 600 100<86 114 286 314> 750 100<186 214> 900 100<286 314>
VStem: 50 100<186 214 336 364 486 514 636 664> 150 100<36 64 186 214 336 364 486 514 636 664 786 814> 250 100<36 64 36 64 186 214 336 364 486 514 636 664 936 964>
LayerCount: 2
Fore
SplineSet
300 900 m 0xff40
 272 900 250 922 250 950 c 0
 250 978 272 1000 300 1000 c 0
 328 1000 350 978 350 950 c 0
 350 922 328 900 300 900 c 0xff40
200 750 m 0x0480
 172 750 150 772 150 800 c 0
 150 828 172 850 200 850 c 0
 228 850 250 828 250 800 c 0
 250 772 228 750 200 750 c 0x0480
100 600 m 0x7940
 72 600 50 622 50 650 c 0
 50 678 72 700 100 700 c 0
 128 700 150 678 150 650 c 0
 150 622 128 600 100 600 c 0x7940
300 600 m 0
 272 600 250 622 250 650 c 0
 250 678 272 700 300 700 c 0
 328 700 350 678 350 650 c 0
 350 622 328 600 300 600 c 0
100 450 m 0
 72 450 50 472 50 500 c 0
 50 528 72 550 100 550 c 0
 128 550 150 528 150 500 c 0
 150 472 128 450 100 450 c 0
300 450 m 0
 272 450 250 472 250 500 c 0
 250 528 272 550 300 550 c 0
 328 550 350 528 350 500 c 0
 350 472 328 450 300 450 c 0
100 300 m 0
 72 300 50 322 50 350 c 0
 50 378 72 400 100 400 c 0
 128 400 150 378 150 350 c 0
 150 322 128 300 100 300 c 0
300 300 m 0
 272 300 250 322 250 350 c 0
 250 378 272 400 300 400 c 0
 328 400 350 378 350 350 c 0
 350 322 328 300 300 300 c 0
100 150 m 0
 72 150 50 172 50 200 c 0
 50 228 72 250 100 250 c 0
 128 250 150 228 150 200 c 0
 150 172 128 150 100 150 c 0
300 150 m 0
 272 150 250 172 250 200 c 0
 250 228 272 250 300 250 c 0
 328 250 350 228 350 200 c 0
 350 172 328 150 300 150 c 0
200 0 m 0x8080
 172 0 150 22 150 50 c 0
 150 78 172 100 200 100 c 0
 228 100 250 78 250 50 c 0
 250 22 228 0 200 0 c 0x8080
300 0 m 0x8040
 272 0 250 22 250 50 c 0
 250 78 272 100 300 100 c 0
 328 100 350 78 350 50 c 0
 350 22 328 0 300 0 c 0x8040
EndSplineSet
EndChar

StartChar: Ucircumflex
Encoding: 219 219 91
Width: 400
GlyphClass: 1
Flags: MW
HStem: 0 100<186 214 286 314> 150 100<86 114 286 314> 300 100<86 114 286 314> 450 100<86 114 286 314> 600 100<86 114 286 314> 750 100<86 114 286 314> 900 100<186 214>
VStem: 50 100<186 214 336 364 486 514 636 664 786 814> 150 100<36 64 186 214 336 364 486 514 636 664 786 814 936 964> 250 100<36 64 36 64 186 214 336 364 486 514 636 664 786 814>
LayerCount: 2
Fore
SplineSet
200 900 m 0x0280
 172 900 150 922 150 950 c 0
 150 978 172 1000 200 1000 c 0
 228 1000 250 978 250 950 c 0
 250 922 228 900 200 900 c 0x0280
100 750 m 0x7d40
 72 750 50 772 50 800 c 0
 50 828 72 850 100 850 c 0
 128 850 150 828 150 800 c 0
 150 772 128 750 100 750 c 0x7d40
300 750 m 0
 272 750 250 772 250 800 c 0
 250 828 272 850 300 850 c 0
 328 850 350 828 350 800 c 0
 350 772 328 750 300 750 c 0
100 600 m 0
 72 600 50 622 50 650 c 0
 50 678 72 700 100 700 c 0
 128 700 150 678 150 650 c 0
 150 622 128 600 100 600 c 0
300 600 m 0
 272 600 250 622 250 650 c 0
 250 678 272 700 300 700 c 0
 328 700 350 678 350 650 c 0
 350 622 328 600 300 600 c 0
100 450 m 0
 72 450 50 472 50 500 c 0
 50 528 72 550 100 550 c 0
 128 550 150 528 150 500 c 0
 150 472 128 450 100 450 c 0
300 450 m 0
 272 450 250 472 250 500 c 0
 250 528 272 550 300 550 c 0
 328 550 350 528 350 500 c 0
 350 472 328 450 300 450 c 0
100 300 m 0
 72 300 50 322 50 350 c 0
 50 378 72 400 100 400 c 0
 128 400 150 378 150 350 c 0
 150 322 128 300 100 300 c 0
300 300 m 0
 272 300 250 322 250 350 c 0
 250 378 272 400 300 400 c 0
 328 400 350 378 350 350 c 0
 350 322 328 300 300 300 c 0
100 150 m 0
 72 150 50 172 50 200 c 0
 50 228 72 250 100 250 c 0
 128 250 150 228 150 200 c 0
 150 172 128 150 100 150 c 0
300 150 m 0
 272 150 250 172 250 200 c 0
 250 228 272 250 300 250 c 0
 328 250 350 228 350 200 c 0
 350 172 328 150 300 150 c 0
200 0 m 0x8080
 172 0 150 22 150 50 c 0
 150 78 172 100 200 100 c 0
 228 100 250 78 250 50 c 0
 250 22 228 0 200 0 c 0x8080
300 0 m 0x8040
 272 0 250 22 250 50 c 0
 250 78 272 100 300 100 c 0
 328 100 350 78 350 50 c 0
 350 22 328 0 300 0 c 0x8040
EndSplineSet
EndChar

StartChar: Udieresis
Encoding: 220 220 92
Width: 400
GlyphClass: 1
Flags: MW
HStem: 0 100<186 214 286 314> 150 100<86 114 286 314> 300 100<86 114 286 314> 450 100<86 114 286 314> 600 100<86 114 286 314> 900 100<86 114 286 314>
VStem: 50 100<186 214 336 364 486 514 636 664 936 964> 150 100<36 64 186 214 336 364 486 514 636 664 936 964> 250 100<36 64 36 64 186 214 336 364 486 514 636 664 936 964>
LayerCount: 2
Fore
SplineSet
100 900 m 0xfe80
 72 900 50 922 50 950 c 0
 50 978 72 1000 100 1000 c 0
 128 1000 150 978 150 950 c 0
 150 922 128 900 100 900 c 0xfe80
300 900 m 0
 272 900 250 922 250 950 c 0
 250 978 272 1000 300 1000 c 0
 328 1000 350 978 350 950 c 0
 350 922 328 900 300 900 c 0
100 600 m 0
 72 600 50 622 50 650 c 0
 50 678 72 700 100 700 c 0
 128 700 150 678 150 650 c 0
 150 622 128 600 100 600 c 0
300 600 m 0
 272 600 250 622 250 650 c 0
 250 678 272 700 300 700 c 0
 328 700 350 678 350 650 c 0
 350 622 328 600 300 600 c 0
100 450 m 0
 72 450 50 472 50 500 c 0
 50 528 72 550 100 550 c 0
 128 550 150 528 150 500 c 0
 150 472 128 450 100 450 c 0
300 450 m 0
 272 450 250 472 250 500 c 0
 250 528 272 550 300 550 c 0
 328 550 350 528 350 500 c 0
 350 472 328 450 300 450 c 0
100 300 m 0
 72 300 50 322 50 350 c 0
 50 378 72 400 100 400 c 0
 128 400 150 378 150 350 c 0
 150 322 128 300 100 300 c 0
300 300 m 0
 272 300 250 322 250 350 c 0
 250 378 272 400 300 400 c 0
 328 400 350 378 350 350 c 0
 350 322 328 300 300 300 c 0
100 150 m 0
 72 150 50 172 50 200 c 0
 50 228 72 250 100 250 c 0
 128 250 150 228 150 200 c 0
 150 172 128 150 100 150 c 0
300 150 m 0
 272 150 250 172 250 200 c 0
 250 228 272 250 300 250 c 0
 328 250 350 228 350 200 c 0
 350 172 328 150 300 150 c 0
200 0 m 0x81
 172 0 150 22 150 50 c 0
 150 78 172 100 200 100 c 0
 228 100 250 78 250 50 c 0
 250 22 228 0 200 0 c 0x81
300 0 m 0x8080
 272 0 250 22 250 50 c 0
 250 78 272 100 300 100 c 0
 328 100 350 78 350 50 c 0
 350 22 328 0 300 0 c 0x8080
EndSplineSet
EndChar

StartChar: Ugrave
Encoding: 217 217 93
Width: 400
GlyphClass: 1
Flags: MW
HStem: 0 100<186 214 286 314> 150 100<86 114 286 314> 300 100<86 114 286 314> 450 100<86 114 286 314> 600 100<86 114 286 314> 750 100<186 214> 900 100<86 114>
VStem: 50 100<186 214 336 364 486 514 636 664 936 964> 150 100<36 64 186 214 336 364 486 514 636 664 786 814> 250 100<36 64 36 64 186 214 336 364 486 514 636 664>
LayerCount: 2
Fore
SplineSet
100 900 m 0xff40
 72 900 50 922 50 950 c 0
 50 978 72 1000 100 1000 c 0
 128 1000 150 978 150 950 c 0
 150 922 128 900 100 900 c 0xff40
200 750 m 0x0480
 172 750 150 772 150 800 c 0
 150 828 172 850 200 850 c 0
 228 850 250 828 250 800 c 0
 250 772 228 750 200 750 c 0x0480
100 600 m 0x7940
 72 600 50 622 50 650 c 0
 50 678 72 700 100 700 c 0
 128 700 150 678 150 650 c 0
 150 622 128 600 100 600 c 0x7940
300 600 m 0
 272 600 250 622 250 650 c 0
 250 678 272 700 300 700 c 0
 328 700 350 678 350 650 c 0
 350 622 328 600 300 600 c 0
100 450 m 0
 72 450 50 472 50 500 c 0
 50 528 72 550 100 550 c 0
 128 550 150 528 150 500 c 0
 150 472 128 450 100 450 c 0
300 450 m 0
 272 450 250 472 250 500 c 0
 250 528 272 550 300 550 c 0
 328 550 350 528 350 500 c 0
 350 472 328 450 300 450 c 0
100 300 m 0
 72 300 50 322 50 350 c 0
 50 378 72 400 100 400 c 0
 128 400 150 378 150 350 c 0
 150 322 128 300 100 300 c 0
300 300 m 0
 272 300 250 322 250 350 c 0
 250 378 272 400 300 400 c 0
 328 400 350 378 350 350 c 0
 350 322 328 300 300 300 c 0
100 150 m 0
 72 150 50 172 50 200 c 0
 50 228 72 250 100 250 c 0
 128 250 150 228 150 200 c 0
 150 172 128 150 100 150 c 0
300 150 m 0
 272 150 250 172 250 200 c 0
 250 228 272 250 300 250 c 0
 328 250 350 228 350 200 c 0
 350 172 328 150 300 150 c 0
200 0 m 0x8080
 172 0 150 22 150 50 c 0
 150 78 172 100 200 100 c 0
 228 100 250 78 250 50 c 0
 250 22 228 0 200 0 c 0x8080
300 0 m 0x8040
 272 0 250 22 250 50 c 0
 250 78 272 100 300 100 c 0
 328 100 350 78 350 50 c 0
 350 22 328 0 300 0 c 0x8040
EndSplineSet
EndChar

StartChar: Uhungarumlaut
Encoding: 368 368 94
Width: 400
GlyphClass: 1
Flags: MW
HStem: 0 100<186 214 286 314> 150 100<86 114 286 314> 300 100<86 114 286 314> 450 100<86 114 286 314> 600 100<86 114 286 314> 750 100<86 114 186 214> 900 100<186 214 286 314>
VStem: 50 100<186 214 336 364 486 514 636 664 786 814> 150 100<36 64 186 214 336 364 486 514 636 664 786 814 786 814 936 964> 250 100<36 64 36 64 186 214 336 364 486 514 636 664 936 964 936 964>
LayerCount: 2
Fore
SplineSet
200 900 m 0x0280
 172 900 150 922 150 950 c 0
 150 978 172 1000 200 1000 c 0
 228 1000 250 978 250 950 c 0
 250 922 228 900 200 900 c 0x0280
300 900 m 0x0740
 272 900 250 922 250 950 c 0
 250 978 272 1000 300 1000 c 0
 328 1000 350 978 350 950 c 0
 350 922 328 900 300 900 c 0x0740
100 750 m 0
 72 750 50 772 50 800 c 0
 50 828 72 850 100 850 c 0
 128 850 150 828 150 800 c 0
 150 772 128 750 100 750 c 0
200 750 m 0x0480
 172 750 150 772 150 800 c 0
 150 828 172 850 200 850 c 0
 228 850 250 828 250 800 c 0
 250 772 228 750 200 750 c 0x0480
100 600 m 0x7940
 72 600 50 622 50 650 c 0
 50 678 72 700 100 700 c 0
 128 700 150 678 150 650 c 0
 150 622 128 600 100 600 c 0x7940
300 600 m 0
 272 600 250 622 250 650 c 0
 250 678 272 700 300 700 c 0
 328 700 350 678 350 650 c 0
 350 622 328 600 300 600 c 0
100 450 m 0
 72 450 50 472 50 500 c 0
 50 528 72 550 100 550 c 0
 128 550 150 528 150 500 c 0
 150 472 128 450 100 450 c 0
300 450 m 0
 272 450 250 472 250 500 c 0
 250 528 272 550 300 550 c 0
 328 550 350 528 350 500 c 0
 350 472 328 450 300 450 c 0
100 300 m 0
 72 300 50 322 50 350 c 0
 50 378 72 400 100 400 c 0
 128 400 150 378 150 350 c 0
 150 322 128 300 100 300 c 0
300 300 m 0
 272 300 250 322 250 350 c 0
 250 378 272 400 300 400 c 0
 328 400 350 378 350 350 c 0
 350 322 328 300 300 300 c 0
100 150 m 0
 72 150 50 172 50 200 c 0
 50 228 72 250 100 250 c 0
 128 250 150 228 150 200 c 0
 150 172 128 150 100 150 c 0
300 150 m 0
 272 150 250 172 250 200 c 0
 250 228 272 250 300 250 c 0
 328 250 350 228 350 200 c 0
 350 172 328 150 300 150 c 0
200 0 m 0x8080
 172 0 150 22 150 50 c 0
 150 78 172 100 200 100 c 0
 228 100 250 78 250 50 c 0
 250 22 228 0 200 0 c 0x8080
300 0 m 0x8040
 272 0 250 22 250 50 c 0
 250 78 272 100 300 100 c 0
 328 100 350 78 350 50 c 0
 350 22 328 0 300 0 c 0x8040
EndSplineSet
EndChar

StartChar: Umacron
Encoding: 362 362 95
Width: 400
GlyphClass: 1
Flags: MW
HStem: 0 100<186 214 286 314> 150 100<86 114 286 314> 300 100<86 114 286 314> 450 100<86 114 286 314> 600 100<86 114 286 314> 900 100<86 114 186 214 286 314>
VStem: 50 100<186 214 336 364 486 514 636 664 936 964> 150 100<36 64 186 214 336 364 486 514 636 664 936 964 936 964> 250 100<36 64 36 64 186 214 336 364 486 514 636 664 936 964 936 964>
LayerCount: 2
Fore
SplineSet
100 900 m 0xfe80
 72 900 50 922 50 950 c 0
 50 978 72 1000 100 1000 c 0
 128 1000 150 978 150 950 c 0
 150 922 128 900 100 900 c 0xfe80
200 900 m 0x05
 172 900 150 922 150 950 c 0
 150 978 172 1000 200 1000 c 0
 228 1000 250 978 250 950 c 0
 250 922 228 900 200 900 c 0x05
300 900 m 0x7e80
 272 900 250 922 250 950 c 0
 250 978 272 1000 300 1000 c 0
 328 1000 350 978 350 950 c 0
 350 922 328 900 300 900 c 0x7e80
100 600 m 0
 72 600 50 622 50 650 c 0
 50 678 72 700 100 700 c 0
 128 700 150 678 150 650 c 0
 150 622 128 600 100 600 c 0
300 600 m 0
 272 600 250 622 250 650 c 0
 250 678 272 700 300 700 c 0
 328 700 350 678 350 650 c 0
 350 622 328 600 300 600 c 0
100 450 m 0
 72 450 50 472 50 500 c 0
 50 528 72 550 100 550 c 0
 128 550 150 528 150 500 c 0
 150 472 128 450 100 450 c 0
300 450 m 0
 272 450 250 472 250 500 c 0
 250 528 272 550 300 550 c 0
 328 550 350 528 350 500 c 0
 350 472 328 450 300 450 c 0
100 300 m 0
 72 300 50 322 50 350 c 0
 50 378 72 400 100 400 c 0
 128 400 150 378 150 350 c 0
 150 322 128 300 100 300 c 0
300 300 m 0
 272 300 250 322 250 350 c 0
 250 378 272 400 300 400 c 0
 328 400 350 378 350 350 c 0
 350 322 328 300 300 300 c 0
100 150 m 0
 72 150 50 172 50 200 c 0
 50 228 72 250 100 250 c 0
 128 250 150 228 150 200 c 0
 150 172 128 150 100 150 c 0
300 150 m 0
 272 150 250 172 250 200 c 0
 250 228 272 250 300 250 c 0
 328 250 350 228 350 200 c 0
 350 172 328 150 300 150 c 0
200 0 m 0x81
 172 0 150 22 150 50 c 0
 150 78 172 100 200 100 c 0
 228 100 250 78 250 50 c 0
 250 22 228 0 200 0 c 0x81
300 0 m 0x8080
 272 0 250 22 250 50 c 0
 250 78 272 100 300 100 c 0
 328 100 350 78 350 50 c 0
 350 22 328 0 300 0 c 0x8080
EndSplineSet
EndChar

StartChar: Uogonek
Encoding: 370 370 96
Width: 400
GlyphClass: 1
Flags: MW
HStem: -300 100<186 214 286 314> -150 100<186 214> 0 100<186 214 286 314> 150 100<86 114 286 314> 300 100<86 114 286 314> 450 100<86 114 286 314> 600 100<86 114 286 314>
VStem: 50 100<186 214 336 364 486 514 636 664> 150 100<-264 -236 -114 -86 36 64 186 214 336 364 486 514 636 664> 250 100<-264 -236 -264 -236 36 64 36 64 186 214 336 364 486 514 636 664>
LayerCount: 2
Fore
SplineSet
100 600 m 0xff40
 72 600 50 622 50 650 c 0
 50 678 72 700 100 700 c 0
 128 700 150 678 150 650 c 0
 150 622 128 600 100 600 c 0xff40
300 600 m 0
 272 600 250 622 250 650 c 0
 250 678 272 700 300 700 c 0
 328 700 350 678 350 650 c 0
 350 622 328 600 300 600 c 0
100 450 m 0
 72 450 50 472 50 500 c 0
 50 528 72 550 100 550 c 0
 128 550 150 528 150 500 c 0
 150 472 128 450 100 450 c 0
300 450 m 0
 272 450 250 472 250 500 c 0
 250 528 272 550 300 550 c 0
 328 550 350 528 350 500 c 0
 350 472 328 450 300 450 c 0
100 300 m 0
 72 300 50 322 50 350 c 0
 50 378 72 400 100 400 c 0
 128 400 150 378 150 350 c 0
 150 322 128 300 100 300 c 0
300 300 m 0
 272 300 250 322 250 350 c 0
 250 378 272 400 300 400 c 0
 328 400 350 378 350 350 c 0
 350 322 328 300 300 300 c 0
100 150 m 0
 72 150 50 172 50 200 c 0
 50 228 72 250 100 250 c 0
 128 250 150 228 150 200 c 0
 150 172 128 150 100 150 c 0
300 150 m 0
 272 150 250 172 250 200 c 0
 250 228 272 250 300 250 c 0
 328 250 350 228 350 200 c 0
 350 172 328 150 300 150 c 0
200 0 m 0x2080
 172 0 150 22 150 50 c 0
 150 78 172 100 200 100 c 0
 228 100 250 78 250 50 c 0
 250 22 228 0 200 0 c 0x2080
300 0 m 0x2040
 272 0 250 22 250 50 c 0
 250 78 272 100 300 100 c 0
 328 100 350 78 350 50 c 0
 350 22 328 0 300 0 c 0x2040
200 -150 m 0xc080
 172 -150 150 -128 150 -100 c 0
 150 -72 172 -50 200 -50 c 0
 228 -50 250 -72 250 -100 c 0
 250 -128 228 -150 200 -150 c 0xc080
200 -300 m 0
 172 -300 150 -278 150 -250 c 0
 150 -222 172 -200 200 -200 c 0
 228 -200 250 -222 250 -250 c 0
 250 -278 228 -300 200 -300 c 0
300 -300 m 0x8040
 272 -300 250 -278 250 -250 c 0
 250 -222 272 -200 300 -200 c 0
 328 -200 350 -222 350 -250 c 0
 350 -278 328 -300 300 -300 c 0x8040
EndSplineSet
EndChar

StartChar: Uring
Encoding: 366 366 97
Width: 400
GlyphClass: 1
Flags: MW
HStem: 0 100<186 214 286 314> 150 100<86 114 286 314> 300 100<86 114 286 314> 450 100<86 114 286 314> 600 100<86 114 286 314> 750 100<86 114 186 214> 900 100<86 114 186 214>
VStem: 50 100<186 214 336 364 486 514 636 664 786 814 936 964> 150 100<36 64 186 214 336 364 486 514 636 664 786 814 786 814 936 964 936 964> 250 100<36 64 36 64 186 214 336 364 486 514 636 664>
LayerCount: 2
Fore
SplineSet
100 900 m 0xff40
 72 900 50 922 50 950 c 0
 50 978 72 1000 100 1000 c 0
 128 1000 150 978 150 950 c 0
 150 922 128 900 100 900 c 0xff40
200 900 m 0x0280
 172 900 150 922 150 950 c 0
 150 978 172 1000 200 1000 c 0
 228 1000 250 978 250 950 c 0
 250 922 228 900 200 900 c 0x0280
100 750 m 0x05
 72 750 50 772 50 800 c 0
 50 828 72 850 100 850 c 0
 128 850 150 828 150 800 c 0
 150 772 128 750 100 750 c 0x05
200 750 m 0x0480
 172 750 150 772 150 800 c 0
 150 828 172 850 200 850 c 0
 228 850 250 828 250 800 c 0
 250 772 228 750 200 750 c 0x0480
100 600 m 0x7940
 72 600 50 622 50 650 c 0
 50 678 72 700 100 700 c 0
 128 700 150 678 150 650 c 0
 150 622 128 600 100 600 c 0x7940
300 600 m 0
 272 600 250 622 250 650 c 0
 250 678 272 700 300 700 c 0
 328 700 350 678 350 650 c 0
 350 622 328 600 300 600 c 0
100 450 m 0
 72 450 50 472 50 500 c 0
 50 528 72 550 100 550 c 0
 128 550 150 528 150 500 c 0
 150 472 128 450 100 450 c 0
300 450 m 0
 272 450 250 472 250 500 c 0
 250 528 272 550 300 550 c 0
 328 550 350 528 350 500 c 0
 350 472 328 450 300 450 c 0
100 300 m 0
 72 300 50 322 50 350 c 0
 50 378 72 400 100 400 c 0
 128 400 150 378 150 350 c 0
 150 322 128 300 100 300 c 0
300 300 m 0
 272 300 250 322 250 350 c 0
 250 378 272 400 300 400 c 0
 328 400 350 378 350 350 c 0
 350 322 328 300 300 300 c 0
100 150 m 0
 72 150 50 172 50 200 c 0
 50 228 72 250 100 250 c 0
 128 250 150 228 150 200 c 0
 150 172 128 150 100 150 c 0
300 150 m 0
 272 150 250 172 250 200 c 0
 250 228 272 250 300 250 c 0
 328 250 350 228 350 200 c 0
 350 172 328 150 300 150 c 0
200 0 m 0x8080
 172 0 150 22 150 50 c 0
 150 78 172 100 200 100 c 0
 228 100 250 78 250 50 c 0
 250 22 228 0 200 0 c 0x8080
300 0 m 0x8040
 272 0 250 22 250 50 c 0
 250 78 272 100 300 100 c 0
 328 100 350 78 350 50 c 0
 350 22 328 0 300 0 c 0x8040
EndSplineSet
EndChar

StartChar: V
Encoding: 86 86 98
Width: 400
GlyphClass: 1
Flags: MW
HStem: 0 100<186 214> 150 100<86 114 286 314> 300 100<86 114 286 314> 450 100<86 114 286 314> 600 100<86 114 286 314>
VStem: 50 100<186 214 336 364 486 514 636 664> 150 100<36 64 186 214 336 364 486 514 636 664> 250 100<186 214 336 364 486 514 636 664>
LayerCount: 2
Fore
SplineSet
100 600 m 0xfd
 72 600 50 622 50 650 c 0
 50 678 72 700 100 700 c 0
 128 700 150 678 150 650 c 0
 150 622 128 600 100 600 c 0xfd
300 600 m 0
 272 600 250 622 250 650 c 0
 250 678 272 700 300 700 c 0
 328 700 350 678 350 650 c 0
 350 622 328 600 300 600 c 0
100 450 m 0
 72 450 50 472 50 500 c 0
 50 528 72 550 100 550 c 0
 128 550 150 528 150 500 c 0
 150 472 128 450 100 450 c 0
300 450 m 0
 272 450 250 472 250 500 c 0
 250 528 272 550 300 550 c 0
 328 550 350 528 350 500 c 0
 350 472 328 450 300 450 c 0
100 300 m 0
 72 300 50 322 50 350 c 0
 50 378 72 400 100 400 c 0
 128 400 150 378 150 350 c 0
 150 322 128 300 100 300 c 0
300 300 m 0
 272 300 250 322 250 350 c 0
 250 378 272 400 300 400 c 0
 328 400 350 378 350 350 c 0
 350 322 328 300 300 300 c 0
100 150 m 0
 72 150 50 172 50 200 c 0
 50 228 72 250 100 250 c 0
 128 250 150 228 150 200 c 0
 150 172 128 150 100 150 c 0
300 150 m 0
 272 150 250 172 250 200 c 0
 250 228 272 250 300 250 c 0
 328 250 350 228 350 200 c 0
 350 172 328 150 300 150 c 0
200 0 m 0x82
 172 0 150 22 150 50 c 0
 150 78 172 100 200 100 c 0
 228 100 250 78 250 50 c 0
 250 22 228 0 200 0 c 0x82
EndSplineSet
EndChar

StartChar: W
Encoding: 87 87 99
Width: 400
GlyphClass: 1
Flags: MW
HStem: 0 100<186 214> 150 100<86 114 186 214 286 314> 300 100<86 114 186 214 286 314> 450 100<86 114 286 314> 600 100<86 114 286 314>
VStem: 50 100<186 214 336 364 486 514 636 664> 150 100<36 64 186 214 186 214 336 364 336 364 486 514 636 664> 250 100<186 214 186 214 336 364 336 364 486 514 636 664>
LayerCount: 2
Fore
SplineSet
100 600 m 0xfd
 72 600 50 622 50 650 c 0
 50 678 72 700 100 700 c 0
 128 700 150 678 150 650 c 0
 150 622 128 600 100 600 c 0xfd
300 600 m 0
 272 600 250 622 250 650 c 0
 250 678 272 700 300 700 c 0
 328 700 350 678 350 650 c 0
 350 622 328 600 300 600 c 0
100 450 m 0
 72 450 50 472 50 500 c 0
 50 528 72 550 100 550 c 0
 128 550 150 528 150 500 c 0
 150 472 128 450 100 450 c 0
300 450 m 0
 272 450 250 472 250 500 c 0
 250 528 272 550 300 550 c 0
 328 550 350 528 350 500 c 0
 350 472 328 450 300 450 c 0
100 300 m 0
 72 300 50 322 50 350 c 0
 50 378 72 400 100 400 c 0
 128 400 150 378 150 350 c 0
 150 322 128 300 100 300 c 0
200 300 m 0x22
 172 300 150 322 150 350 c 0
 150 378 172 400 200 400 c 0
 228 400 250 378 250 350 c 0
 250 322 228 300 200 300 c 0x22
300 300 m 0x65
 272 300 250 322 250 350 c 0
 250 378 272 400 300 400 c 0
 328 400 350 378 350 350 c 0
 350 322 328 300 300 300 c 0x65
100 150 m 0
 72 150 50 172 50 200 c 0
 50 228 72 250 100 250 c 0
 128 250 150 228 150 200 c 0
 150 172 128 150 100 150 c 0
200 150 m 0x42
 172 150 150 172 150 200 c 0
 150 228 172 250 200 250 c 0
 228 250 250 228 250 200 c 0
 250 172 228 150 200 150 c 0x42
300 150 m 0x41
 272 150 250 172 250 200 c 0
 250 228 272 250 300 250 c 0
 328 250 350 228 350 200 c 0
 350 172 328 150 300 150 c 0x41
200 0 m 0x82
 172 0 150 22 150 50 c 0
 150 78 172 100 200 100 c 0
 228 100 250 78 250 50 c 0
 250 22 228 0 200 0 c 0x82
EndSplineSet
EndChar

StartChar: Wacute
Encoding: 7810 7810 100
Width: 400
GlyphClass: 1
Flags: MW
HStem: 0 100<186 214> 150 100<86 114 186 214 286 314> 300 100<86 114 186 214 286 314> 450 100<86 114 286 314> 600 100<86 114 286 314> 750 100<186 214> 900 100<286 314>
VStem: 50 100<186 214 336 364 486 514 636 664> 150 100<36 64 186 214 186 214 336 364 336 364 486 514 636 664 786 814> 250 100<186 214 186 214 336 364 336 364 486 514 636 664 936 964>
LayerCount: 2
Fore
SplineSet
300 900 m 0xff40
 272 900 250 922 250 950 c 0
 250 978 272 1000 300 1000 c 0
 328 1000 350 978 350 950 c 0
 350 922 328 900 300 900 c 0xff40
200 750 m 0x0480
 172 750 150 772 150 800 c 0
 150 828 172 850 200 850 c 0
 228 850 250 828 250 800 c 0
 250 772 228 750 200 750 c 0x0480
100 600 m 0x3940
 72 600 50 622 50 650 c 0
 50 678 72 700 100 700 c 0
 128 700 150 678 150 650 c 0
 150 622 128 600 100 600 c 0x3940
300 600 m 0
 272 600 250 622 250 650 c 0
 250 678 272 700 300 700 c 0
 328 700 350 678 350 650 c 0
 350 622 328 600 300 600 c 0
100 450 m 0
 72 450 50 472 50 500 c 0
 50 528 72 550 100 550 c 0
 128 550 150 528 150 500 c 0
 150 472 128 450 100 450 c 0
300 450 m 0
 272 450 250 472 250 500 c 0
 250 528 272 550 300 550 c 0
 328 550 350 528 350 500 c 0
 350 472 328 450 300 450 c 0
100 300 m 0
 72 300 50 322 50 350 c 0
 50 378 72 400 100 400 c 0
 128 400 150 378 150 350 c 0
 150 322 128 300 100 300 c 0
200 300 m 0x2080
 172 300 150 322 150 350 c 0
 150 378 172 400 200 400 c 0
 228 400 250 378 250 350 c 0
 250 322 228 300 200 300 c 0x2080
300 300 m 0x6140
 272 300 250 322 250 350 c 0
 250 378 272 400 300 400 c 0
 328 400 350 378 350 350 c 0
 350 322 328 300 300 300 c 0x6140
100 150 m 0
 72 150 50 172 50 200 c 0
 50 228 72 250 100 250 c 0
 128 250 150 228 150 200 c 0
 150 172 128 150 100 150 c 0
200 150 m 0x4080
 172 150 150 172 150 200 c 0
 150 228 172 250 200 250 c 0
 228 250 250 228 250 200 c 0
 250 172 228 150 200 150 c 0x4080
300 150 m 0x4040
 272 150 250 172 250 200 c 0
 250 228 272 250 300 250 c 0
 328 250 350 228 350 200 c 0
 350 172 328 150 300 150 c 0x4040
200 0 m 0x8080
 172 0 150 22 150 50 c 0
 150 78 172 100 200 100 c 0
 228 100 250 78 250 50 c 0
 250 22 228 0 200 0 c 0x8080
EndSplineSet
EndChar

StartChar: Wcircumflex
Encoding: 372 372 101
Width: 400
GlyphClass: 1
Flags: MW
HStem: 0 100<186 214> 150 100<86 114 186 214 286 314> 300 100<86 114 186 214 286 314> 450 100<86 114 286 314> 600 100<86 114 286 314> 750 100<86 114 286 314> 900 100<186 214>
VStem: 50 100<186 214 336 364 486 514 636 664 786 814> 150 100<36 64 186 214 186 214 336 364 336 364 486 514 636 664 786 814 936 964> 250 100<186 214 186 214 336 364 336 364 486 514 636 664 786 814>
LayerCount: 2
Fore
SplineSet
200 900 m 0x0280
 172 900 150 922 150 950 c 0
 150 978 172 1000 200 1000 c 0
 228 1000 250 978 250 950 c 0
 250 922 228 900 200 900 c 0x0280
100 750 m 0x3d40
 72 750 50 772 50 800 c 0
 50 828 72 850 100 850 c 0
 128 850 150 828 150 800 c 0
 150 772 128 750 100 750 c 0x3d40
300 750 m 0
 272 750 250 772 250 800 c 0
 250 828 272 850 300 850 c 0
 328 850 350 828 350 800 c 0
 350 772 328 750 300 750 c 0
100 600 m 0
 72 600 50 622 50 650 c 0
 50 678 72 700 100 700 c 0
 128 700 150 678 150 650 c 0
 150 622 128 600 100 600 c 0
300 600 m 0
 272 600 250 622 250 650 c 0
 250 678 272 700 300 700 c 0
 328 700 350 678 350 650 c 0
 350 622 328 600 300 600 c 0
100 450 m 0
 72 450 50 472 50 500 c 0
 50 528 72 550 100 550 c 0
 128 550 150 528 150 500 c 0
 150 472 128 450 100 450 c 0
300 450 m 0
 272 450 250 472 250 500 c 0
 250 528 272 550 300 550 c 0
 328 550 350 528 350 500 c 0
 350 472 328 450 300 450 c 0
100 300 m 0
 72 300 50 322 50 350 c 0
 50 378 72 400 100 400 c 0
 128 400 150 378 150 350 c 0
 150 322 128 300 100 300 c 0
200 300 m 0x2080
 172 300 150 322 150 350 c 0
 150 378 172 400 200 400 c 0
 228 400 250 378 250 350 c 0
 250 322 228 300 200 300 c 0x2080
300 300 m 0x6140
 272 300 250 322 250 350 c 0
 250 378 272 400 300 400 c 0
 328 400 350 378 350 350 c 0
 350 322 328 300 300 300 c 0x6140
100 150 m 0
 72 150 50 172 50 200 c 0
 50 228 72 250 100 250 c 0
 128 250 150 228 150 200 c 0
 150 172 128 150 100 150 c 0
200 150 m 0x4080
 172 150 150 172 150 200 c 0
 150 228 172 250 200 250 c 0
 228 250 250 228 250 200 c 0
 250 172 228 150 200 150 c 0x4080
300 150 m 0x4040
 272 150 250 172 250 200 c 0
 250 228 272 250 300 250 c 0
 328 250 350 228 350 200 c 0
 350 172 328 150 300 150 c 0x4040
200 0 m 0x8080
 172 0 150 22 150 50 c 0
 150 78 172 100 200 100 c 0
 228 100 250 78 250 50 c 0
 250 22 228 0 200 0 c 0x8080
EndSplineSet
EndChar

StartChar: Wdieresis
Encoding: 7812 7812 102
Width: 400
GlyphClass: 1
Flags: MW
HStem: 0 100<186 214> 150 100<86 114 186 214 286 314> 300 100<86 114 186 214 286 314> 450 100<86 114 286 314> 600 100<86 114 286 314> 900 100<86 114 286 314>
VStem: 50 100<186 214 336 364 486 514 636 664 936 964> 150 100<36 64 186 214 186 214 336 364 336 364 486 514 636 664 936 964> 250 100<186 214 186 214 336 364 336 364 486 514 636 664 936 964>
LayerCount: 2
Fore
SplineSet
100 900 m 0xfe80
 72 900 50 922 50 950 c 0
 50 978 72 1000 100 1000 c 0
 128 1000 150 978 150 950 c 0
 150 922 128 900 100 900 c 0xfe80
300 900 m 0
 272 900 250 922 250 950 c 0
 250 978 272 1000 300 1000 c 0
 328 1000 350 978 350 950 c 0
 350 922 328 900 300 900 c 0
100 600 m 0
 72 600 50 622 50 650 c 0
 50 678 72 700 100 700 c 0
 128 700 150 678 150 650 c 0
 150 622 128 600 100 600 c 0
300 600 m 0
 272 600 250 622 250 650 c 0
 250 678 272 700 300 700 c 0
 328 700 350 678 350 650 c 0
 350 622 328 600 300 600 c 0
100 450 m 0
 72 450 50 472 50 500 c 0
 50 528 72 550 100 550 c 0
 128 550 150 528 150 500 c 0
 150 472 128 450 100 450 c 0
300 450 m 0
 272 450 250 472 250 500 c 0
 250 528 272 550 300 550 c 0
 328 550 350 528 350 500 c 0
 350 472 328 450 300 450 c 0
100 300 m 0
 72 300 50 322 50 350 c 0
 50 378 72 400 100 400 c 0
 128 400 150 378 150 350 c 0
 150 322 128 300 100 300 c 0
200 300 m 0x21
 172 300 150 322 150 350 c 0
 150 378 172 400 200 400 c 0
 228 400 250 378 250 350 c 0
 250 322 228 300 200 300 c 0x21
300 300 m 0x6280
 272 300 250 322 250 350 c 0
 250 378 272 400 300 400 c 0
 328 400 350 378 350 350 c 0
 350 322 328 300 300 300 c 0x6280
100 150 m 0
 72 150 50 172 50 200 c 0
 50 228 72 250 100 250 c 0
 128 250 150 228 150 200 c 0
 150 172 128 150 100 150 c 0
200 150 m 0x41
 172 150 150 172 150 200 c 0
 150 228 172 250 200 250 c 0
 228 250 250 228 250 200 c 0
 250 172 228 150 200 150 c 0x41
300 150 m 0x4080
 272 150 250 172 250 200 c 0
 250 228 272 250 300 250 c 0
 328 250 350 228 350 200 c 0
 350 172 328 150 300 150 c 0x4080
200 0 m 0x81
 172 0 150 22 150 50 c 0
 150 78 172 100 200 100 c 0
 228 100 250 78 250 50 c 0
 250 22 228 0 200 0 c 0x81
EndSplineSet
EndChar

StartChar: Wgrave
Encoding: 7808 7808 103
Width: 400
GlyphClass: 1
Flags: MW
HStem: 0 100<186 214> 150 100<86 114 186 214 286 314> 300 100<86 114 186 214 286 314> 450 100<86 114 286 314> 600 100<86 114 286 314> 750 100<186 214> 900 100<86 114>
VStem: 50 100<186 214 336 364 486 514 636 664 936 964> 150 100<36 64 186 214 186 214 336 364 336 364 486 514 636 664 786 814> 250 100<186 214 186 214 336 364 336 364 486 514 636 664>
LayerCount: 2
Fore
SplineSet
100 900 m 0xff40
 72 900 50 922 50 950 c 0
 50 978 72 1000 100 1000 c 0
 128 1000 150 978 150 950 c 0
 150 922 128 900 100 900 c 0xff40
200 750 m 0x0480
 172 750 150 772 150 800 c 0
 150 828 172 850 200 850 c 0
 228 850 250 828 250 800 c 0
 250 772 228 750 200 750 c 0x0480
100 600 m 0x3940
 72 600 50 622 50 650 c 0
 50 678 72 700 100 700 c 0
 128 700 150 678 150 650 c 0
 150 622 128 600 100 600 c 0x3940
300 600 m 0
 272 600 250 622 250 650 c 0
 250 678 272 700 300 700 c 0
 328 700 350 678 350 650 c 0
 350 622 328 600 300 600 c 0
100 450 m 0
 72 450 50 472 50 500 c 0
 50 528 72 550 100 550 c 0
 128 550 150 528 150 500 c 0
 150 472 128 450 100 450 c 0
300 450 m 0
 272 450 250 472 250 500 c 0
 250 528 272 550 300 550 c 0
 328 550 350 528 350 500 c 0
 350 472 328 450 300 450 c 0
100 300 m 0
 72 300 50 322 50 350 c 0
 50 378 72 400 100 400 c 0
 128 400 150 378 150 350 c 0
 150 322 128 300 100 300 c 0
200 300 m 0x2080
 172 300 150 322 150 350 c 0
 150 378 172 400 200 400 c 0
 228 400 250 378 250 350 c 0
 250 322 228 300 200 300 c 0x2080
300 300 m 0x6140
 272 300 250 322 250 350 c 0
 250 378 272 400 300 400 c 0
 328 400 350 378 350 350 c 0
 350 322 328 300 300 300 c 0x6140
100 150 m 0
 72 150 50 172 50 200 c 0
 50 228 72 250 100 250 c 0
 128 250 150 228 150 200 c 0
 150 172 128 150 100 150 c 0
200 150 m 0x4080
 172 150 150 172 150 200 c 0
 150 228 172 250 200 250 c 0
 228 250 250 228 250 200 c 0
 250 172 228 150 200 150 c 0x4080
300 150 m 0x4040
 272 150 250 172 250 200 c 0
 250 228 272 250 300 250 c 0
 328 250 350 228 350 200 c 0
 350 172 328 150 300 150 c 0x4040
200 0 m 0x8080
 172 0 150 22 150 50 c 0
 150 78 172 100 200 100 c 0
 228 100 250 78 250 50 c 0
 250 22 228 0 200 0 c 0x8080
EndSplineSet
EndChar

StartChar: X
Encoding: 88 88 104
Width: 400
GlyphClass: 1
Flags: MW
HStem: 0 100<86 114 286 314> 150 100<86 114 286 314> 300 100<186 214> 450 100<86 114 286 314> 600 100<86 114 286 314>
VStem: 50 100<36 64 186 214 486 514 636 664> 150 100<36 64 186 214 336 364 486 514 636 664> 250 100<36 64 186 214 486 514 636 664>
LayerCount: 2
Fore
SplineSet
100 600 m 0xfd
 72 600 50 622 50 650 c 0
 50 678 72 700 100 700 c 0
 128 700 150 678 150 650 c 0
 150 622 128 600 100 600 c 0xfd
300 600 m 0
 272 600 250 622 250 650 c 0
 250 678 272 700 300 700 c 0
 328 700 350 678 350 650 c 0
 350 622 328 600 300 600 c 0
100 450 m 0
 72 450 50 472 50 500 c 0
 50 528 72 550 100 550 c 0
 128 550 150 528 150 500 c 0
 150 472 128 450 100 450 c 0
300 450 m 0
 272 450 250 472 250 500 c 0
 250 528 272 550 300 550 c 0
 328 550 350 528 350 500 c 0
 350 472 328 450 300 450 c 0
200 300 m 0x22
 172 300 150 322 150 350 c 0
 150 378 172 400 200 400 c 0
 228 400 250 378 250 350 c 0
 250 322 228 300 200 300 c 0x22
100 150 m 0xc5
 72 150 50 172 50 200 c 0
 50 228 72 250 100 250 c 0
 128 250 150 228 150 200 c 0
 150 172 128 150 100 150 c 0xc5
300 150 m 0
 272 150 250 172 250 200 c 0
 250 228 272 250 300 250 c 0
 328 250 350 228 350 200 c 0
 350 172 328 150 300 150 c 0
100 0 m 0
 72 0 50 22 50 50 c 0
 50 78 72 100 100 100 c 0
 128 100 150 78 150 50 c 0
 150 22 128 0 100 0 c 0
300 0 m 0
 272 0 250 22 250 50 c 0
 250 78 272 100 300 100 c 0
 328 100 350 78 350 50 c 0
 350 22 328 0 300 0 c 0
EndSplineSet
EndChar

